<svg xmlns="http://www.w3.org/2000/svg" width="24" height="24" fill="none" ><g stroke="#fff" stroke-width=".938"><path d="M19.406 18.656v4.711H.656V.75h18.75v6.047" stroke-linecap="round" stroke-linejoin="round"/><circle cx="9.938" cy="6.844" r="3.844"/><path d="M7.136 9.492c.559-.967 1.604-1.617 2.802-1.617s2.242.65 2.802 1.617"/><rect x="8.719" y="5.109" width="2.438" height="2.719" rx="1.219"/></g><g fill="#fff"><rect x="5.344" y="12.656" width="7.594" height=".938" rx=".469"/><rect x="5.344" y="15.281" width="7.594" height=".938" rx=".469"/><rect x="5.344" y="17.906" width="7.594" height=".938" rx=".469"/><rect x="9.469" y="20.531" width="3.469" height=".938" rx=".469"/><circle cx="3.797" cy="13.125" r=".469"/><circle cx="3.797" cy="15.75" r=".469"/><circle cx="3.797" cy="18.375" r=".469"/></g><path d="M14.813 17.414l-.469 3.492 2.789-2.203 5.892-10.321a1.29 1.29 0 1 0-2.24-1.287l-5.972 10.32z" stroke="#fff" stroke-width=".938" stroke-linejoin="round"/><path d="M15.585 16.949l1.583.914-.469.812-1.583-.914zm4.923-8.652l1.583.914-.469.812-1.583-.914z" fill="#fff"/></svg>