<svg xmlns="http://www.w3.org/2000/svg" width="28" height="28" fill="none" ><mask id="A" fill="#fff"><path d="M19.852 11.184c.121 0 .22-.098.208-.218a2.3 2.3 0 0 0-.164-.661c-.115-.279-.285-.532-.498-.745s-.466-.382-.745-.498c-.211-.087-.434-.143-.66-.164-.12-.011-.219.088-.219.208v.656c0 .121.099.217.218.239a1.21 1.21 0 0 1 .243.072c.146.061.279.149.39.261s.2.244.261.39a1.2 1.2 0 0 1 .072.243c.022.119.118.218.239.218h.656z"/></mask><path d="M18.885 10.723l-1.011.419 1.011-.419zM17.991 10l-.198 1.076.198-1.076zm3.158.861a3.39 3.39 0 0 0-.243-.975l-2.021.837a1.2 1.2 0 0 1 .086.346l2.178-.208zm-.243-.975a3.39 3.39 0 0 0-.735-1.1l-1.547 1.547c.112.112.2.244.261.39l2.021-.837zm-.735-1.1a3.39 3.39 0 0 0-1.1-.735l-.837 2.021a1.2 1.2 0 0 1 .39.261l1.547-1.547zm-1.1-.735a3.39 3.39 0 0 0-.975-.243l-.208 2.178a1.2 1.2 0 0 1 .346.086l.837-2.021zM16.68 9.105v.656h2.188v-.656H16.68zm1.113 1.97c.008.001.015.004.022.006l.837-2.021a2.3 2.3 0 0 0-.464-.137l-.396 2.151zm.022.006a.11.11 0 0 1 .036.024l1.547-1.547a2.3 2.3 0 0 0-.745-.498l-.837 2.021zm.036.024a.11.11 0 0 1 .024.036l2.021-.837a2.3 2.3 0 0 0-.498-.745l-1.547 1.547zm.024.036c.003.007.005.014.006.022l2.151-.396a2.3 2.3 0 0 0-.137-.464l-2.021.837zm1.321 1.136h.656V10.09h-.656v2.188zm-1.314-1.114c.095.516.551 1.114 1.314 1.114V10.09a.84.84 0 0 1 .837.678l-2.151.396zm.215-3.355c-.832-.079-1.416.603-1.416 1.297h2.188c0 .452-.388.937-.979.88l.208-2.178zM16.68 9.762c0 .763.597 1.219 1.113 1.314l.396-2.151a.84.84 0 0 1 .678.837H16.68zm2.291 1.308c-.056-.592.428-.979.881-.979v2.188c.694 0 1.377-.584 1.297-1.416l-2.178.208z" fill="#fff" mask="url(#A)"/><mask id="B" fill="#fff"><path d="M10.227 9.133c0-.121-.098-.22-.218-.208-.227.022-.449.077-.661.164-.279.115-.532.285-.745.498s-.382.466-.498.745c-.087.211-.143.434-.164.66-.011.12.088.218.208.218h.656c.121 0 .217-.099.239-.218a1.2 1.2 0 0 1 .072-.243c.06-.146.149-.279.261-.39s.244-.2.39-.261c.078-.032.16-.056.243-.072.119-.022.218-.118.218-.239v-.656z"/></mask><path d="M9.766 10.099l.419 1.011-.419-1.011zm-.723.894l1.076.198-1.076-.198zm.861-3.158a3.39 3.39 0 0 0-.975.243l.837 2.021a1.2 1.2 0 0 1 .346-.086l-.208-2.178zm-.975.243a3.39 3.39 0 0 0-1.1.735l1.547 1.547c.112-.112.244-.2.39-.261l-.837-2.021zm-1.1.735a3.39 3.39 0 0 0-.735 1.1l2.021.837c.06-.146.149-.279.261-.39L7.829 8.813zm-.735 1.1a3.39 3.39 0 0 0-.243.975l2.178.208c.011-.119.04-.235.086-.346l-2.021-.837zm1.054 2.391h.656v-2.187h-.656v2.188zm1.97-1.114c.001-.008.004-.015.007-.022l-2.021-.837a2.3 2.3 0 0 0-.137.464l2.151.396zm.007-.022c.005-.013.014-.025.024-.036L8.602 9.587c-.213.213-.382.466-.498.745l2.021.837zm.024-.036c.01-.01.022-.018.036-.024l-.837-2.021c-.279.115-.532.285-.745.498l1.547 1.547zm.036-.024a.1.1 0 0 1 .022-.006l-.396-2.151c-.159.029-.314.075-.464.137l.837 2.021zm1.136-1.321v-.656H9.133v.656h2.187zm-1.114 1.314c.516-.095 1.114-.551 1.114-1.314H9.133a.84.84 0 0 1 .678-.837l.396 2.151zm-3.355-.215c-.08.832.603 1.416 1.297 1.416v-2.187c.452 0 .937.387.88.979l-2.178-.208zm1.953 1.416c.763 0 1.219-.597 1.314-1.114l-2.151-.396a.84.84 0 0 1 .837-.678v2.188zm1.308-2.291c-.592.057-.979-.428-.979-.88h2.187c0-.694-.584-1.377-1.416-1.297l.208 2.178z" fill="#fff" mask="url(#B)"/><mask id="C" fill="#fff"><path d="M21.328 10.938c.121 0 .22-.098.212-.219-.024-.381-.111-.756-.258-1.11-.174-.421-.43-.804-.753-1.127s-.705-.578-1.127-.753a3.47 3.47 0 0 0-1.11-.257c-.12-.008-.219.091-.219.212v.371c0 .121.098.218.218.228.275.023.545.088.801.194.323.134.617.33.864.577s.444.541.577.864c.106.256.171.526.194.801.01.12.107.219.228.219h.371z"/></mask><path d="M19.094 8.477l-.419 1.01.419-1.01zm-.801-.194l-.09 1.09h0l.09-1.09zm4.339 2.367c-.032-.501-.146-.995-.339-1.46l-2.021.837a2.38 2.38 0 0 1 .176.761l2.183-.138zm-.339-1.46c-.229-.554-.566-1.057-.99-1.481l-1.547 1.547a2.38 2.38 0 0 1 .516.772l2.021-.837zm-.99-1.481a4.57 4.57 0 0 0-1.482-.99l-.837 2.021a2.38 2.38 0 0 1 .772.516l1.547-1.547zm-1.482-.99c-.465-.193-.959-.307-1.46-.339l-.138 2.183a2.38 2.38 0 0 1 .761.176l.837-2.021zm-2.841.965v.371h2.188v-.371h-2.187zm1.223 1.689a1.57 1.57 0 0 1 .472.114l.837-2.021a3.76 3.76 0 0 0-1.13-.273l-.179 2.18zm.472.114a1.57 1.57 0 0 1 .509.34l1.547-1.547a3.76 3.76 0 0 0-1.219-.815l-.837 2.021zm.509.34a1.57 1.57 0 0 1 .34.509l2.021-.837c-.189-.456-.466-.87-.814-1.219l-1.547 1.547zm.34.509c.063.151.101.31.114.472l2.18-.179c-.032-.388-.124-.769-.273-1.13l-2.021.837zm1.432 1.694h.371V9.844h-.371v2.187zm-1.318-1.223c.052.631.572 1.223 1.318 1.223V9.844a.86.86 0 0 1 .862.786l-2.18.179zM18.362 6.38c-.796-.05-1.381.598-1.381 1.303h2.188c0 .464-.389.915-.944.88l.138-2.183zm-1.381 1.675c0 .746.592 1.266 1.223 1.318l.179-2.18a.86.86 0 0 1 .786.862h-2.187zm3.468 2.733c-.035-.555.416-.944.88-.944v2.187c.705 0 1.354-.585 1.303-1.381l-2.183.138z" fill="#fff" mask="url(#C)"/><mask id="D" fill="#fff"><path d="M9.98 7.656c0-.121-.098-.219-.219-.212-.381.024-.756.111-1.11.257-.421.175-.804.43-1.127.753s-.578.705-.753 1.127c-.147.354-.233.729-.257 1.11-.008.121.091.219.212.219h.371c.121 0 .218-.098.228-.219.023-.275.088-.545.194-.801.134-.323.33-.617.577-.864s.541-.444.864-.577c.256-.106.526-.171.801-.194.12-.01.219-.107.219-.228v-.371z"/></mask><path d="M7.519 9.891l1.01.419-1.01-.419zm-.194.801l1.09.09h0l-1.09-.09zm2.367-4.339c-.501.032-.995.146-1.46.339l.837 2.021a2.38 2.38 0 0 1 .761-.176l-.138-2.183zm-1.46.339c-.554.229-1.057.566-1.481.99l1.547 1.547a2.38 2.38 0 0 1 .772-.516l-.837-2.021zm-1.481.99c-.424.424-.76.927-.99 1.481L7.783 10a2.38 2.38 0 0 1 .516-.772L6.752 7.681zm-.99 1.481c-.193.465-.307.959-.339 1.46l2.183.138A2.38 2.38 0 0 1 7.783 10l-2.021-.837zm.965 2.841h.371V9.816h-.371v2.187zm1.689-1.223a1.57 1.57 0 0 1 .114-.472l-2.021-.837a3.76 3.76 0 0 0-.273 1.13l2.18.179zm.114-.472a1.57 1.57 0 0 1 .34-.509L7.324 8.253a3.76 3.76 0 0 0-.815 1.219l2.021.837zm.34-.509a1.57 1.57 0 0 1 .509-.34l-.837-2.021c-.456.189-.87.466-1.219.815L8.87 9.8zm.509-.34a1.57 1.57 0 0 1 .472-.114l-.179-2.18a3.76 3.76 0 0 0-1.13.273L9.38 9.46zm1.695-1.432v-.371H8.887v.371h2.187zM9.852 9.345c.631-.052 1.223-.572 1.223-1.318H8.887a.86.86 0 0 1 .786-.862l.179 2.18zm-4.429 1.277c-.05.796.598 1.381 1.303 1.381V9.816c.464 0 .915.389.88.944l-2.183-.138zm1.675 1.381c.746 0 1.266-.592 1.318-1.223l-2.18-.179a.86.86 0 0 1 .862-.785v2.187zm2.733-3.468c-.555.035-.944-.416-.944-.88h2.187c0-.705-.585-1.354-1.381-1.303l.138 2.183z" fill="#fff" mask="url(#D)"/><circle cx="14" cy="14" r="10.938" stroke="#fff" stroke-width="1.094"/><mask id="E" fill="#fff"><path d="M12.086 18.648c0 .508.202.995.561 1.354s.846.561 1.353.561.995-.202 1.353-.561.561-.846.561-1.354h-1.07c0 .224-.089.438-.247.597s-.373.247-.597.247-.438-.089-.597-.247-.247-.373-.247-.597h-1.07z"/></mask><path d="M12.086 18.648c0 .508.202.995.561 1.354s.846.561 1.353.561.995-.202 1.353-.561.561-.846.561-1.354h-1.07c0 .224-.089.438-.247.597s-.373.247-.597.247-.438-.089-.597-.247-.247-.373-.247-.597h-1.07z" stroke="#fff" stroke-width="2.188" mask="url(#E)"/><g fill="#fff"><path d="M8.914 18.184h-.547c0 .302.245.547.547.547v-.547zm10.199 0v.547c.302 0 .547-.245.547-.547h-.547zm-1.531-2.324h-.547c0 .177.085.342.229.445l.318-.445zm-7.301 0l.342.427c.13-.104.205-.261.205-.427h-.547zm-.957.765l-.342-.427.342.427zm9.331.001l.318-.445-.318.445zm-9.741 2.104h10.199v-1.094H8.914v1.094zm10.746-.547v-.668h-1.094v.668h1.094zm-.687-2.003l-1.073-.767-.636.89 1.073.767.636-.89zm-.844-.322v-3.473h-1.094v3.473h1.094zm-2.707-6.18V8.354h-1.094V9.68h1.094zm-2.926-1.326V9.68h1.094V8.354h-1.094zm-2.762 4.088v3.418h1.094v-3.418H9.734zm.205 2.991l-.957.765.683.854.957-.765-.683-.854zm-1.572 2.047v.705h1.094v-.705H8.367zm.616-1.281a1.64 1.64 0 0 0-.616 1.281h1.094c0-.166.076-.323.205-.427l-.683-.854zm6.439-7.844c0-.808-.655-1.463-1.463-1.463v1.094a.37.37 0 0 1 .369.369h1.094zm-2.379.779a3.31 3.31 0 0 0-3.309 3.309h1.094c0-1.223.992-2.215 2.215-2.215V9.133zm5.086 3.254c0-1.797-1.457-3.254-3.254-3.254v1.094a2.16 2.16 0 0 1 2.16 2.16h1.094zm-4.17-5.496c-.808 0-1.463.655-1.463 1.463h1.094a.37.37 0 0 1 .369-.369V6.891zm5.701 10.625a1.64 1.64 0 0 0-.687-1.335l-.636.89c.144.103.229.268.229.445h1.094z"/><path d="M13.016 9.625h.574v.602h-.574zm1.312 0h.547v.602h-.547z"/></g></svg>