<svg xmlns="http://www.w3.org/2000/svg" width="28" height="28" fill="none" ><circle cx="18.102" cy="13.398" r="2.516" fill="#fff"/><circle cx="13.809" cy="14.246" r="10.145" stroke="#fff" stroke-width="1.094"/><g fill="#fff"><g stroke="#22379c" stroke-width=".547"><circle cx="13.836" cy="4.211" r="1.914"/><circle cx="3.773" cy="14.273" r="1.914" transform="rotate(270 3.773 14.273)"/><circle cx="6.721" cy="7.158" r="1.914" transform="rotate(315 6.721 7.158)"/><circle cx="20.951" cy="7.158" r="1.914" transform="rotate(45 20.951 7.158)"/><circle cx="13.836" cy="24.336" r="1.914"/><circle cx="23.898" cy="14.273" r="1.914" transform="rotate(270 23.898 14.273)"/><circle cx="20.951" cy="21.389" r="1.914" transform="rotate(315 20.951 21.389)"/><circle cx="6.721" cy="21.389" r="1.914" transform="rotate(45 6.721 21.389)"/></g><circle cx="9.68" cy="13.398" r="2.516"/><circle cx="18.047" cy="13.398" r="2.516"/><path d="M7.109 17.391c0-.936.759-1.695 1.695-1.695h3.063v3.609H7.109v-1.914zm8.422-1.696h3.062c.936 0 1.695.759 1.695 1.695v1.914H15.53v-3.609z"/></g><mask id="A" maskUnits="userSpaceOnUse" x="10.32" y="13.273" width="7" height="7" fill="#000"><path fill="#fff" d="M10.32 13.273h7v7h-7z"/><path d="M11.32 16.789c0-1.389 1.126-2.516 2.516-2.516h.055c1.389 0 2.516 1.126 2.516 2.516v2.516H11.32v-2.516z"/></mask><path d="M11.32 16.789c0-1.389 1.126-2.516 2.516-2.516h.055c1.389 0 2.516 1.126 2.516 2.516v2.516H11.32v-2.516z" fill="#fff"/><path d="M10.5 16.789c0-1.842 1.494-3.336 3.336-3.336h.055c1.842 0 3.336 1.494 3.336 3.336h-1.641c0-.936-.759-1.695-1.695-1.695h-.055c-.936 0-1.695.759-1.695 1.695H10.5zm5.906 2.516H11.32h5.086zm-5.906 0v-2.516c0-1.842 1.494-3.336 3.336-3.336v1.641c-.936 0-1.695.759-1.695 1.695v2.516H10.5zm3.391-5.852c1.842 0 3.336 1.494 3.336 3.336v2.516h-1.641v-2.516c0-.936-.759-1.695-1.695-1.695v-1.641z" fill="#22379c" mask="url(#A)"/><circle cx="13.836" cy="11.758" r="2.926" fill="#fff" stroke="#22379c" stroke-width=".82"/></svg>