<svg width="24" height="24" viewBox="0 0 24 24" fill="none" xmlns="http://www.w3.org/2000/svg">
<path fill-rule="evenodd" clip-rule="evenodd" d="M16 5C16 3.34315 17.3431 2 19 2C20.6569 2 22 3.34315 22 5C22 6.65685 20.6569 8 19 8C17.3431 8 16 6.65685 16 5ZM19 3C17.8954 3 17 3.89543 17 5C17 6.10457 17.8954 7 19 7C20.1046 7 21 6.10457 21 5C21 3.89543 20.1046 3 19 3ZM6 5.5C5.72386 5.5 5.5 5.72386 5.5 6V12.2314L11.0705 16.6292C11.6155 17.0594 12.3845 17.0594 12.9295 16.6292L18.4681 12.2566L18.4876 9H20.5C21.3284 9 22 9.67157 22 10.5V19.5C22 20.8807 20.8807 22 19.5 22H4.5C3.11929 22 2 20.8807 2 19.5V10.5C2 9.67157 2.67157 9 3.5 9H4.5V6C4.5 5.17157 5.17157 4.5 6 4.5H14.5C14.7761 4.5 15 4.72386 15 5C15 5.27614 14.7761 5.5 14.5 5.5H6ZM4.5 10H3.5C3.29769 10 3.12344 10.1202 3.04472 10.293L4.5 11.4419V10ZM3 11.5318V19.5C3 20.3284 3.67157 21 4.5 21H19.5C20.3284 21 21 20.3284 21 19.5V11.5318L13.5491 17.4141C12.6408 18.1311 11.3592 18.1311 10.4509 17.4141L3 11.5318ZM20.9553 10.293C20.8766 10.1202 20.7023 10 20.5 10H19.4816L19.4729 11.4633L20.9553 10.293ZM9 7.5C9 7.22386 9.22386 7 9.5 7H14.5C14.7761 7 15 7.22386 15 7.5C15 7.77614 14.7761 8 14.5 8H9.5C9.22386 8 9 7.77614 9 7.5ZM8 10C8 9.44772 8.44772 9 9 9H15C15.5523 9 16 9.44772 16 10V12C16 12.5523 15.5523 13 15 13H9C8.44772 13 8 12.5523 8 12V10ZM15 10H9V12H15V10Z" fill="#22379C"/>
</svg>
