<?xml version="1.0" encoding="UTF-8" standalone="no"?>
<!DOCTYPE svg PUBLIC "-//W3C//DTD SVG 1.1//EN" "http://www.w3.org/Graphics/SVG/1.1/DTD/svg11.dtd">
<!-- Created with Vectornator (http://vectornator.io/) -->
<svg height="100%" stroke-miterlimit="10" style="fill-rule:nonzero;clip-rule:evenodd;stroke-linecap:round;stroke-linejoin:round;" version="1.1" viewBox="0 0 113 113" width="100%" xml:space="preserve" xmlns="http://www.w3.org/2000/svg" xmlns:xlink="http://www.w3.org/1999/xlink">
<defs/>
<clipPath id="ArtboardFrame">
<rect height="113" width="113" x="0" y="0"/>
</clipPath>
<g clip-path="url(#ArtboardFrame)" id="무제" visibility="hidden">
<path d="M43.169 69.07C41.547 67.605 39.035 67.762 37.622 69.384C36.157 70.953 36.314 73.465 37.936 74.878L43.116 68.965L43.169 69.07ZM74.564 74.93C76.134 73.465 76.291 71.006 74.878 69.384C73.413 67.762 70.953 67.605 69.331 69.017L74.512 74.878L74.564 74.93ZM78.488 45.785C78.488 46.465 77.86 47.093 77.18 47.093L77.18 54.942C82.203 54.942 86.337 50.808 86.337 45.785C86.337 45.785 78.488 45.785 78.488 45.785ZM77.18 47.093C76.448 47.093 75.872 46.465 75.872 45.785L68.023 45.785C68.023 50.808 72.105 54.942 77.18 54.942C77.18 54.942 77.18 47.093 77.18 47.093ZM75.872 45.785C75.872 45.052 76.448 44.477 77.18 44.477L77.18 36.628C72.105 36.628 68.023 40.709 68.023 45.785C68.023 45.785 75.872 45.785 75.872 45.785ZM77.18 44.477C77.86 44.477 78.488 45.052 78.488 45.785L86.337 45.785C86.337 40.709 82.203 36.628 77.18 36.628C77.18 36.628 77.18 44.477 77.18 44.477ZM104.651 56.25C104.651 82.936 82.936 104.651 56.25 104.651L56.25 112.5C87.279 112.5 112.5 87.279 112.5 56.25C112.5 56.25 104.651 56.25 104.651 56.25ZM56.25 104.651C29.512 104.651 7.849 82.936 7.849 56.25L-1.06581e-14 56.25C-1.06581e-14 87.279 25.169 112.5 56.25 112.5C56.25 112.5 56.25 104.651 56.25 104.651ZM7.849 56.25C7.849 29.512 29.512 7.849 56.25 7.849L56.25 3.55271e-15C25.169 3.55271e-15-7.10543e-15 25.169-7.10543e-15 56.25C-7.10543e-15 56.25 7.849 56.25 7.849 56.25ZM56.25 7.849C82.936 7.849 104.651 29.512 104.651 56.25L112.5 56.25C112.5 25.169 87.279 7.10543e-15 56.25 7.10543e-15C56.25 7.10543e-15 56.25 7.849 56.25 7.849ZM36.628 45.785C36.628 46.465 36 47.093 35.32 47.093L35.32 54.942C40.343 54.942 44.477 50.808 44.477 45.785C44.477 45.785 36.628 45.785 36.628 45.785ZM35.32 47.093C34.587 47.093 34.012 46.465 34.012 45.785L26.163 45.785C26.163 50.808 30.244 54.942 35.32 54.942L35.32 47.093ZM34.012 45.785C34.012 45.052 34.587 44.477 35.32 44.477L35.32 36.628C30.244 36.628 26.163 40.709 26.163 45.785C26.163 45.785 34.012 45.785 34.012 45.785ZM35.32 44.477C36 44.477 36.628 45.052 36.628 45.785L44.477 45.785C44.477 40.709 40.343 36.628 35.32 36.628L35.32 44.477ZM40.552 71.948L37.936 74.878C37.936 74.878 37.988 74.878 37.988 74.93C38.041 74.983 38.145 75.035 38.25 75.14C38.459 75.297 38.773 75.558 39.244 75.872C40.081 76.448 41.285 77.18 42.855 77.965C45.942 79.43 50.442 80.948 56.093 80.948L56.093 73.099C51.855 73.099 48.558 71.948 46.256 70.849C45.105 70.273 44.215 69.75 43.64 69.331C43.326 69.122 43.116 68.965 43.012 68.86C42.907 68.808 42.907 68.756 42.855 68.756L42.802 68.703L40.186 71.634L40.552 71.948ZM56.25 81.105C61.849 81.105 66.349 79.587 69.488 78.07C71.006 77.285 72.262 76.552 73.099 75.924C73.517 75.61 73.831 75.349 74.093 75.14C74.198 75.035 74.302 74.93 74.355 74.878C74.355 74.826 74.407 74.773 74.407 74.773L74.407 74.564C74.407 74.512 69.174 68.599 69.174 68.599L69.174 68.39C69.174 68.337 69.122 68.39 69.122 68.39C69.07 68.39 69.017 68.39 68.965 68.442C68.808 68.494 68.599 68.651 68.337 68.86C67.762 69.227 66.872 69.75 65.721 70.326C63.419 71.424 60.07 72.523 55.884 72.523L55.884 80.372C55.884 80.372 56.25 81.105 56.25 81.105Z" fill="#28303f" fill-rule="nonzero" opacity="1" stroke="none"/>
</g>
<g id="레이어-1">
<path d="M56.25 0C25.169 0 0 25.169 0 56.25C0 87.279 25.169 112.5 56.25 112.5C87.279 112.5 112.5 87.279 112.5 56.25C112.5 25.169 87.279 0 56.25 0ZM56.25 7.84375C82.936 7.84375 104.656 29.512 104.656 56.25C104.656 82.936 82.936 104.656 56.25 104.656C29.512 104.656 7.84375 82.936 7.84375 56.25C7.84375 29.512 29.512 7.84375 56.25 7.84375ZM40.3125 68.0625C39.3051 68.1214 38.3315 68.564 37.625 69.375C36.16 70.944 36.3155 73.462 37.9375 74.875L40.5312 71.9062L40.5625 71.9375L37.9375 74.875C37.9375 74.875 38 74.8855 38 74.9375C38.053 74.9905 38.145 75.02 38.25 75.125C38.459 75.282 38.779 75.561 39.25 75.875C40.087 76.451 41.2738 77.1837 42.8438 77.9688C45.9307 79.4338 50.4428 80.9375 56.0938 80.9375L56.0938 80.7812C56.1711 80.9362 56.25 81.0937 56.25 81.0938C61.849 81.0938 66.361 79.5795 69.5 78.0625C71.018 77.2775 72.2568 76.5655 73.0938 75.9375C73.5117 75.6235 73.8317 75.334 74.0938 75.125C74.1988 75.02 74.2908 74.927 74.3438 74.875C74.3438 74.823 74.4062 74.7813 74.4062 74.7812L74.5 74.875L74.5625 74.9375C76.1325 73.4725 76.288 70.997 74.875 69.375C73.4529 67.8005 71.1206 67.6561 69.5 68.9375C69.4662 68.8993 69.1875 68.5937 69.1875 68.5938L69.1875 68.375C69.1875 68.322 69.125 68.375 69.125 68.375C69.073 68.375 69.0208 68.3855 68.9688 68.4375C68.8118 68.4895 68.6057 68.666 68.3438 68.875C67.7687 69.242 66.8698 69.7365 65.7188 70.3125C63.4167 71.4105 60.061 72.5313 55.875 72.5312L55.875 73.0625C51.7549 73.0192 48.5074 71.9215 46.25 70.8438C45.099 70.2677 44.2 69.7628 43.625 69.3438C43.3738 69.1766 43.242 69.0694 43.125 68.9688L43.1562 69.0625C43.1381 69.0461 43.1122 69.0473 43.0938 69.0312L43.125 68.9688C43.0957 68.9436 43.0208 68.896 43 68.875C42.895 68.823 42.8958 68.75 42.8438 68.75L42.8125 68.6875L42.7188 68.8125C41.9842 68.3084 41.1566 68.0132 40.3125 68.0625Z" fill="#28303f" fill-rule="nonzero" opacity="1" stroke="none"/>
</g>
</svg>
