<svg width="34" height="33" viewBox="0 0 34 33" fill="none" xmlns="http://www.w3.org/2000/svg">
<g opacity="0.5">
<path fill-rule="evenodd" clip-rule="evenodd" d="M5.70825 10.818C5.70825 7.71938 8.22016 5.20752 11.3187 5.20752H22.6817C25.7803 5.20752 28.2922 7.71938 28.2922 10.818V22.181C28.2922 25.2796 25.7803 27.7915 22.6817 27.7915H11.3187C8.22016 27.7915 5.70825 25.2796 5.70825 22.181V10.818ZM11.3187 6.95933C9.18766 6.95933 7.46003 8.68688 7.46003 10.818V22.181C7.46003 24.3121 9.18766 26.0396 11.3187 26.0396H22.6817C24.8128 26.0396 26.5404 24.3121 26.5404 22.181V10.818C26.5404 8.68688 24.8128 6.95933 22.6817 6.95933H11.3187Z" fill="#020202"/>
<path fill-rule="evenodd" clip-rule="evenodd" d="M14.7826 0.875895C14.7826 0.392152 15.1748 0 15.6585 0H18.3414C18.8252 0 19.2174 0.392152 19.2174 0.875895C19.2174 1.35964 18.8252 1.75179 18.3414 1.75179H15.6585C15.1748 1.75179 14.7826 1.35964 14.7826 0.875895ZM5.034 1.90726C5.32875 2.29082 5.25676 2.84072 4.87319 3.13548C4.40877 3.49237 3.99237 3.90877 3.63548 4.37319C3.34072 4.75676 2.79082 4.82875 2.40726 4.534C2.02369 4.23924 1.95169 3.68935 2.24645 3.30578C2.69611 2.72063 3.22063 2.19611 3.80578 1.74645C4.18935 1.45168 4.73924 1.52369 5.034 1.90726ZM28.966 1.90726C29.2608 1.52369 29.8107 1.45169 30.1942 1.74645C30.7794 2.19611 31.3039 2.72063 31.7535 3.30578C32.0483 3.68935 31.9763 4.23924 31.5928 4.534C31.2092 4.82875 30.6593 4.75676 30.3646 4.37319C30.0076 3.90877 29.5912 3.49237 29.1268 3.13548C28.7433 2.84072 28.6713 2.29082 28.966 1.90726ZM32.6241 14.2826C33.1078 14.2826 33.5 14.6748 33.5 15.1585V17.8414C33.5 18.3252 33.1078 18.7174 32.6241 18.7174C32.1403 18.7174 31.7482 18.3252 31.7482 17.8414V15.1585C31.7482 14.6748 32.1403 14.2826 32.6241 14.2826ZM1.3759 14.2826C1.85964 14.2826 2.25179 14.6748 2.25179 15.1585V17.8414C2.25179 18.3252 1.85964 18.7174 1.3759 18.7174C0.892152 18.7174 0.5 18.3252 0.5 17.8414V15.1585C0.5 14.6748 0.892152 14.2826 1.3759 14.2826ZM2.40726 28.466C2.79082 28.1713 3.34072 28.2433 3.63548 28.6268C3.99237 29.0912 4.40877 29.5076 4.87319 29.8646C5.25676 30.1593 5.32875 30.7092 5.034 31.0928C4.73924 31.4763 4.18935 31.5483 3.80578 31.2535C3.22063 30.8039 2.69611 30.2794 2.24645 29.6942C1.95168 29.3107 2.02369 28.7608 2.40726 28.466ZM31.5928 28.466C31.9763 28.7608 32.0483 29.3107 31.7535 29.6942C31.3039 30.2794 30.7794 30.8039 30.1942 31.2535C29.8107 31.5483 29.2608 31.4763 28.966 31.0928C28.6713 30.7092 28.7433 30.1593 29.1268 29.8646C29.5912 29.5076 30.0076 29.0912 30.3646 28.6268C30.6593 28.2433 31.2092 28.1713 31.5928 28.466ZM14.7826 32.1241C14.7826 31.6403 15.1748 31.2482 15.6585 31.2482H18.3414C18.8252 31.2482 19.2174 31.6403 19.2174 32.1241C19.2174 32.6078 18.8252 33 18.3414 33H15.6585C15.1748 33 14.7826 32.6078 14.7826 32.1241Z" fill="#020202"/>
<path fill-rule="evenodd" clip-rule="evenodd" d="M11.6577 14.9343C11.9822 14.6098 12.5022 14.5908 12.8495 14.8907L24.9111 25.3068C25.2772 25.623 25.3177 26.176 25.0016 26.5422C24.6854 26.9083 24.1323 26.9488 23.7662 26.6326L12.3207 16.7487L7.44005 21.6293C7.09797 21.9714 6.54342 21.9714 6.20136 21.6293C5.85931 21.2872 5.85931 20.7327 6.20137 20.3906L11.6577 14.9343Z" fill="#020202"/>
<path fill-rule="evenodd" clip-rule="evenodd" d="M19.2996 14.9074C19.6291 14.6059 20.1326 14.6007 20.4683 14.8951L27.7571 21.2868C28.1208 21.6057 28.1571 22.1591 27.8381 22.5228C27.5192 22.8865 26.9658 22.9228 26.6021 22.6039L19.9032 16.7294L17.118 19.2774C16.761 19.6039 16.207 19.5793 15.8805 19.2223C15.554 18.8654 15.5787 18.3114 15.9356 17.9848L19.2996 14.9074Z" fill="#020202"/>
<path fill-rule="evenodd" clip-rule="evenodd" d="M15.8163 12.7835C15.1233 12.7835 14.5617 12.2218 14.5617 11.5289C14.5617 10.836 15.1233 10.2742 15.8163 10.2742C16.5092 10.2742 17.0709 10.836 17.0709 11.5289C17.0709 12.2218 16.5092 12.7835 15.8163 12.7835ZM12.8098 11.5289C12.8098 13.1893 14.1558 14.5354 15.8163 14.5354C17.4767 14.5354 18.8227 13.1893 18.8227 11.5289C18.8227 9.86849 17.4767 8.52246 15.8163 8.52246C14.1558 8.52246 12.8098 9.86849 12.8098 11.5289Z" fill="#020202"/>
<path d="M32.6243 21.2358C33.1081 21.2358 33.5003 21.628 33.5003 22.1118V23.4532C33.5003 23.8266 33.476 24.1947 33.4289 24.5559C33.3663 25.0356 32.9267 25.3737 32.447 25.3112C31.9673 25.2486 31.6292 24.809 31.6918 24.3294C31.7291 24.043 31.7485 23.7506 31.7485 23.4532V22.1118C31.7485 21.628 32.1406 21.2358 32.6243 21.2358Z" fill="#020202"/>
<path d="M1.3759 21.2358C1.85964 21.2358 2.25179 21.628 2.25179 22.1118V23.4532C2.25179 23.7506 2.27111 24.043 2.30847 24.3294C2.37103 24.809 2.0329 25.2486 1.55322 25.3112C1.07354 25.3737 0.633958 25.0356 0.571385 24.5559C0.524263 24.1947 0.5 23.8266 0.5 23.4532V22.1118C0.5 21.628 0.892152 21.2358 1.3759 21.2358Z" fill="#020202"/>
<path d="M1.55322 7.14417C2.0329 7.20672 2.37103 7.6463 2.30847 8.126C2.27111 8.41235 2.25179 8.70477 2.25179 9.00207V10.3436C2.25179 10.8273 1.85964 11.2194 1.3759 11.2194C0.892152 11.2194 0.5 10.8273 0.5 10.3436V9.00207C0.5 8.6288 0.524263 8.2607 0.571385 7.89942C0.633958 7.41972 1.07354 7.08162 1.55322 7.14417Z" fill="#020202"/>
<path d="M32.447 7.14417C32.9267 7.08162 33.3663 7.41972 33.4289 7.89942C33.476 8.2607 33.5003 8.6288 33.5003 9.00207V10.3436C33.5003 10.8273 33.1081 11.2194 32.6243 11.2194C32.1406 11.2194 31.7485 10.8273 31.7485 10.3436V9.00207C31.7485 8.70477 31.7291 8.41235 31.6918 8.126C31.6292 7.6463 31.9673 7.20672 32.447 7.14417Z" fill="#020202"/>
<path d="M26.1729 31.9462C26.2355 32.4259 25.8974 32.8655 25.4177 32.9281C25.0564 32.9752 24.6883 32.9995 24.315 32.9995H22.9735C22.4898 32.9995 22.0977 32.6074 22.0977 32.1236C22.0977 31.6399 22.4898 31.2477 22.9735 31.2477H24.315C24.6123 31.2477 24.9048 31.2284 25.1911 31.1911C25.6708 31.1284 26.1104 31.4666 26.1729 31.9462Z" fill="#020202"/>
<path d="M22.0977 0.875895C22.0977 0.392152 22.4898 0 22.9735 0H24.315C24.6883 0 25.0564 0.0242625 25.4177 0.071385C25.8974 0.133958 26.2355 0.57354 26.1729 1.05322C26.1104 1.5329 25.6708 1.87103 25.1911 1.80847C24.9048 1.77111 24.6123 1.75179 24.315 1.75179H22.9735C22.4898 1.75179 22.0977 1.35964 22.0977 0.875895Z" fill="#020202"/>
<path d="M7.7101 31.9462C7.77265 31.4666 8.21223 31.1284 8.69193 31.1911C8.97828 31.2284 9.27063 31.2477 9.568 31.2477H10.9095C11.3932 31.2477 11.7854 31.6399 11.7854 32.1236C11.7854 32.6074 11.3932 32.9995 10.9095 32.9995H9.568C9.19473 32.9995 8.82663 32.9752 8.46535 32.9281C7.98565 32.8655 7.64748 32.4259 7.7101 31.9462Z" fill="#020202"/>
<path d="M9.568 1.75179C9.27063 1.75179 8.97828 1.77111 8.69193 1.80847C8.21223 1.87103 7.77265 1.5329 7.7101 1.05322C7.64748 0.57354 7.98565 0.133958 8.46535 0.071385C8.82663 0.0242625 9.19473 0 9.568 0H10.9095C11.3932 0 11.7854 0.392152 11.7854 0.875895C11.7854 1.35964 11.3932 1.75179 10.9095 1.75179H9.568Z" fill="#020202"/>
</g>
</svg>
