<svg width="25" height="25" viewBox="0 0 25 25" fill="none" xmlns="http://www.w3.org/2000/svg">
<path d="M0.5 6.375C0.5 3.06129 3.18629 0.375 6.5 0.375H18.5C21.8137 0.375 24.5 3.06129 24.5 6.375V18.375C24.5 21.6887 21.8137 24.375 18.5 24.375H6.5C3.18629 24.375 0.5 21.6887 0.5 18.375V6.375Z" fill="#287CB2"/>
<path d="M18.5 23.175V24.375H6.5V23.175H18.5ZM23.3 18.375V6.375C23.3 3.72403 21.151 1.575 18.5 1.575H6.5C3.84903 1.575 1.7 3.72403 1.7 6.375V18.375C1.7 21.026 3.84903 23.175 6.5 23.175V24.375C3.18629 24.375 0.5 21.6887 0.5 18.375V6.375C0.5 3.16466 3.02133 0.543634 6.1918 0.383203L6.5 0.375H18.5L18.8082 0.383203C21.9787 0.543634 24.5 3.16466 24.5 6.375V18.375L24.4918 18.6832C24.3314 21.8537 21.7103 24.375 18.5 24.375V23.175C21.151 23.175 23.3 21.026 23.3 18.375Z" fill="white" fill-opacity="0.4"/>
<path d="M9.40437 5.60821C7.23819 6.55 6.40859 8.56812 6.5699 12.4474C6.66208 14.4207 6.7773 15.1382 7.16906 15.8558C8.15997 17.7394 9.79612 18.5466 12.1927 18.3448C13.898 18.2327 15.1194 17.5824 15.6724 16.5509C15.9029 16.1249 16.0872 15.0934 16.1564 13.9946C16.2486 12.2232 16.2716 12.1559 16.8708 12.0214C17.7234 11.842 19.1982 10.6311 19.1982 10.0929C19.1982 9.46506 18.576 9.55476 17.6773 10.3172C17.1703 10.7432 16.479 11.0571 15.5803 11.2365C13.0223 11.7298 12.5615 11.9092 11.8471 12.6941C11.0636 13.5686 10.9483 14.0843 11.5014 14.3086C11.7319 14.3982 12.0775 14.174 12.5384 13.6358C13.1837 12.8959 14.405 12.2456 14.6815 12.5147C14.7507 12.6044 14.8198 13.1874 14.8198 13.8601C14.8198 16.237 13.8289 17.2909 11.6397 17.2909C10.3031 17.2909 9.19697 16.663 8.50563 15.497C8.09083 14.8243 8.0217 14.331 8.0217 11.9092C8.0217 8.70266 8.36737 7.6936 9.72699 6.81908C11.3862 5.74275 13.9672 6.34819 14.5663 7.98511C15.0733 9.28568 15.5342 9.55476 15.972 8.74751C16.1794 8.38873 16.1333 8.09723 15.7416 7.3124C14.8198 5.42882 11.6858 4.59915 9.40437 5.60821Z" fill="white"/>
</svg>
