<svg width="127" height="100" viewBox="0 0 127 100" fill="none" xmlns="http://www.w3.org/2000/svg">
<rect x="0.25" y="0.25" width="126.5" height="99.5" rx="2.75" stroke="#8F8F8F" stroke-opacity="0.65" stroke-width="0.5"/>
<mask id="path-3-inside-1_3270_32840" fill="white">
<path d="M16 27H112V45H16V27Z"/>
</mask>
<path d="M112 44H16V46H112V44Z" fill="#CED2D4" mask="url(#path-3-inside-1_3270_32840)"/>
<path d="M21.7031 38H18.7344V32.3984H21.5781V32.9922H19.3906V34.8555H21.4141V35.4453H19.3906V37.4062H21.7031V38ZM28.535 38H27.8944V35.7031C27.8944 35.2604 27.8254 34.9401 27.6873 34.7422C27.5519 34.5443 27.3228 34.4453 26.9998 34.4453C26.7264 34.4453 26.4933 34.5703 26.3006 34.8203C26.1105 35.0703 26.0155 35.3698 26.0155 35.7188V38H25.3748V35.625C25.3748 34.8385 25.0715 34.4453 24.4647 34.4453C24.1834 34.4453 23.9517 34.5638 23.7694 34.8008C23.5871 35.0352 23.4959 35.3411 23.4959 35.7188V38H22.8553V34H23.4959V34.6328H23.5116C23.7954 34.1484 24.2095 33.9062 24.7537 33.9062C25.0272 33.9062 25.2655 33.9831 25.4686 34.1367C25.6717 34.2878 25.811 34.487 25.8866 34.7344C26.1834 34.1823 26.6261 33.9062 27.2147 33.9062C28.0949 33.9062 28.535 34.4492 28.535 35.5352V38ZM32.7692 38H32.1286V37.375H32.113C31.8343 37.8542 31.4242 38.0938 30.8825 38.0938C30.4841 38.0938 30.1716 37.9883 29.945 37.7773C29.721 37.5664 29.6091 37.2865 29.6091 36.9375C29.6091 36.1901 30.0492 35.7552 30.9294 35.6328L32.1286 35.4648C32.1286 34.7852 31.8539 34.4453 31.3044 34.4453C30.8226 34.4453 30.3877 34.6094 29.9997 34.9375V34.2812C30.3929 34.0312 30.846 33.9062 31.3591 33.9062C32.2992 33.9062 32.7692 34.4036 32.7692 35.3984V38ZM32.1286 35.9766L31.1637 36.1094C30.8669 36.151 30.6429 36.2253 30.4919 36.332C30.3408 36.4362 30.2653 36.6224 30.2653 36.8906C30.2653 37.0859 30.3343 37.2461 30.4723 37.3711C30.613 37.4935 30.7992 37.5547 31.0309 37.5547C31.3486 37.5547 31.6104 37.444 31.8161 37.2227C32.0244 36.9987 32.1286 36.7161 32.1286 36.375V35.9766ZM34.4644 32.9844C34.3498 32.9844 34.2521 32.9453 34.1714 32.8672C34.0907 32.7891 34.0503 32.6901 34.0503 32.5703C34.0503 32.4505 34.0907 32.3516 34.1714 32.2734C34.2521 32.1927 34.3498 32.1523 34.4644 32.1523C34.5816 32.1523 34.6805 32.1927 34.7612 32.2734C34.8446 32.3516 34.8862 32.4505 34.8862 32.5703C34.8862 32.6849 34.8446 32.7826 34.7612 32.8633C34.6805 32.944 34.5816 32.9844 34.4644 32.9844ZM34.7769 38H34.1362V34H34.7769V38ZM36.8744 38H36.2337V32.0781H36.8744V38ZM43.085 33.6875L42.0147 33.9062L42.7569 34.8555L42.3272 35.1523L41.7178 34.1172L41.1006 35.1523L40.6709 34.8555L41.4131 33.9062L40.335 33.6875L40.5108 33.1992L41.5342 33.5859L41.4444 32.3984H41.9834L41.8936 33.5859L42.9209 33.1992L43.085 33.6875Z" fill="#9AA6AE"/>
<rect x="16" y="54" width="54" height="18" rx="2" fill="#9AA6AE"/>
<path d="M29.9336 65.7773V64.8203C30.0195 64.8984 30.1211 64.9688 30.2383 65.0312C30.3581 65.0938 30.4844 65.1471 30.6172 65.1914C30.75 65.2331 30.8828 65.2656 31.0156 65.2891C31.1484 65.3125 31.2708 65.3242 31.3828 65.3242C31.7734 65.3242 32.0638 65.2591 32.2539 65.1289C32.4466 64.9987 32.543 64.8099 32.543 64.5625C32.543 64.4297 32.5104 64.3151 32.4453 64.2188C32.3828 64.1198 32.2943 64.0299 32.1797 63.9492C32.0651 63.8685 31.9297 63.7917 31.7734 63.7188C31.6198 63.6432 31.4544 63.5651 31.2773 63.4844C31.0872 63.3828 30.9102 63.2799 30.7461 63.1758C30.582 63.0716 30.4388 62.957 30.3164 62.832C30.1966 62.7044 30.1016 62.5612 30.0312 62.4023C29.9635 62.2435 29.9297 62.0573 29.9297 61.8438C29.9297 61.5807 29.9883 61.3529 30.1055 61.1602C30.2253 60.9648 30.3815 60.8047 30.5742 60.6797C30.7695 60.5521 30.9909 60.4583 31.2383 60.3984C31.4857 60.3359 31.7383 60.3047 31.9961 60.3047C32.582 60.3047 33.0091 60.3711 33.2773 60.5039V61.4219C32.9596 61.1927 32.5508 61.0781 32.0508 61.0781C31.9128 61.0781 31.7747 61.0911 31.6367 61.1172C31.5013 61.1432 31.3789 61.1862 31.2695 61.2461C31.1628 61.306 31.0755 61.3828 31.0078 61.4766C30.9401 61.5703 30.9062 61.6836 30.9062 61.8164C30.9062 61.9414 30.9323 62.0495 30.9844 62.1406C31.0365 62.2318 31.112 62.3151 31.2109 62.3906C31.3125 62.4661 31.4349 62.5404 31.5781 62.6133C31.724 62.6836 31.8919 62.7604 32.082 62.8438C32.2773 62.9453 32.4609 63.0521 32.6328 63.1641C32.8073 63.276 32.9596 63.3997 33.0898 63.5352C33.2227 63.6706 33.3268 63.8216 33.4023 63.9883C33.4805 64.1523 33.5195 64.3398 33.5195 64.5508C33.5195 64.8346 33.4622 65.0742 33.3477 65.2695C33.2331 65.4648 33.0781 65.6237 32.8828 65.7461C32.6901 65.8685 32.4674 65.957 32.2148 66.0117C31.9622 66.0664 31.6953 66.0938 31.4141 66.0938C31.3203 66.0938 31.2044 66.0859 31.0664 66.0703C30.931 66.0573 30.7917 66.0365 30.6484 66.0078C30.5052 65.9818 30.3698 65.9492 30.2422 65.9102C30.1146 65.8711 30.0117 65.8268 29.9336 65.7773ZM38.0975 66H37.1912V65.3672H37.1756C36.9126 65.8516 36.5037 66.0938 35.9491 66.0938C35.0037 66.0938 34.5311 65.526 34.5311 64.3906V62H35.4373V64.2969C35.4373 65.0156 35.7147 65.375 36.2694 65.375C36.5376 65.375 36.7577 65.276 36.9295 65.0781C37.104 64.8802 37.1912 64.6211 37.1912 64.3008V62H38.0975V66ZM40.363 65.4219H40.3473V66H39.4411V60.0781H40.3473V62.7031H40.363C40.6729 62.1719 41.126 61.9062 41.7223 61.9062C42.2276 61.9062 42.6221 62.0859 42.9059 62.4453C43.1924 62.8021 43.3356 63.2812 43.3356 63.8828C43.3356 64.5521 43.1755 65.0885 42.8552 65.4922C42.5348 65.8932 42.0973 66.0938 41.5427 66.0938C41.0218 66.0938 40.6286 65.8698 40.363 65.4219ZM40.3395 63.832V64.3281C40.3395 64.6198 40.432 64.8672 40.6169 65.0703C40.8044 65.2734 41.0414 65.375 41.3278 65.375C41.6637 65.375 41.9268 65.2448 42.1169 64.9844C42.3096 64.7214 42.4059 64.3555 42.4059 63.8867C42.4059 63.4935 42.3161 63.1862 42.1364 62.9648C41.9593 62.7409 41.7184 62.6289 41.4137 62.6289C41.0908 62.6289 40.8304 62.7435 40.6325 62.9727C40.4372 63.2018 40.3395 63.4883 40.3395 63.832ZM50.4019 66H49.4956V63.8203C49.4956 63.401 49.4357 63.0977 49.3159 62.9102C49.1987 62.7227 48.9995 62.6289 48.7183 62.6289C48.4813 62.6289 48.2795 62.7474 48.1128 62.9844C47.9487 63.2214 47.8667 63.5052 47.8667 63.8359V66H46.9566V63.7461C46.9566 63.0013 46.6935 62.6289 46.1675 62.6289C45.9227 62.6289 45.7209 62.7409 45.562 62.9648C45.4058 63.1888 45.3277 63.4792 45.3277 63.8359V66H44.4214V62H45.3277V62.6328H45.3433C45.6323 62.1484 46.0529 61.9062 46.605 61.9062C46.881 61.9062 47.1219 61.9831 47.3277 62.1367C47.536 62.2878 47.6779 62.487 47.7534 62.7344C48.0503 62.1823 48.493 61.9062 49.0816 61.9062C49.9618 61.9062 50.4019 62.4492 50.4019 63.5352V66ZM52.1244 61.1602C51.9759 61.1602 51.8483 61.112 51.7416 61.0156C51.6374 60.9193 51.5853 60.7969 51.5853 60.6484C51.5853 60.5 51.6374 60.3763 51.7416 60.2773C51.8483 60.1784 51.9759 60.1289 52.1244 60.1289C52.278 60.1289 52.4082 60.1784 52.515 60.2773C52.6218 60.3763 52.6752 60.5 52.6752 60.6484C52.6752 60.7891 52.6218 60.9102 52.515 61.0117C52.4082 61.1107 52.278 61.1602 52.1244 61.1602ZM52.5736 66H51.6673V62H52.5736V66ZM56.0305 65.957C55.8534 66.0456 55.6203 66.0898 55.3312 66.0898C54.5552 66.0898 54.1672 65.7174 54.1672 64.9727V62.7109H53.4992V62H54.1672V61.0742L55.0734 60.8164V62H56.0305V62.7109H55.0734V64.7109C55.0734 64.9479 55.1164 65.1172 55.2023 65.2188C55.2883 65.3203 55.4315 65.3711 55.632 65.3711C55.7857 65.3711 55.9185 65.3268 56.0305 65.2383V65.957Z" fill="white"/>
</svg>
