<svg width="127" height="100" viewBox="0 0 127 100" fill="none" xmlns="http://www.w3.org/2000/svg">
<path d="M20.4727 9.74023H17.7383V12.1621H20.2676V12.8994H17.7383V16H16.918V8.99805H20.4727V9.74023ZM22.1035 9.73047C21.9603 9.73047 21.8382 9.68164 21.7373 9.58398C21.6364 9.48633 21.5859 9.36263 21.5859 9.21289C21.5859 9.06315 21.6364 8.93945 21.7373 8.8418C21.8382 8.74089 21.9603 8.69043 22.1035 8.69043C22.25 8.69043 22.3737 8.74089 22.4746 8.8418C22.5788 8.93945 22.6309 9.06315 22.6309 9.21289C22.6309 9.35612 22.5788 9.47819 22.4746 9.5791C22.3737 9.68001 22.25 9.73047 22.1035 9.73047ZM22.4941 16H21.6934V11H22.4941V16ZM26.7227 11.8105C26.5827 11.7031 26.3809 11.6494 26.1172 11.6494C25.7754 11.6494 25.4889 11.8105 25.2578 12.1328C25.0299 12.4551 24.916 12.8945 24.916 13.4512V16H24.1152V11H24.916V12.0303H24.9355C25.0495 11.6787 25.2236 11.4053 25.458 11.21C25.6924 11.0114 25.9544 10.9121 26.2441 10.9121C26.4525 10.9121 26.612 10.9349 26.7227 10.9805V11.8105ZM27.2891 15.8193V14.96C27.7253 15.2822 28.2054 15.4434 28.7295 15.4434C29.4326 15.4434 29.7842 15.209 29.7842 14.7402C29.7842 14.6068 29.7533 14.4945 29.6914 14.4033C29.6328 14.3089 29.5514 14.2259 29.4473 14.1543C29.3464 14.0827 29.2259 14.0192 29.0859 13.9639C28.9492 13.9053 28.8011 13.8451 28.6416 13.7832C28.4202 13.6953 28.2249 13.6074 28.0557 13.5195C27.8896 13.4284 27.7497 13.3275 27.6357 13.2168C27.5251 13.1029 27.4404 12.9743 27.3818 12.8311C27.3265 12.6878 27.2988 12.5202 27.2988 12.3281C27.2988 12.0938 27.3525 11.887 27.46 11.708C27.5674 11.5257 27.7106 11.3743 27.8896 11.2539C28.0687 11.1302 28.2721 11.0374 28.5 10.9756C28.7311 10.9137 28.9688 10.8828 29.2129 10.8828C29.6458 10.8828 30.0332 10.9577 30.375 11.1074V11.918C30.0072 11.6771 29.584 11.5566 29.1055 11.5566C28.9557 11.5566 28.8206 11.5745 28.7002 11.6104C28.5798 11.6429 28.4756 11.6901 28.3877 11.752C28.3031 11.8138 28.2363 11.8887 28.1875 11.9766C28.1419 12.0612 28.1191 12.1556 28.1191 12.2598C28.1191 12.39 28.1419 12.499 28.1875 12.5869C28.2363 12.6748 28.3063 12.7529 28.3975 12.8213C28.4886 12.8896 28.5993 12.9515 28.7295 13.0068C28.8597 13.0622 29.0078 13.1224 29.1738 13.1875C29.3952 13.2721 29.5938 13.36 29.7695 13.4512C29.9453 13.5391 30.0951 13.64 30.2188 13.7539C30.3424 13.8646 30.4368 13.9932 30.502 14.1396C30.5703 14.2861 30.6045 14.4603 30.6045 14.6621C30.6045 14.9095 30.5492 15.1243 30.4385 15.3066C30.3311 15.4889 30.1862 15.6403 30.0039 15.7607C29.8216 15.8812 29.6117 15.9707 29.374 16.0293C29.1364 16.0879 28.8874 16.1172 28.627 16.1172C28.1126 16.1172 27.6667 16.0179 27.2891 15.8193ZM34.1592 15.9512C33.9704 16.0553 33.7214 16.1074 33.4121 16.1074C32.5365 16.1074 32.0986 15.6191 32.0986 14.6426V11.6836H31.2393V11H32.0986V9.7793L32.8994 9.52051V11H34.1592V11.6836H32.8994V14.501C32.8994 14.8363 32.9564 15.0755 33.0703 15.2188C33.1842 15.362 33.373 15.4336 33.6367 15.4336C33.8385 15.4336 34.0127 15.3783 34.1592 15.2676V15.9512ZM43.7246 16H42.7188L39.1152 10.4189C39.0241 10.279 38.9492 10.1325 38.8906 9.97949H38.8613C38.8874 10.1292 38.9004 10.4499 38.9004 10.9414V16H38.0801V8.99805H39.1445L42.6504 14.4912C42.7969 14.7191 42.8913 14.8753 42.9336 14.96H42.9531C42.9206 14.7581 42.9043 14.4147 42.9043 13.9297V8.99805H43.7246V16ZM49.0322 16H48.2314V15.2188H48.2119C47.8636 15.8177 47.3509 16.1172 46.6738 16.1172C46.1758 16.1172 45.7852 15.9854 45.502 15.7217C45.222 15.458 45.082 15.1081 45.082 14.6719C45.082 13.7376 45.6322 13.194 46.7324 13.041L48.2314 12.8311C48.2314 11.9814 47.888 11.5566 47.2012 11.5566C46.599 11.5566 46.0553 11.7617 45.5703 12.1719V11.3516C46.0618 11.0391 46.6283 10.8828 47.2695 10.8828C48.4447 10.8828 49.0322 11.5046 49.0322 12.748V16ZM48.2314 13.4707L47.0254 13.6367C46.6543 13.6888 46.3743 13.7816 46.1855 13.915C45.9967 14.0452 45.9023 14.278 45.9023 14.6133C45.9023 14.8574 45.9886 15.0576 46.1611 15.2139C46.3369 15.3669 46.5697 15.4434 46.8594 15.4434C47.2565 15.4434 47.5837 15.305 47.8408 15.0283C48.1012 14.7484 48.2314 14.3952 48.2314 13.9688V13.4707ZM57.6406 16H56.8398V13.1289C56.8398 12.5755 56.7536 12.1751 56.5811 11.9277C56.4118 11.6803 56.1253 11.5566 55.7217 11.5566C55.3799 11.5566 55.0885 11.7129 54.8477 12.0254C54.61 12.3379 54.4912 12.7122 54.4912 13.1484V16H53.6904V13.0312C53.6904 12.0482 53.3112 11.5566 52.5527 11.5566C52.2012 11.5566 51.9115 11.7048 51.6836 12.001C51.4557 12.2939 51.3418 12.6764 51.3418 13.1484V16H50.541V11H51.3418V11.791H51.3613C51.7161 11.1855 52.2337 10.8828 52.9141 10.8828C53.2559 10.8828 53.5537 10.9788 53.8076 11.1709C54.0615 11.3597 54.2357 11.6087 54.3301 11.918C54.7012 11.2279 55.2546 10.8828 55.9902 10.8828C57.0905 10.8828 57.6406 11.5615 57.6406 12.9189V16ZM63.1729 13.7002H59.6426C59.6556 14.2568 59.8053 14.6865 60.0918 14.9893C60.3783 15.292 60.7721 15.4434 61.2734 15.4434C61.8366 15.4434 62.3542 15.2578 62.8262 14.8867V15.6387C62.3867 15.9577 61.8057 16.1172 61.083 16.1172C60.3766 16.1172 59.8216 15.891 59.418 15.4385C59.0143 14.9827 58.8125 14.3431 58.8125 13.5195C58.8125 12.7415 59.0322 12.1084 59.4717 11.6201C59.9144 11.1286 60.4629 10.8828 61.1172 10.8828C61.7715 10.8828 62.2777 11.0944 62.6357 11.5176C62.9938 11.9408 63.1729 12.5283 63.1729 13.2803V13.7002ZM62.3525 13.0215C62.3493 12.5592 62.237 12.1995 62.0156 11.9424C61.7975 11.6852 61.4932 11.5566 61.1025 11.5566C60.7249 11.5566 60.4043 11.6917 60.1406 11.9619C59.877 12.2321 59.7142 12.5853 59.6523 13.0215H62.3525ZM70.1309 10.6094L68.793 10.8828L69.7207 12.0693L69.1836 12.4404L68.4219 11.1465L67.6504 12.4404L67.1133 12.0693L68.041 10.8828L66.6934 10.6094L66.9131 9.99902L68.1924 10.4824L68.0801 8.99805H68.7539L68.6416 10.4824L69.9258 9.99902L70.1309 10.6094Z" fill="#9AA6AE"/>
<rect x="16.5" y="20.5" width="95" height="14" rx="1.5" stroke="#CED2D4"/>
<rect x="16" y="41" width="57" height="5" fill="#CED2D4"/>
<rect x="16.5" y="50.5" width="95" height="13" rx="1.5" stroke="#9AA6AE"/>
<rect x="16" y="71" width="54" height="18" rx="2" fill="#9AA6AE"/>
<path d="M29.9336 82.7773V81.8203C30.0195 81.8984 30.1211 81.9688 30.2383 82.0312C30.3581 82.0938 30.4844 82.1471 30.6172 82.1914C30.75 82.2331 30.8828 82.2656 31.0156 82.2891C31.1484 82.3125 31.2708 82.3242 31.3828 82.3242C31.7734 82.3242 32.0638 82.2591 32.2539 82.1289C32.4466 81.9987 32.543 81.8099 32.543 81.5625C32.543 81.4297 32.5104 81.3151 32.4453 81.2188C32.3828 81.1198 32.2943 81.0299 32.1797 80.9492C32.0651 80.8685 31.9297 80.7917 31.7734 80.7188C31.6198 80.6432 31.4544 80.5651 31.2773 80.4844C31.0872 80.3828 30.9102 80.2799 30.7461 80.1758C30.582 80.0716 30.4388 79.957 30.3164 79.832C30.1966 79.7044 30.1016 79.5612 30.0312 79.4023C29.9635 79.2435 29.9297 79.0573 29.9297 78.8438C29.9297 78.5807 29.9883 78.3529 30.1055 78.1602C30.2253 77.9648 30.3815 77.8047 30.5742 77.6797C30.7695 77.5521 30.9909 77.4583 31.2383 77.3984C31.4857 77.3359 31.7383 77.3047 31.9961 77.3047C32.582 77.3047 33.0091 77.3711 33.2773 77.5039V78.4219C32.9596 78.1927 32.5508 78.0781 32.0508 78.0781C31.9128 78.0781 31.7747 78.0911 31.6367 78.1172C31.5013 78.1432 31.3789 78.1862 31.2695 78.2461C31.1628 78.306 31.0755 78.3828 31.0078 78.4766C30.9401 78.5703 30.9062 78.6836 30.9062 78.8164C30.9062 78.9414 30.9323 79.0495 30.9844 79.1406C31.0365 79.2318 31.112 79.3151 31.2109 79.3906C31.3125 79.4661 31.4349 79.5404 31.5781 79.6133C31.724 79.6836 31.8919 79.7604 32.082 79.8438C32.2773 79.9453 32.4609 80.0521 32.6328 80.1641C32.8073 80.276 32.9596 80.3997 33.0898 80.5352C33.2227 80.6706 33.3268 80.8216 33.4023 80.9883C33.4805 81.1523 33.5195 81.3398 33.5195 81.5508C33.5195 81.8346 33.4622 82.0742 33.3477 82.2695C33.2331 82.4648 33.0781 82.6237 32.8828 82.7461C32.6901 82.8685 32.4674 82.957 32.2148 83.0117C31.9622 83.0664 31.6953 83.0938 31.4141 83.0938C31.3203 83.0938 31.2044 83.0859 31.0664 83.0703C30.931 83.0573 30.7917 83.0365 30.6484 83.0078C30.5052 82.9818 30.3698 82.9492 30.2422 82.9102C30.1146 82.8711 30.0117 82.8268 29.9336 82.7773ZM38.0975 83H37.1912V82.3672H37.1756C36.9126 82.8516 36.5037 83.0938 35.9491 83.0938C35.0037 83.0938 34.5311 82.526 34.5311 81.3906V79H35.4373V81.2969C35.4373 82.0156 35.7147 82.375 36.2694 82.375C36.5376 82.375 36.7577 82.276 36.9295 82.0781C37.104 81.8802 37.1912 81.6211 37.1912 81.3008V79H38.0975V83ZM40.363 82.4219H40.3473V83H39.4411V77.0781H40.3473V79.7031H40.363C40.6729 79.1719 41.126 78.9062 41.7223 78.9062C42.2276 78.9062 42.6221 79.0859 42.9059 79.4453C43.1924 79.8021 43.3356 80.2812 43.3356 80.8828C43.3356 81.5521 43.1755 82.0885 42.8552 82.4922C42.5348 82.8932 42.0973 83.0938 41.5427 83.0938C41.0218 83.0938 40.6286 82.8698 40.363 82.4219ZM40.3395 80.832V81.3281C40.3395 81.6198 40.432 81.8672 40.6169 82.0703C40.8044 82.2734 41.0414 82.375 41.3278 82.375C41.6637 82.375 41.9268 82.2448 42.1169 81.9844C42.3096 81.7214 42.4059 81.3555 42.4059 80.8867C42.4059 80.4935 42.3161 80.1862 42.1364 79.9648C41.9593 79.7409 41.7184 79.6289 41.4137 79.6289C41.0908 79.6289 40.8304 79.7435 40.6325 79.9727C40.4372 80.2018 40.3395 80.4883 40.3395 80.832ZM50.4019 83H49.4956V80.8203C49.4956 80.401 49.4357 80.0977 49.3159 79.9102C49.1987 79.7227 48.9995 79.6289 48.7183 79.6289C48.4813 79.6289 48.2795 79.7474 48.1128 79.9844C47.9487 80.2214 47.8667 80.5052 47.8667 80.8359V83H46.9566V80.7461C46.9566 80.0013 46.6935 79.6289 46.1675 79.6289C45.9227 79.6289 45.7209 79.7409 45.562 79.9648C45.4058 80.1888 45.3277 80.4792 45.3277 80.8359V83H44.4214V79H45.3277V79.6328H45.3433C45.6323 79.1484 46.0529 78.9062 46.605 78.9062C46.881 78.9062 47.1219 78.9831 47.3277 79.1367C47.536 79.2878 47.6779 79.487 47.7534 79.7344C48.0503 79.1823 48.493 78.9062 49.0816 78.9062C49.9618 78.9062 50.4019 79.4492 50.4019 80.5352V83ZM52.1244 78.1602C51.9759 78.1602 51.8483 78.112 51.7416 78.0156C51.6374 77.9193 51.5853 77.7969 51.5853 77.6484C51.5853 77.5 51.6374 77.3763 51.7416 77.2773C51.8483 77.1784 51.9759 77.1289 52.1244 77.1289C52.278 77.1289 52.4082 77.1784 52.515 77.2773C52.6218 77.3763 52.6752 77.5 52.6752 77.6484C52.6752 77.7891 52.6218 77.9102 52.515 78.0117C52.4082 78.1107 52.278 78.1602 52.1244 78.1602ZM52.5736 83H51.6673V79H52.5736V83ZM56.0305 82.957C55.8534 83.0456 55.6203 83.0898 55.3312 83.0898C54.5552 83.0898 54.1672 82.7174 54.1672 81.9727V79.7109H53.4992V79H54.1672V78.0742L55.0734 77.8164V79H56.0305V79.7109H55.0734V81.7109C55.0734 81.9479 55.1164 82.1172 55.2023 82.2188C55.2883 82.3203 55.4315 82.3711 55.632 82.3711C55.7857 82.3711 55.9185 82.3268 56.0305 82.2383V82.957Z" fill="white"/>
</svg>
