<svg width="99" height="20" viewBox="0 0 99 20" fill="none" xmlns="http://www.w3.org/2000/svg">
<path d="M25.4429 9.0559L17.4407 18.1414L12.898 14.1404L8.35512 18.1414L0.353027 9.0559L4.89587 5.05485L9.87632 10.7022V2.0332H15.9196V10.7022L20.9001 5.05485L23.7966 7.59708L25.4429 9.0559Z" fill="#C22076"/>
<path d="M27.7682 16.5879V5.51668H31.3793C32.5781 5.51668 33.6183 5.75445 34.5 6.23C35.3818 6.70554 36.0654 7.35941 36.5508 8.19161C37.0363 9.0238 37.279 9.97489 37.279 11.0449C37.279 12.1148 37.0363 13.0709 36.5508 13.913C36.0654 14.7452 35.3818 15.399 34.5 15.8746C33.6183 16.3501 32.5781 16.5879 31.3793 16.5879H27.7682ZM30.0716 14.5817H31.4387C32.162 14.5817 32.7861 14.438 33.3112 14.1507C33.8363 13.8535 34.2425 13.4424 34.5298 12.9173C34.827 12.3823 34.9756 11.7582 34.9756 11.0449C34.9756 10.3216 34.827 9.69749 34.5298 9.17241C34.2425 8.64733 33.8363 8.24114 33.3112 7.95383C32.7861 7.66653 32.162 7.52288 31.4387 7.52288H30.0716V14.5817ZM42.4989 16.7662C41.637 16.7662 40.889 16.578 40.255 16.2015C39.6209 15.8151 39.1305 15.3 38.7838 14.656C38.437 14.012 38.2636 13.2987 38.2636 12.5161C38.2636 11.7037 38.442 10.9805 38.7986 10.3464C39.1652 9.71235 39.6556 9.21204 40.2698 8.84548C40.8841 8.47891 41.5776 8.29563 42.3503 8.29563C42.9943 8.29563 43.5639 8.39966 44.0593 8.60771C44.5547 8.80585 44.9708 9.0882 45.3076 9.45476C45.6543 9.82133 45.9169 10.2473 46.0952 10.7328C46.2735 11.2083 46.3627 11.7284 46.3627 12.2932C46.3627 12.4517 46.3528 12.6102 46.333 12.7687C46.3231 12.9173 46.2983 13.0461 46.2587 13.1551H40.1807V11.5204H44.9955L43.9404 12.2932C44.0395 11.8671 44.0345 11.4907 43.9255 11.1637C43.8166 10.8269 43.6234 10.5644 43.346 10.3761C43.0785 10.178 42.7466 10.0789 42.3503 10.0789C41.9639 10.0789 41.6321 10.173 41.3547 10.3613C41.0773 10.5495 40.8692 10.8269 40.7305 11.1935C40.5918 11.56 40.5373 12.0058 40.567 12.5309C40.5274 12.9867 40.5819 13.3879 40.7305 13.7346C40.8791 14.0814 41.107 14.3538 41.4141 14.552C41.7212 14.7402 42.0927 14.8343 42.5286 14.8343C42.9249 14.8343 43.2618 14.7551 43.5392 14.5966C43.8265 14.438 44.0494 14.2201 44.2079 13.9427L45.9912 14.7897C45.8327 15.186 45.58 15.5328 45.2333 15.83C44.8964 16.1272 44.4952 16.36 44.0296 16.5284C43.5639 16.687 43.0537 16.7662 42.4989 16.7662ZM50.8555 16.7662C49.9639 16.7662 49.1862 16.5582 48.5224 16.1421C47.8685 15.7161 47.4227 15.1464 47.1849 14.4331L48.8196 13.6603C49.0276 14.0962 49.31 14.438 49.6666 14.6857C50.0233 14.9334 50.4196 15.0572 50.8555 15.0572C51.1725 15.0572 51.4153 14.9928 51.5837 14.8641C51.7521 14.7353 51.8363 14.5569 51.8363 14.3291C51.8363 14.2102 51.8066 14.1111 51.7471 14.0319C51.6877 13.9427 51.5985 13.8634 51.4797 13.7941C51.3608 13.7247 51.2122 13.6653 51.0338 13.6158L49.6518 13.2294C48.988 13.0411 48.4778 12.739 48.1211 12.3229C47.7645 11.8969 47.5862 11.3966 47.5862 10.8219C47.5862 10.3167 47.7149 9.87582 47.9725 9.49935C48.2301 9.12287 48.5917 8.83061 49.0574 8.62257C49.523 8.40461 50.058 8.29563 50.6623 8.29563C51.4549 8.29563 52.1484 8.48387 52.7428 8.86034C53.3471 9.2269 53.7731 9.74702 54.0208 10.4207L52.3713 11.1935C52.2524 10.8566 52.0344 10.5891 51.7174 10.391C51.4103 10.1829 51.0586 10.0789 50.6623 10.0789C50.375 10.0789 50.1471 10.1384 49.9787 10.2572C49.8202 10.3761 49.741 10.5396 49.741 10.7476C49.741 10.8566 49.7707 10.9557 49.8301 11.0449C49.8896 11.134 49.9837 11.2133 50.1125 11.2826C50.2512 11.352 50.4196 11.4164 50.6177 11.4758L51.9106 11.8622C52.5843 12.0603 53.0995 12.3625 53.4561 12.7687C53.8128 13.165 53.9911 13.6554 53.9911 14.2399C53.9911 14.7452 53.8574 15.186 53.5899 15.5625C53.3323 15.939 52.9707 16.2362 52.505 16.4541C52.0394 16.6622 51.4896 16.7662 50.8555 16.7662ZM55.3233 16.5879V8.47396H57.5524V16.5879H55.3233ZM55.3233 7.74579V5.51668H57.5524V7.74579H55.3233ZM63.1663 19.8572C62.5422 19.8572 61.9626 19.7532 61.4276 19.5452C60.8926 19.3371 60.4319 19.0449 60.0456 18.6684C59.6691 18.3018 59.3966 17.8659 59.2282 17.3606L61.2939 16.6325C61.4028 17.0089 61.6257 17.3062 61.9626 17.5241C62.2994 17.7421 62.7007 17.851 63.1663 17.851C63.5329 17.851 63.8499 17.7817 64.1174 17.643C64.3849 17.5142 64.588 17.321 64.7267 17.0634C64.8753 16.8058 64.9496 16.5037 64.9496 16.1569V14.2993L65.3805 14.8343C65.1031 15.2901 64.7465 15.6319 64.3106 15.8597C63.8747 16.0777 63.3644 16.1867 62.7799 16.1867C62.027 16.1867 61.3533 16.0182 60.7589 15.6814C60.1644 15.3346 59.6988 14.8641 59.362 14.2696C59.0251 13.6653 58.8567 12.9817 58.8567 12.2189C58.8567 11.456 59.0251 10.7823 59.362 10.1978C59.6988 9.60337 60.1595 9.13774 60.744 8.80089C61.3285 8.46405 61.9923 8.29563 62.7353 8.29563C63.3199 8.29563 63.8301 8.41452 64.266 8.65229C64.7019 8.88015 65.0734 9.23185 65.3805 9.7074L65.0982 10.2424V8.47396H67.1787V16.1569C67.1787 16.8702 67.0053 17.5043 66.6586 18.0591C66.3118 18.6238 65.8363 19.0647 65.2319 19.3817C64.6375 19.6987 63.949 19.8572 63.1663 19.8572ZM63.092 14.1656C63.4685 14.1656 63.7954 14.0863 64.0728 13.9278C64.3502 13.7693 64.5632 13.5464 64.7118 13.2591C64.8703 12.9718 64.9496 12.6349 64.9496 12.2486C64.9496 11.8622 64.8703 11.5254 64.7118 11.238C64.5533 10.9408 64.3353 10.713 64.0579 10.5545C63.7805 10.386 63.4586 10.3018 63.092 10.3018C62.7155 10.3018 62.3787 10.386 62.0815 10.5545C61.7942 10.713 61.5663 10.9408 61.3979 11.238C61.2394 11.5254 61.1601 11.8622 61.1601 12.2486C61.1601 12.625 61.2394 12.9569 61.3979 13.2442C61.5663 13.5315 61.7942 13.7594 62.0815 13.9278C62.3787 14.0863 62.7155 14.1656 63.092 14.1656ZM68.8199 16.5879V8.47396H70.9004V10.0789L70.7815 9.72226C70.9697 9.23681 71.2719 8.88015 71.688 8.65229C72.114 8.41452 72.6093 8.29563 73.174 8.29563C73.7883 8.29563 74.3233 8.42442 74.779 8.68201C75.2446 8.93959 75.6062 9.3012 75.8638 9.76684C76.1214 10.2226 76.2502 10.7576 76.2502 11.3718V16.5879H74.0211V11.8473C74.0211 11.5303 73.9567 11.2579 73.8279 11.03C73.709 10.8021 73.5356 10.6238 73.3078 10.495C73.0898 10.3662 72.8322 10.3018 72.535 10.3018C72.2477 10.3018 71.9901 10.3662 71.7623 10.495C71.5344 10.6238 71.3561 10.8021 71.2273 11.03C71.1084 11.2579 71.049 11.5303 71.049 11.8473V16.5879H68.8199Z" fill="#040483"/>
<path d="M78.7682 16.5879V5.51668H81.0716V11.0597L80.4326 10.8368L84.861 5.51668H87.744L83.3601 10.8071L83.4939 9.17241L87.8332 16.5879H85.1434L82.4387 11.9068L81.0716 13.5563V16.5879H78.7682ZM88.8069 16.5879V8.47396H91.036V16.5879H88.8069ZM88.8069 7.74579V5.51668H91.036V7.74579H88.8069ZM96.5756 16.6771C95.5947 16.6771 94.8319 16.4145 94.287 15.8894C93.752 15.3545 93.4845 14.6114 93.4845 13.6603V10.4058H92.1173V8.47396H92.1916C92.6077 8.47396 92.9248 8.36993 93.1427 8.16188C93.3706 7.95384 93.4845 7.64176 93.4845 7.22566V6.63123H95.7136V8.47396H97.6158V10.4058H95.7136V13.5117C95.7136 13.7891 95.7632 14.0219 95.8622 14.2102C95.9613 14.3885 96.1149 14.5223 96.3229 14.6114C96.531 14.7006 96.7886 14.7452 97.0957 14.7452C97.165 14.7452 97.2443 14.7402 97.3334 14.7303C97.4226 14.7204 97.5167 14.7105 97.6158 14.7006V16.5879C97.4672 16.6077 97.2988 16.6275 97.1105 16.6473C96.9223 16.6671 96.744 16.6771 96.5756 16.6771Z" fill="#C22076"/>
</svg>
