<svg width="131" height="40" viewBox="0 0 131 40" fill="none" xmlns="http://www.w3.org/2000/svg">
<path d="M33.3905 18.7152L22.7409 30.8065L16.6952 25.4818L10.6495 30.8065L0 18.7152L6.04577 13.3905L12.6739 20.9061V9.36914H20.7166V20.9061L27.3448 13.3905L31.1996 16.7737L33.3905 18.7152Z" fill="#C22076"/>
<path d="M36.485 28.5879V13.8539H41.2908C42.8862 13.8539 44.2706 14.1704 45.444 14.8032C46.6175 15.4361 47.5272 16.3063 48.1733 17.4138C48.8193 18.5213 49.1423 19.7871 49.1423 21.211C49.1423 22.635 48.8193 23.9073 48.1733 25.028C47.5272 26.1355 46.6175 27.0057 45.444 27.6386C44.2706 28.2715 42.8862 28.5879 41.2908 28.5879H36.485ZM39.5504 25.918H41.3699C42.3324 25.918 43.1631 25.7268 43.8618 25.3444C44.5606 24.9489 45.1012 24.4017 45.4836 23.7029C45.8791 22.991 46.0769 22.1603 46.0769 21.211C46.0769 20.2485 45.8791 19.4179 45.4836 18.7191C45.1012 18.0203 44.5606 17.4797 43.8618 17.0974C43.1631 16.715 42.3324 16.5238 41.3699 16.5238H39.5504V25.918ZM56.0892 28.8252C54.9421 28.8252 53.9467 28.5747 53.1029 28.0737C52.259 27.5595 51.6064 26.8739 51.1449 26.0169C50.6835 25.1599 50.4527 24.2106 50.4527 23.169C50.4527 22.0878 50.69 21.1253 51.1647 20.2815C51.6525 19.4377 52.3052 18.7718 53.1226 18.284C53.9401 17.7962 54.863 17.5523 55.8914 17.5523C56.7484 17.5523 57.5066 17.6907 58.1658 17.9676C58.825 18.2313 59.3788 18.607 59.8271 19.0949C60.2885 19.5827 60.6379 20.1497 60.8753 20.7957C61.1126 21.4286 61.2313 22.1208 61.2313 22.8723C61.2313 23.0833 61.2181 23.2942 61.1917 23.5052C61.1785 23.7029 61.1456 23.8743 61.0928 24.0194H53.004V21.8439H59.4118L58.0076 22.8723C58.1394 22.3054 58.1328 21.8043 57.9878 21.3692C57.8428 20.921 57.5857 20.5716 57.2165 20.3211C56.8605 20.0574 56.4188 19.9255 55.8914 19.9255C55.3772 19.9255 54.9355 20.0508 54.5664 20.3013C54.1972 20.5518 53.9203 20.921 53.7357 21.4088C53.5511 21.8966 53.4786 22.4899 53.5182 23.1887C53.4654 23.7952 53.538 24.3292 53.7357 24.7907C53.9335 25.2521 54.2367 25.6147 54.6455 25.8784C55.0542 26.1289 55.5486 26.2542 56.1288 26.2542C56.6561 26.2542 57.1044 26.1487 57.4736 25.9378C57.856 25.7268 58.1526 25.4367 58.3636 25.0676L60.7368 26.1949C60.5259 26.7222 60.1897 27.1837 59.7282 27.5793C59.2799 27.9748 58.7459 28.2846 58.1262 28.5088C57.5066 28.7197 56.8275 28.8252 56.0892 28.8252ZM67.2104 28.8252C66.0238 28.8252 64.9888 28.5483 64.1054 27.9946C63.2352 27.4276 62.6419 26.6695 62.3255 25.7202L64.501 24.6918C64.7778 25.2719 65.1536 25.7268 65.6283 26.0564C66.1029 26.386 66.6303 26.5508 67.2104 26.5508C67.6323 26.5508 67.9554 26.4651 68.1795 26.2937C68.4037 26.1223 68.5157 25.885 68.5157 25.5818C68.5157 25.4236 68.4762 25.2917 68.3971 25.1862C68.318 25.0676 68.1993 24.9621 68.0411 24.8698C67.8829 24.7775 67.6851 24.6984 67.4478 24.6325L65.6085 24.1183C64.7251 23.8678 64.0461 23.4656 63.5714 22.9119C63.0968 22.3449 62.8595 21.6791 62.8595 20.9144C62.8595 20.2419 63.0309 19.6552 63.3737 19.1542C63.7165 18.6532 64.1977 18.2642 64.8174 17.9874C65.4371 17.6973 66.1491 17.5523 66.9533 17.5523C68.0081 17.5523 68.931 17.8028 69.7221 18.3038C70.5264 18.7916 71.0933 19.4838 71.423 20.3804L69.2277 21.4088C69.0695 20.9605 68.7794 20.6045 68.3575 20.3408C67.9488 20.064 67.4807 19.9255 66.9533 19.9255C66.571 19.9255 66.2677 20.0046 66.0436 20.1628C65.8326 20.3211 65.7271 20.5386 65.7271 20.8155C65.7271 20.9605 65.7667 21.0924 65.8458 21.211C65.9249 21.3297 66.0502 21.4352 66.2216 21.5275C66.4062 21.6198 66.6303 21.7055 66.894 21.7846L68.6146 22.2988C69.5112 22.5625 70.1968 22.9646 70.6714 23.5052C71.1461 24.0326 71.3834 24.6852 71.3834 25.4631C71.3834 26.1355 71.2054 26.7222 70.8494 27.2233C70.5066 27.7243 70.0254 28.1198 69.4057 28.4099C68.786 28.6868 68.0543 28.8252 67.2104 28.8252ZM73.1564 28.5879V17.7896H76.123V28.5879H73.1564ZM73.1564 16.8205V13.8539H76.123V16.8205H73.1564ZM83.5941 32.9389C82.7634 32.9389 81.9921 32.8004 81.2802 32.5235C80.5682 32.2467 79.9551 31.8577 79.4409 31.3567C78.9399 30.8689 78.5773 30.2887 78.3531 29.6163L81.1022 28.6472C81.2472 29.1482 81.5439 29.5438 81.9921 29.8338C82.4404 30.1239 82.9744 30.2689 83.5941 30.2689C84.0819 30.2689 84.5038 30.1767 84.8598 29.9921C85.2158 29.8207 85.4861 29.5636 85.6707 29.2208C85.8684 28.878 85.9673 28.4758 85.9673 28.0144V25.5422L86.5409 26.2542C86.1717 26.8607 85.697 27.3156 85.1169 27.6188C84.5368 27.9089 83.8578 28.0539 83.0799 28.0539C82.0778 28.0539 81.1813 27.8298 80.3902 27.3815C79.5991 26.92 78.9794 26.2937 78.5311 25.5027C78.0829 24.6984 77.8587 23.7886 77.8587 22.7734C77.8587 21.7582 78.0829 20.8616 78.5311 20.0837C78.9794 19.2926 79.5925 18.673 80.3704 18.2247C81.1483 17.7764 82.0317 17.5523 83.0205 17.5523C83.7984 17.5523 84.4775 17.7105 85.0576 18.0269C85.6377 18.3302 86.1321 18.7982 86.5409 19.4311L86.1651 20.1431V17.7896H88.9339V28.0144C88.9339 28.9637 88.7032 29.8075 88.2417 30.5458C87.7802 31.2974 87.1474 31.8841 86.3431 32.306C85.552 32.7279 84.6357 32.9389 83.5941 32.9389ZM83.4952 25.3642C83.9962 25.3642 84.4313 25.2587 84.8005 25.0478C85.1697 24.8368 85.4531 24.5402 85.6509 24.1578C85.8619 23.7755 85.9673 23.3272 85.9673 22.813C85.9673 22.2988 85.8619 21.8505 85.6509 21.4681C85.4399 21.0726 85.1499 20.7693 84.7807 20.5584C84.4115 20.3342 83.983 20.2222 83.4952 20.2222C82.9942 20.2222 82.5459 20.3342 82.1504 20.5584C81.768 20.7693 81.4647 21.0726 81.2406 21.4681C81.0296 21.8505 80.9242 22.2988 80.9242 22.813C80.9242 23.314 81.0296 23.7557 81.2406 24.138C81.4647 24.5204 81.768 24.8236 82.1504 25.0478C82.5459 25.2587 82.9942 25.3642 83.4952 25.3642ZM91.118 28.5879V17.7896H93.8868V19.9255L93.7286 19.4509C93.9791 18.8048 94.3813 18.3302 94.935 18.0269C95.502 17.7105 96.1612 17.5523 96.9127 17.5523C97.7302 17.5523 98.4422 17.7237 99.0487 18.0665C99.6683 18.4093 100.15 18.8905 100.492 19.5102C100.835 20.1167 101.007 20.8287 101.007 21.6461V28.5879H98.04V22.279C98.04 21.8571 97.9543 21.4945 97.7829 21.1912C97.6247 20.888 97.394 20.6507 97.0907 20.4793C96.8007 20.3079 96.4579 20.2222 96.0623 20.2222C95.68 20.2222 95.3372 20.3079 95.0339 20.4793C94.7307 20.6507 94.4933 20.888 94.3219 21.1912C94.1637 21.4945 94.0846 21.8571 94.0846 22.279V28.5879H91.118Z" fill="white"/>
<path d="M103.485 28.5879V13.8539H106.55V21.2308L105.7 20.9341L111.594 13.8539H115.43L109.596 20.8946L109.774 18.7191L115.549 28.5879H111.969L108.37 22.3581L106.55 24.5534V28.5879H103.485ZM116.845 28.5879V17.7896H119.811V28.5879H116.845ZM116.845 16.8205V13.8539H119.811V16.8205H116.845ZM127.184 28.7066C125.878 28.7066 124.863 28.3572 124.138 27.6584C123.426 26.9464 123.07 25.9575 123.07 24.6918V20.3606H121.251V17.7896H121.349C121.903 17.7896 122.325 17.6511 122.615 17.3743C122.918 17.0974 123.07 16.6821 123.07 16.1283V15.3372H126.037V17.7896H128.568V20.3606H126.037V24.494C126.037 24.8632 126.103 25.173 126.234 25.4236C126.366 25.6609 126.571 25.8389 126.847 25.9575C127.124 26.0762 127.467 26.1355 127.876 26.1355C127.968 26.1355 128.074 26.1289 128.192 26.1158C128.311 26.1026 128.436 26.0894 128.568 26.0762V28.5879C128.37 28.6143 128.146 28.6406 127.896 28.667C127.645 28.6934 127.408 28.7066 127.184 28.7066Z" fill="#C22076"/>
</svg>
