<svg xmlns="http://www.w3.org/2000/svg" width="28" height="28" fill="none" ><g clip-path="url(#F)"><rect x="2.667" y="15.85" width="3.88" height="11.069" rx=".891" stroke="#fff" stroke-width="1.272"/><mask id="A" fill="#fff"><path d="M15.135 17.249a1.02 1.02 0 0 1 1.018-1.018h6.107a1.02 1.02 0 0 1 1.018 1.018v.827a1.02 1.02 0 0 1-1.018 1.018h-6.107a1.02 1.02 0 0 1-1.018-1.018v-.827z"/></mask><path d="M15.135 17.249a2.29 2.29 0 0 1 2.29-2.29h5.057a2.07 2.07 0 0 1 2.067 2.067l-2.544.477h-5.853-1.018v-.254zm8.143 1.845h-8.143 8.143zm-8.143 0v-2.863 2.863zm7.347-4.135a2.07 2.07 0 0 1 2.067 2.067h0a2.07 2.07 0 0 1-2.067 2.068h-.477v-1.018-.573l.477-2.544z" fill="#fff" mask="url(#A)"/><mask id="B" fill="#fff"><path d="M15.39 20.048c0-.527.427-.954.954-.954h6.997c.527 0 .954.427.954.954v.954c0 .527-.427.954-.954.954h-6.997c-.527 0-.954-.427-.954-.954v-.954z"/></mask><path d="M15.39 20.048c0-1.23.997-2.226 2.226-2.226h5.884a2.07 2.07 0 0 1 2.067 2.067l-2.545.477h-6.679-.954v-.318zm8.906 1.908H15.39h8.906zm-8.906 0v-2.863 2.863zm8.111-4.135a2.07 2.07 0 0 1 2.067 2.067h0a2.07 2.07 0 0 1-2.067 2.067h-.477v-.954-.636l.477-2.544z" fill="#fff" mask="url(#B)"/><mask id="C" fill="#fff"><path d="M15.39 22.911c0-.527.427-.954.954-.954h6.616c.527 0 .954.427.954.954v.954c0 .527-.427.954-.954.954h-6.616c-.527 0-.954-.427-.954-.954v-.954z"/></mask><path d="M15.39 22.911c0-1.23.997-2.226 2.226-2.226h5.503a2.07 2.07 0 0 1 2.067 2.067l-2.544.477h-6.298-.954v-.318zm8.524 1.909H15.39h8.524zm-8.524 0v-2.863 2.863zm7.729-4.135a2.07 2.07 0 0 1 2.067 2.067h0a2.07 2.07 0 0 1-2.067 2.068h-.477v-.954-.636l.477-2.544z" fill="#fff" mask="url(#C)"/><mask id="D" fill="#fff"><path d="M15.39 25.328c0-.527.427-.954.954-.954h6.171c.527 0 .954.427.954.954v1.718c0 .527-.427.954-.954.954h-6.171c-.527 0-.954-.427-.954-.954v-1.718z"/></mask><path d="M15.39 25.328c0-1.23.997-2.226 2.226-2.226h4.898c1.23 0 2.226.997 2.226 2.226l-2.545.318h-5.852-.954v-.318zM23.469 28H15.39h8.079zm-8.079 0v-3.626V28zm7.125-4.898c1.23 0 2.226.997 2.226 2.226v.445c0 1.23-.997 2.227-2.226 2.227h-.318v-.954-1.399l.318-2.545z" fill="#fff" mask="url(#D)"/><g stroke="#fff" stroke-width="1.272" stroke-linecap="round" stroke-linejoin="round"><path d="M7.311 16.931c1.429-.096 4.417-1.153 5.934-4.519.327-.726.253-1.552.27-2.348.022-1.005.488-1.978 2.129-1.657 2.341.458.975 5.45 0 7.888l-.127.318-.286.255m-8.079 9.224c.88-.159 2.875-.127 3.817 1.272h11.26"/></g><mask id="E" fill="#fff"><path d="M19.789 2.448c.025-.039.082-.039.107 0l1.052 1.653c.005.008.012.015.02.02l1.653 1.052c.039.025.039.082 0 .107l-1.653 1.052c-.008.005-.014.012-.02.02l-1.052 1.653c-.025.039-.082.039-.107 0l-1.052-1.653c-.005-.008-.012-.015-.02-.02L17.065 5.28c-.039-.025-.039-.082 0-.107l1.653-1.052c.008-.005.014-.012.02-.02l1.052-1.653z"/></mask><path d="M18.718 4.12l.342.537-.342-.537zM17.065 5.28l-.342.537.342-.537zm0-.107l-.342-.537.342.537zm1.673 1.179l.537-.342-.537.342zm-.02-.02l.342-.537-.342.537zm1.179 1.673l.537.342-.537-.342zm-.107 0l-.537.342.537-.342zm1.179-1.673l-.342-.537.342.537zm-.02.02l-.537-.342.537.342zm1.673-1.179l.341-.537-.341.537zm0 .107l.341.537-.341-.537zm-1.673-1.179l-.537.342.537-.342zm.02.02l-.342.537.342-.537zm-1.072-1.673l.537-.342-.537.342zm-.107 0l-.537-.342.537.342zm-.429.342l1.052 1.653 1.073-.683-1.052-1.653-1.073.683zm1.267 1.868l1.653 1.052.683-1.073-1.653-1.052-.683 1.073zm1.653.086l-1.653 1.052.683 1.073 1.653-1.052-.683-1.073zM20.412 6.01L19.36 7.663l1.073.683 1.052-1.653-1.073-.683zm-.086 1.653L19.274 6.01l-1.073.683 1.052 1.653 1.073-.683zm-1.267-1.868l-1.653-1.052-.683 1.073 1.653 1.052.683-1.073zm-1.653-.086l1.653-1.052-.683-1.073-1.653 1.052.683 1.073zm1.868-1.267l1.052-1.653-1.073-.683-1.052 1.653 1.073.683zm-.215.215a.7.7 0 0 0 .215-.215l-1.073-.683a.57.57 0 0 1 .176-.176l.683 1.073zm-1.653.086c.354.225.354.741 0 .966l-.683-1.073a.7.7 0 0 0 0 1.181l.683-1.073zm1.868 1.267a.7.7 0 0 0-.215-.215l-.683 1.073c-.071-.045-.131-.105-.176-.176l1.073-.683zm.086 1.653c.225-.354.741-.354.966 0l-1.073.683a.7.7 0 0 0 1.181 0l-1.073-.683zm1.267-1.868a.7.7 0 0 0-.215.215l1.073.683a.57.57 0 0 1-.176.176l-.683-1.073zm1.653-.086c-.353-.225-.353-.741 0-.966l.683 1.073a.7.7 0 0 0 0-1.181l-.683 1.073zm-1.868-1.267a.7.7 0 0 0 .215.215l.683-1.073a.57.57 0 0 1 .176.176l-1.073.683zm.021-2.336a.7.7 0 0 0-1.181 0l1.073.683c-.225.354-.741.354-.966 0l1.073-.683z" fill="#fff" mask="url(#E)"/><path d="M7.841 9.838h0a.38.38 0 0 0-.117.117h0l-.54.849-.54-.849a.38.38 0 0 0-.117-.117h0l-.849-.54.849-.54a.38.38 0 0 0 .117-.117h0l.54-.849.54.849.268-.171-.268.171a.38.38 0 0 0 .117.117h0l.849.54-.849.54z" stroke="#fff" stroke-width=".636"/><g fill="#fff"><rect x="22.833" y="9.743" width="1.272" height="1.845" rx=".636"/><rect x="22.833" y="12.86" width="1.272" height="1.845" rx=".636"/><rect x="24.105" y="12.86" width="1.272" height="1.845" rx=".636" transform="rotate(270 24.105 12.86)"/><rect x="20.988" y="12.86" width="1.272" height="1.845" rx=".636" transform="rotate(270 20.988 12.86)"/><rect x="12.623" y="1.304" width="1.272" height="1.845" rx=".636" transform="rotate(45 12.623 1.304)"/><rect x="10.419" y="3.509" width="1.272" height="1.845" rx=".636" transform="rotate(45 10.419 3.509)"/><rect x="11.319" y="4.408" width="1.272" height="1.845" rx=".636" transform="rotate(315 11.319 4.408)"/><rect x="9.114" y="2.204" width="1.272" height="1.845" rx=".636" transform="rotate(315 9.114 2.204)"/></g></g><defs><clipPath id="F"><path fill="#fff" d="M0 0h28v28H0z"/></clipPath></defs></svg>