<svg xmlns="http://www.w3.org/2000/svg" width="24" height="24" fill="none" ><mask id="A" fill="#fff"><path d="M22.313 10.781a10.31 10.31 0 0 0-3.02-7.292A10.31 10.31 0 0 0 12 .469a10.31 10.31 0 0 0-3.946.785c-1.251.518-2.388 1.278-3.346 2.235S2.991 5.584 2.472 6.835s-.785 2.592-.785 3.946h.938c0-1.231.242-2.45.714-3.588S4.5 5.023 5.371 4.152 7.275 2.591 8.412 2.12s2.356-.714 3.588-.714 2.45.242 3.588.714 2.171 1.162 3.041 2.032 1.561 1.904 2.032 3.041.714 2.356.714 3.588h.938z"/></mask><g stroke="#fff"><path d="M22.313 10.781a10.31 10.31 0 0 0-3.02-7.292A10.31 10.31 0 0 0 12 .469a10.31 10.31 0 0 0-3.946.785c-1.251.518-2.388 1.278-3.346 2.235S2.991 5.584 2.472 6.835s-.785 2.592-.785 3.946h.938c0-1.231.242-2.45.714-3.588S4.5 5.023 5.371 4.152 7.275 2.591 8.412 2.12s2.356-.714 3.588-.714 2.45.242 3.588.714 2.171 1.162 3.041 2.032 1.561 1.904 2.032 3.041.714 2.356.714 3.588h.938z" stroke-width="1.875" mask="url(#A)"/><g stroke-width=".938"><path d="M.703 12.281a1.55 1.55 0 0 1 1.547-1.547h.516a1.03 1.03 0 0 1 1.031 1.031v4.594a1.03 1.03 0 0 1-1.031 1.031H2.25c-.854 0-1.547-.692-1.547-1.547v-3.562zm22.594 0a1.55 1.55 0 0 0-1.547-1.547h-.516a1.03 1.03 0 0 0-1.031 1.031v4.594a1.03 1.03 0 0 0 1.031 1.031h.516c.854 0 1.547-.692 1.547-1.547v-3.562z"/><path d="M21.75 17.766v1.383c0 1.45-1.175 2.625-2.625 2.625h-1.828" stroke-linecap="round" stroke-linejoin="round"/><rect x="12.609" y="20.531" width="4.219" height="2.531" rx="1.266"/><path d="M9.141 15.141v2.602.023.352l2.977-2.977h4.781c.207 0 .375-.168.375-.375V7.008c0-.207-.168-.375-.375-.375H7.055c-.207 0-.375.168-.375.375v7.758c0 .207.168.375.375.375h2.086z" stroke-linejoin="round"/></g></g><g fill="#fff"><circle cx="9.188" cy="10.828" r=".938"/><circle cx="12" cy="10.828" r=".938"/><circle cx="14.813" cy="10.828" r=".938"/></g></svg>