<svg xmlns="http://www.w3.org/2000/svg" width="28" height="28" fill="none" ><mask id="A" fill="#fff"><path d="M22.605 7.177c.237-.187.279-.532.081-.76A11.92 11.92 0 0 0 8.052 3.705 11.92 11.92 0 0 0 2.177 17.38c.08.291.39.448.677.355a.57.57 0 0 0 .364-.693A10.83 10.83 0 0 1 8.567 4.669a10.83 10.83 0 0 1 13.259 2.425.57.57 0 0 0 .779.082z"/></mask><g stroke="#fefefe"><path d="M22.605 7.177c.237-.187.279-.532.081-.76A11.92 11.92 0 0 0 8.052 3.705 11.92 11.92 0 0 0 2.177 17.38c.08.291.39.448.677.355a.57.57 0 0 0 .364-.693A10.83 10.83 0 0 1 8.567 4.669a10.83 10.83 0 0 1 13.259 2.425.57.57 0 0 0 .779.082z" stroke-width="2.188" mask="url(#A)"/><path d="M22.777 3.527l.137 3.719-3.445.191" stroke-width="1.094" stroke-linecap="round" stroke-linejoin="round"/></g><mask id="B" fill="#fff"><path d="M4.739 21.261c-.237.187-.279.532-.081.76a11.92 11.92 0 0 0 14.634 2.712 11.92 11.92 0 0 0 5.875-13.675c-.08-.291-.39-.448-.677-.355a.57.57 0 0 0-.364.693 10.83 10.83 0 0 1-5.349 12.372 10.83 10.83 0 0 1-13.259-2.425.57.57 0 0 0-.779-.082z"/></mask><g stroke="#fefefe"><path d="M4.739 21.261c-.237.187-.279.532-.081.76a11.92 11.92 0 0 0 14.634 2.712 11.92 11.92 0 0 0 5.875-13.675c-.08-.291-.39-.448-.677-.355a.57.57 0 0 0-.364.693 10.83 10.83 0 0 1-5.349 12.372 10.83 10.83 0 0 1-13.259-2.425.57.57 0 0 0-.779-.082z" stroke-width="2.188" mask="url(#B)"/><g stroke-width="1.094"><path d="M4.566 24.91l-.137-3.719L7.875 21" stroke-linecap="round" stroke-linejoin="round"/><circle cx="13.672" cy="10.5" r="2.188"/><path d="M9.516 15.641c0-1.631 1.322-2.953 2.953-2.953h2.406c1.631 0 2.953 1.322 2.953 2.953v1.094a1.86 1.86 0 0 1-1.859 1.859h-4.594a1.86 1.86 0 0 1-1.859-1.859v-1.094z"/></g></g></svg>