<svg width="24" height="24" viewBox="0 0 24 24" fill="none" xmlns="http://www.w3.org/2000/svg">
<path d="M0 6C0 2.68629 2.68629 0 6 0H18C21.3137 0 24 2.68629 24 6V18C24 21.3137 21.3137 24 18 24H6C2.68629 24 0 21.3137 0 18V6Z" fill="#435186"/>
<path d="M6 0.5H18C21.0376 0.5 23.5 2.96243 23.5 6V18C23.5 21.0376 21.0376 23.5 18 23.5H6C2.96243 23.5 0.5 21.0376 0.5 18V6C0.5 2.96243 2.96243 0.5 6 0.5Z" stroke="white" stroke-opacity="0.4"/>
<g clip-path="url(#clip0_1584_1206)">
<path d="M4.87325 9.66864H7.25952C7.95991 9.67452 8.46744 9.87646 8.7821 10.2741C9.09677 10.6718 9.20059 11.2149 9.09374 11.9035C9.05225 12.2182 8.96018 12.5268 8.81772 12.8296C8.68114 13.1323 8.4913 13.4053 8.24786 13.6487C7.95101 13.9573 7.63349 14.1532 7.29514 14.2364C6.95678 14.3196 6.6065 14.361 6.24446 14.361H5.17598L4.83763 16.0528H3.59998L4.87325 9.66864ZM5.91502 10.6837L5.38078 13.3549C5.41639 13.3608 5.45201 13.3638 5.48762 13.3638C5.52912 13.3638 5.57078 13.3638 5.61228 13.3638C6.18214 13.3697 6.65707 13.3134 7.03692 13.1946C7.41677 13.07 7.67213 12.6367 7.80266 11.8946C7.90951 11.2714 7.80266 10.9122 7.48212 10.8173C7.16746 10.7223 6.77282 10.6778 6.29789 10.6837C6.22666 10.6896 6.15845 10.6926 6.0931 10.6926C6.03379 10.6926 5.97146 10.6926 5.90611 10.6926L5.91502 10.6837Z" fill="white"/>
<path d="M10.5036 7.96802H11.7324L11.3851 9.66868H12.4892C13.0947 9.68061 13.5458 9.80527 13.8426 10.0426C14.1453 10.28 14.2344 10.7313 14.1097 11.3961L13.5132 14.3611H12.2666L12.8365 11.5296C12.8958 11.2328 12.878 11.0221 12.783 10.8974C12.6881 10.7728 12.4833 10.7104 12.1687 10.7104L11.1803 10.7015L10.4502 14.3611H9.22144L10.5036 7.96802Z" fill="white"/>
<path d="M15.4292 9.66864H17.8154C18.5158 9.67452 19.0233 9.87646 19.338 10.2741C19.6527 10.6718 19.7565 11.2149 19.6497 11.9035C19.6082 12.2182 19.5161 12.5268 19.3736 12.8296C19.237 13.1323 19.0472 13.4053 18.8038 13.6487C18.5069 13.9573 18.1894 14.1532 17.851 14.2364C17.5127 14.3196 17.1624 14.361 16.8004 14.361H15.7319L15.3935 16.0528H14.1559L15.4292 9.66864ZM16.4709 10.6837L15.9367 13.3549C15.9723 13.3608 16.0079 13.3638 16.0435 13.3638C16.085 13.3638 16.1267 13.3638 16.1682 13.3638C16.738 13.3697 17.213 13.3134 17.5928 13.1946C17.9727 13.07 18.228 12.6367 18.3586 11.8946C18.4654 11.2714 18.3586 10.9122 18.038 10.8173C17.7234 10.7223 17.3287 10.6778 16.8538 10.6837C16.7826 10.6896 16.7144 10.6926 16.649 10.6926C16.5897 10.6926 16.5274 10.6926 16.462 10.6926L16.4709 10.6837Z" fill="white"/>
</g>
<defs>
<clipPath id="clip0_1584_1206">
<rect width="16.8" height="8.4" fill="white" transform="translate(3.59998 7.79999)"/>
</clipPath>
</defs>
</svg>
