<svg width="24" height="24" viewBox="0 0 24 24" fill="none" xmlns="http://www.w3.org/2000/svg">
<rect width="24" height="24" rx="6" fill="#F7DF1E"/>
<rect x="0.5" y="0.5" width="23" height="23" rx="5.5" stroke="white" stroke-opacity="0.4"/>
<path d="M16.121 18.7502C16.6045 19.5395 17.2334 20.1197 18.3458 20.1197C19.2803 20.1197 19.8772 19.6526 19.8772 19.0073C19.8772 18.234 19.2639 17.9601 18.2353 17.5102L17.6715 17.2683C16.0441 16.5749 14.9629 15.7064 14.9629 13.8702C14.9629 12.1787 16.2517 10.8911 18.2658 10.8911C19.6997 10.8911 20.7306 11.3902 21.4734 12.6968L19.7172 13.8244C19.3305 13.1311 18.9134 12.858 18.2658 12.858C17.6052 12.858 17.1866 13.277 17.1866 13.8244C17.1866 14.501 17.6056 14.7749 18.5732 15.194L19.137 15.4355C21.0532 16.2572 22.1351 17.0949 22.1351 18.9784C22.1351 21.0088 20.5401 22.1212 18.398 22.1212C16.3035 22.1212 14.9504 21.1231 14.2883 19.8149L16.121 18.7502ZM8.15417 18.9456C8.50845 19.5742 8.83074 20.1056 9.6056 20.1056C10.3465 20.1056 10.814 19.8157 10.814 18.6884V11.0199H13.0692V18.7189C13.0692 21.0542 11.7001 22.117 9.7016 22.117C7.89588 22.117 6.85017 21.1825 6.31836 20.057L8.15417 18.9456Z" fill="black"/>
</svg>
