<svg width="96" height="30" viewBox="0 0 96 30" fill="none" xmlns="http://www.w3.org/2000/svg">
<path d="M21.6689 10.6299V0.0839844H24.9482V30H21.6689L21.6621 15.9883L16.7744 5.44629V30H13.4951V0.0839844H16.7744L21.6689 10.6299ZM67.9023 2.63574H63.959L63.9453 30H60.6758V2.63574L56.7266 2.63867L56.7295 0.0839844H67.9023V2.63574ZM80.9922 30H71.5078V27.4463H77.7002V11.8809H73.3154V9.32324H77.7041V2.6416L71.5078 2.63867V0.0839844H80.9922V30ZM38.0361 2.63574H31.8438V19.7598H36.2314V22.3154H31.8438V27.4404H38.0361V29.998H28.5557V0.0810547H38.0361V2.63574ZM92.4834 0.0625C93.4558 0.0625 93.9826 0.341779 94.6895 0.892578C95.3964 1.44352 95.7539 2.10466 95.7539 2.87598V21.5762C95.7538 22.8247 95.0613 23.682 93.6758 24.1484C95.0641 24.6256 95.7667 25.4925 95.7744 26.7441V29.9834H92.4912L92.5068 26.665C92.5065 26.5538 92.4929 26.4431 92.4668 26.335C92.4604 26.304 92.4519 26.273 92.4414 26.2432C92.4276 26.1977 92.4106 26.1534 92.3906 26.1104L92.3779 26.0859C92.2677 25.8751 92.0888 25.7077 91.8711 25.6104L91.8379 25.5947C91.7971 25.576 91.757 25.5584 91.7129 25.543C91.5777 25.49 91.4355 25.4555 91.291 25.4404C91.2656 25.4371 91.2413 25.4268 91.2148 25.4268H87.8721V29.9824H84.5908V0.0625H92.4834ZM53.125 18.3125C53.1234 19.3378 52.4992 20.149 51.2529 20.7461L50.665 21.0264L51.2529 21.3057C52.5008 21.905 53.1249 22.7154 53.125 23.7363V29.917H49.833V23.8164C49.833 23.5905 49.7048 23.416 49.4492 23.2959L47.3809 22.498L45.3115 23.2949C45.0562 23.4149 44.9279 23.5888 44.9277 23.8145V29.916H41.6426V23.7334C41.6426 22.7116 42.2665 21.9014 43.5137 21.3027L44.1016 21.0225L43.5137 20.7432C42.2664 20.1452 41.6426 19.3333 41.6426 18.3086V0L44.9189 0.0117188V18.2627C44.919 18.4764 45.0461 18.645 45.3027 18.7617L47.3809 19.5498L49.458 18.7471C49.7136 18.627 49.8418 18.4617 49.8418 18.249V0H53.125V18.3125ZM3.62988 25.0996C3.78167 25.1163 3.93044 25.1536 4.07227 25.21C4.11862 25.2253 4.16398 25.245 4.20703 25.2637C4.21793 25.2713 4.23028 25.2757 4.24121 25.2832C4.47316 25.3859 4.66313 25.5658 4.77832 25.791C4.78589 25.8029 4.78957 25.8098 4.79395 25.8174C4.8158 25.863 4.8336 25.9104 4.84766 25.959C4.85946 25.9916 4.86816 26.0254 4.87402 26.0596C4.90414 26.174 4.92041 26.2919 4.92188 26.4102L4.90625 29.8145H0V25.084H3.54883C3.57981 25.084 3.60333 25.0963 3.62988 25.0996ZM87.8682 22.8721H91.0762C91.4351 22.8826 91.787 22.769 92.0723 22.5518C92.1963 22.4675 92.2986 22.3551 92.3701 22.2236C92.4417 22.0919 92.4804 21.9446 92.4834 21.7949L92.4883 3.23438C92.4886 3.14955 92.4671 3.06589 92.4268 2.99121C92.3864 2.91654 92.3281 2.853 92.2568 2.80664C92.1019 2.6923 91.9135 2.63213 91.7207 2.63574H87.8682V22.8721ZM4.09375 0.632812C4.29922 0.628923 4.49988 0.694263 4.66406 0.817383C4.73918 0.86821 4.80052 0.936549 4.84277 1.0166C4.885 1.09667 4.90683 1.18593 4.90625 1.27637V21.1875C4.90625 21.4981 4.76372 21.7667 4.4707 21.998C4.16778 22.2315 3.79201 22.3526 3.40918 22.3398H0V0.632812H4.09375Z" fill="white"/>
</svg>
