<svg width="24" height="24" viewBox="0 0 24 24" fill="none" xmlns="http://www.w3.org/2000/svg">
<path d="M0 6C0 2.68629 2.68629 0 6 0H18C21.3137 0 24 2.68629 24 6V18C24 21.3137 21.3137 24 18 24H6C2.68629 24 0 21.3137 0 18V6Z" fill="#F1F1F1"/>
<path d="M6 0.5H18C21.0376 0.5 23.5 2.96243 23.5 6V18C23.5 21.0376 21.0376 23.5 18 23.5H6C2.96243 23.5 0.5 21.0376 0.5 18V6C0.5 2.96243 2.96243 0.5 6 0.5Z" stroke="white" stroke-opacity="0.4"/>
<g clip-path="url(#clip0_1584_1274)">
<path d="M4.9375 4L5.93127 18.0032L12.0062 20L18.0812 18.0032L19.075 4H4.9375Z" fill="#FF7816"/>
<path d="M19.075 4L18.0812 18.0032L12.0062 20V4H19.075Z" fill="#FF4B00"/>
<path d="M16.4219 8.25H9.47498L9.64368 10.5938H16.2532L15.85 16.2687L12.0062 17.5531L8.16248 16.2687L8.03125 14.375H9.90625L9.94373 14.8906L12.0062 15.575L14.0687 14.8906L14.2374 12.4688H7.89062L7.45935 6.375H16.5531L16.4219 8.25Z" fill="#ECECF1"/>
<path d="M16.2532 10.5938L15.85 16.2687L12.0062 17.5531V15.575L14.0687 14.8906L14.2374 12.4688H12.0062V10.5938H16.2532Z" fill="#E2E2E7"/>
<path d="M16.5531 6.375L16.4219 8.25H12.0062V6.375H16.5531Z" fill="#E2E2E7"/>
</g>
<defs>
<clipPath id="clip0_1584_1274">
<rect width="16" height="16" fill="white" transform="translate(4 4)"/>
</clipPath>
</defs>
</svg>
