<svg width="24" height="24" viewBox="0 0 24 24" fill="none" xmlns="http://www.w3.org/2000/svg">
<rect width="24" height="24" rx="6" fill="#F1F1F1"/>
<rect x="0.5" y="0.5" width="23" height="23" rx="5.5" stroke="white" stroke-opacity="0.4"/>
<path d="M18 6.90168L16.9068 19.0488L11.9927 20.4001L7.09207 19.0507L6 6.90168H18Z" fill="#264DE4"/>
<path d="M15.9708 18.2753L16.9051 7.89505H12V19.3673L15.9708 18.2753Z" fill="#2965F1"/>
<path d="M8.50359 12.401L8.63824 13.891H12V12.401H8.50359Z" fill="#EBEBEB"/>
<path d="M12.0001 9.38512H11.9949H8.23312L8.36969 10.8752H12.0001V9.38512Z" fill="#EBEBEB"/>
<path d="M11.9998 17.821V16.2707L11.9933 16.2725L10.3202 15.8244L10.2132 14.636H8.70516L8.91562 16.9756L11.9929 17.8229L11.9998 17.821Z" fill="#EBEBEB"/>
<path d="M8.82422 3.6001H10.6437V4.35479H9.58511V5.10947H10.6437V5.86416H8.82422V3.6001Z" fill="black"/>
<path d="M11.0077 3.6001H12.8272V4.25635H11.7685V4.3876H12.8272V5.89697H11.0077V5.20791H12.0663V5.07666H11.0077V3.6001Z" fill="black"/>
<path d="M13.1911 3.6001H15.0106V4.25635H13.952V4.3876H15.0106V5.89697H13.1911V5.20791H14.2497V5.07666H13.1911V3.6001Z" fill="black"/>
<path d="M13.8447 13.891L13.6704 15.8235L11.9948 16.272V17.8222L15.0746 16.9756L15.4502 12.8011L15.4869 12.401L15.7581 9.38512H11.9949L11.9948 10.8752H14.1117L13.975 12.401H11.9948V13.891H13.8447Z" fill="white"/>
</svg>
