<svg width="84" height="88" viewBox="0 0 84 88" fill="none" xmlns="http://www.w3.org/2000/svg">
<g clip-path="url(#clip0_493_12406)">
<path fill-rule="evenodd" clip-rule="evenodd" d="M41.2003 87.3776C41.0227 87.3776 40.8558 87.3129 40.7267 87.1889C40.6029 87.065 40.5329 86.8977 40.5276 86.72L39.6341 43.1872C39.6288 43.0255 39.6879 42.8638 39.7902 42.7399C39.8978 42.616 40.0485 42.5352 40.21 42.5082L56.7711 40.105C56.9487 40.0781 57.1263 40.1265 57.2662 40.2289L80.0546 57.1215C80.1834 57.2131 80.275 57.3532 80.3073 57.5095L83.5152 71.7942C83.553 71.956 83.5317 72.1226 83.4505 72.2686C83.3699 72.4139 83.2405 72.5213 83.0848 72.5805L41.421 87.3397C41.3492 87.3645 41.2757 87.3776 41.2003 87.3776ZM40.985 43.7529L41.8516 85.7664L82.0782 71.5085L79.059 58.0484L56.6957 41.4791L40.985 43.7529Z" fill="#101014"/>
<path d="M82.8572 72.6131C82.7278 72.6131 82.599 72.5752 82.4861 72.505L39.9234 43.7313C39.848 43.6827 39.7834 43.6181 39.7296 43.548C39.6758 43.4726 39.6435 43.3864 39.6219 43.3002C39.6058 43.214 39.6058 43.1223 39.6219 43.0308C39.6381 42.9446 39.6704 42.8583 39.7242 42.7829C39.7727 42.7129 39.8372 42.6481 39.9126 42.5997C39.988 42.5512 40.074 42.5135 40.1655 42.4973C40.2517 42.4865 40.3432 42.4865 40.4293 42.5081C40.5208 42.5296 40.6015 42.5674 40.6715 42.6158L83.2339 71.3848C83.3523 71.4653 83.4439 71.5837 83.4921 71.7187C83.5409 71.8585 83.5464 72.0037 83.5031 72.1442C83.4604 72.2791 83.3736 72.4031 83.2607 72.4891C83.1423 72.5752 83.0025 72.6186 82.8572 72.6186V72.6131Z" fill="#101014"/>
<path d="M74.004 66.6271C73.9716 66.6271 73.9413 66.6271 73.9124 66.6271C73.7885 66.6109 73.6701 66.5571 73.5737 66.4762C73.4766 66.3954 73.4064 66.293 73.3685 66.1744L68.0297 50.0847L50.2684 50.5697C50.1446 50.5751 50.0208 50.5427 49.9131 50.4781C49.8055 50.4134 49.714 50.3219 49.6602 50.2087C49.601 50.1009 49.574 49.977 49.5849 49.8477C49.5902 49.7237 49.6386 49.6052 49.7087 49.5028L56.3288 40.3749C56.431 40.2294 56.5871 40.1378 56.7647 40.1055C56.9423 40.0785 57.1199 40.1216 57.2653 40.2294C57.4106 40.3318 57.5074 40.4881 57.5344 40.6658C57.5613 40.8437 57.5182 41.0215 57.4159 41.167L51.5978 49.1903L68.4979 48.7269C68.6432 48.7215 68.7832 48.7646 68.9013 48.8508C69.0198 48.9317 69.1058 49.0502 69.1547 49.1903L74.2195 64.4555L79.106 57.2836C79.1549 57.2082 79.2196 57.1435 79.2891 57.0896C79.3649 57.0412 79.4509 57.0034 79.537 56.9873C79.6231 56.9711 79.7146 56.9711 79.8007 56.9873C79.8923 57.0034 79.9728 57.0412 80.0479 57.0896C80.1236 57.1435 80.1828 57.2082 80.231 57.2836C80.2799 57.3591 80.3116 57.4399 80.3281 57.5315C80.3439 57.6177 80.3439 57.7093 80.3226 57.7955C80.3012 57.8817 80.2634 57.9679 80.2152 58.038L74.5583 66.3307C74.4991 66.4223 74.413 66.4978 74.3159 66.5462C74.2195 66.6002 74.1114 66.6271 74.004 66.6271Z" fill="#101014"/>
<path d="M41.2029 87.3772C41.1006 87.3772 40.9984 87.3558 40.9069 87.3124C40.8154 87.2691 40.7347 87.2044 40.6701 87.1238C40.6109 87.0432 40.5678 86.9462 40.5463 86.8491C40.5248 86.7465 40.5248 86.6439 40.5517 86.5475L49.6045 49.7392C49.6261 49.6476 49.6638 49.5668 49.7122 49.4968C49.766 49.4213 49.8306 49.362 49.906 49.3135C49.9813 49.2704 50.0674 49.2381 50.1589 49.2219C50.245 49.2112 50.3365 49.2112 50.4226 49.2327C50.5088 49.2543 50.5895 49.2974 50.6594 49.3458C50.7294 49.3997 50.794 49.4698 50.8371 49.5452C50.8801 49.6207 50.9124 49.7069 50.9232 49.7931C50.9393 49.8847 50.9339 49.9709 50.907 50.0571L42.2525 85.2489L73.6466 65.3871C73.7974 65.2901 73.9805 65.2578 74.1582 65.3009C74.3303 65.3386 74.4811 65.4464 74.5726 65.5972C74.6697 65.7481 74.7021 65.9313 74.6642 66.1037C74.6208 66.2762 74.5189 66.427 74.3682 66.524L41.5582 87.2746C41.4505 87.3448 41.3267 87.3772 41.2029 87.3772Z" fill="#101014"/>
<path d="M4.11621 52.4002L50.301 79.4175L61.582 26.1803L44.5581 20.377L12.2326 33.4653L4.11621 52.4002Z" fill="#1717CC"/>
<path d="M12.1975 49.3891C12.0414 49.3891 11.8961 49.3352 11.7723 49.2382C11.6539 49.1466 11.5732 49.0119 11.5409 48.861C11.5085 48.7102 11.5247 48.5539 11.5947 48.4138C11.6646 48.2791 11.7777 48.1659 11.9176 48.1013L59.8355 26.2406C59.9969 26.1652 60.1799 26.1598 60.3468 26.2245C60.4329 26.2514 60.5082 26.2998 60.5728 26.3591C60.6374 26.4184 60.6859 26.4939 60.7235 26.5747C60.7612 26.6555 60.7827 26.7417 60.7881 26.8279C60.7881 26.9141 60.7773 27.0058 60.745 27.0866C60.7127 27.1728 60.6643 27.2482 60.6051 27.3129C60.5459 27.3775 60.4759 27.4261 60.3952 27.4638L12.4774 49.3245C12.3912 49.3676 12.2943 49.3891 12.1975 49.3891Z" fill="#F3F4FA"/>
<path d="M5.78488 52.3094C5.63417 52.3094 5.48347 52.261 5.36506 52.1639C5.24665 52.067 5.16592 51.9323 5.13363 51.7814C5.10133 51.6305 5.11748 51.4742 5.18745 51.3396C5.25742 51.2048 5.37045 51.0917 5.51038 51.027L7.12506 50.2888C7.20575 50.2511 7.29189 50.2349 7.38339 50.2295C7.46953 50.2242 7.55559 50.2403 7.64173 50.2726C7.72249 50.2996 7.79781 50.3481 7.8624 50.4074C7.92698 50.4667 7.98082 50.542 8.01849 50.6229C8.05615 50.7037 8.07233 50.7899 8.0777 50.8761C8.08307 50.9624 8.06696 51.054 8.03467 51.1348C8.00775 51.2156 7.95927 51.2965 7.90006 51.3611C7.84085 51.4258 7.76552 51.4742 7.68483 51.512L6.06475 52.2502C5.97864 52.2933 5.88175 52.3094 5.78488 52.3094Z" fill="#F3F4FA"/>
<path d="M17.5509 46.948H17.4863C17.3625 46.9319 17.2495 46.8888 17.1526 46.8187C17.0503 46.7433 16.975 46.6463 16.9265 46.5331L12.384 35.5894C12.3248 35.4223 12.3248 35.2391 12.3947 35.0775C12.4647 34.9158 12.5938 34.7919 12.7554 34.7218C12.9168 34.6572 13.0998 34.6572 13.2613 34.7218C13.4227 34.7865 13.5519 34.9104 13.6272 35.0721L17.68 44.8358L28.5683 28.0187C28.6382 27.9055 28.7405 27.8193 28.8589 27.7708C28.9773 27.7169 29.1119 27.7007 29.241 27.7169L38.9506 29.2634C39.0421 29.2742 39.1282 29.3065 39.2035 29.3496C39.2788 29.3981 39.3434 29.4574 39.3973 29.5274C39.4511 29.6029 39.4888 29.6837 39.5103 29.7699C39.5318 29.8561 39.5372 29.9477 39.5211 30.0339C39.5103 30.1201 39.478 30.2064 39.4296 30.2818C39.3812 30.3572 39.3219 30.4219 39.2466 30.4758C39.1766 30.5242 39.0959 30.562 39.0044 30.5835C38.9183 30.6051 38.8321 30.6051 38.7406 30.589L29.4617 29.1125L18.1106 46.641C18.0514 46.7325 17.9653 46.808 17.8684 46.8618C17.7715 46.9157 17.6586 46.9427 17.5509 46.948Z" fill="#F3F4FA"/>
<path d="M49.6226 32.3121C49.5867 32.3121 49.5508 32.3086 49.515 32.3014L44.0466 31.4339C43.9605 31.4177 43.8744 31.3908 43.799 31.3423C43.7236 31.2992 43.6537 31.2399 43.5998 31.1644C43.5514 31.0944 43.5084 31.0136 43.4922 30.9274C43.4707 30.8411 43.4653 30.7495 43.4761 30.6633C43.4922 30.5717 43.5245 30.4909 43.573 30.4155C43.616 30.34 43.6806 30.27 43.7506 30.2215C43.826 30.1676 43.9067 30.1299 43.9928 30.1137C44.0789 30.0921 44.1704 30.0921 44.2565 30.1083L48.4977 30.7765L44.7624 22.4676C44.7248 22.3868 44.7086 22.3006 44.7032 22.2143C44.7032 22.1227 44.714 22.0365 44.7463 21.9503C44.8109 21.7833 44.9401 21.6485 45.1015 21.5785C45.263 21.5031 45.4514 21.4977 45.6182 21.5623C45.7851 21.627 45.9196 21.7563 45.9896 21.918L50.2416 31.3584C50.2846 31.4608 50.3061 31.574 50.3007 31.6871C50.29 31.8003 50.2523 31.908 50.1931 31.9996C50.1339 32.0966 50.0477 32.1721 49.9509 32.2259C49.854 32.2798 49.741 32.3068 49.6279 32.3068L49.6226 32.3121Z" fill="#F3F4FA"/>
<path d="M49.5437 36.5533H49.5275C49.35 36.548 49.1831 36.4779 49.0593 36.3486C48.9355 36.2193 48.8655 36.0469 48.8709 35.869L48.9463 31.6284C48.9517 31.4505 49.027 31.2781 49.1508 31.1542C49.2799 31.0356 49.4522 30.9656 49.6298 30.971C49.8074 30.971 49.9796 31.0465 50.1034 31.1758C50.2272 31.2997 50.2918 31.4721 50.2918 31.6499L50.2111 35.8906C50.2111 36.0684 50.1357 36.2355 50.0119 36.3594C49.8882 36.4833 49.7159 36.5533 49.5437 36.5533Z" fill="#F3F4FA"/>
<path d="M49.4345 42.5605H49.4291C49.343 42.5605 49.2515 42.539 49.1708 42.5067C49.09 42.469 49.0201 42.4205 48.9555 42.3558C48.8963 42.2911 48.8479 42.2157 48.8156 42.1349C48.7833 42.0541 48.7671 41.9624 48.7725 41.8762L48.7887 40.944C48.7887 40.7662 48.864 40.5938 48.9932 40.4698C49.1223 40.346 49.2946 40.2812 49.4722 40.2812C49.6498 40.2867 49.8166 40.3621 49.9404 40.4915C50.0642 40.6154 50.1342 40.7878 50.1288 40.9656L50.1127 41.9032C50.1073 42.0756 50.0373 42.248 49.9082 42.372C49.7844 42.4905 49.6122 42.5605 49.4345 42.5605Z" fill="#F3F4FA"/>
<path d="M48.826 76.0225C48.6592 76.0225 48.4978 75.9584 48.374 75.8448L17.0926 46.7639C16.9633 46.6453 16.8826 46.4783 16.8773 46.3004C16.8719 46.1226 16.9365 45.9448 17.0548 45.8155C17.1786 45.6862 17.3455 45.6107 17.5231 45.5999C17.7007 45.5945 17.8729 45.6592 18.0021 45.7778L48.1856 73.835L48.643 48.4773C48.6484 48.2996 48.7238 48.1325 48.853 48.0086C48.9768 47.8846 49.149 47.8146 49.3266 47.82C49.5042 47.82 49.6764 47.8954 49.8002 48.0247C49.924 48.1541 49.9886 48.3265 49.9886 48.5043L49.4988 75.3704C49.4988 75.4999 49.4558 75.6238 49.3858 75.7319C49.3104 75.8393 49.2082 75.9261 49.0897 75.9743C49.009 76.0066 48.9175 76.0225 48.8314 76.0225H48.826Z" fill="#F3F4FA"/>
<path d="M12.1938 79.2283L33.7496 84.8212L32.2533 62.2172L24.7775 61.8184L13.308 70.725L12.1938 79.2283Z" fill="#F3F4FA"/>
<path fill-rule="evenodd" clip-rule="evenodd" d="M33.7541 85.4912C33.6967 85.4912 33.6411 85.4857 33.5873 85.4747L12.0315 79.8818C11.87 79.8385 11.7355 79.7414 11.644 79.6071C11.5525 79.4722 11.5148 79.3055 11.531 79.1437L12.6451 70.6356C12.6558 70.5489 12.6828 70.4628 12.7258 70.3871C12.7743 70.312 12.8281 70.2418 12.8981 70.1881L24.3729 61.2918C24.4967 61.1949 24.6582 61.1409 24.8197 61.1518L32.2955 61.5451C32.4624 61.5559 32.6131 61.6259 32.7315 61.7391C32.8499 61.8576 32.9199 62.0085 32.9306 62.1755L34.4269 84.78C34.4323 84.8716 34.4215 84.9631 34.3892 85.0492C34.357 85.1353 34.3085 85.2165 34.2439 85.2812C34.1847 85.3508 34.1094 85.4052 34.0232 85.4368C33.9371 85.4747 33.8456 85.4967 33.7541 85.4967V85.4912ZM12.9411 78.723L33.0275 83.9338L31.6281 62.8545L24.9973 62.5042L13.9422 71.0825L12.9411 78.723Z" fill="#101014"/>
<path d="M12.1965 79.9045C12.0566 79.9045 11.922 79.8618 11.809 79.7806C11.7013 79.7055 11.6153 79.5919 11.5668 79.4632C11.5184 79.3337 11.5129 79.1933 11.5452 79.0645C11.583 78.9295 11.6583 78.8111 11.7605 78.7195L31.8201 61.7028C31.89 61.6489 31.9654 61.6004 32.0515 61.5735C32.1376 61.5411 32.2237 61.5304 32.3152 61.5411C32.4013 61.5466 32.4875 61.5681 32.5682 61.6112C32.6489 61.649 32.7189 61.7082 32.7781 61.7728C32.8373 61.8429 32.8803 61.9237 32.9073 62.0046C32.9342 62.0908 32.9396 62.1824 32.9342 62.2686C32.9234 62.3602 32.9019 62.4464 32.8588 62.5272C32.8158 62.6027 32.7565 62.6727 32.6866 62.732L12.6271 79.7434C12.5087 79.8453 12.3526 79.9045 12.1965 79.9045Z" fill="#101014"/>
<path d="M16.8873 75.9283C16.7904 75.9283 16.6881 75.9063 16.5966 75.8581C16.5051 75.8147 16.4244 75.7507 16.3652 75.6694L12.7861 71.1431C12.673 71.0033 12.6246 70.8257 12.6461 70.6473C12.6676 70.4697 12.7538 70.3079 12.8937 70.2005C13.0336 70.0869 13.2112 70.0387 13.3889 70.06C13.5664 70.0821 13.7279 70.1681 13.8356 70.3079L16.5697 73.7725L18.5235 66.0136C18.5558 65.8734 18.6365 65.7495 18.7495 65.6579C18.8572 65.5663 18.9971 65.5124 19.1425 65.507L26.6991 65.1514L24.2717 62.2524C24.1533 62.1178 24.0994 61.9399 24.1156 61.7675C24.1317 61.5843 24.2125 61.4226 24.3524 61.3095C24.487 61.1909 24.6646 61.137 24.8422 61.1532C25.0198 61.1694 25.1813 61.2556 25.2943 61.3903L28.5936 65.3238C28.6743 65.4208 28.7282 65.5339 28.7443 65.6579C28.7605 65.7818 28.7443 65.9112 28.6959 66.0243C28.6474 66.1374 28.5613 66.2398 28.459 66.3099C28.3568 66.3799 28.2383 66.423 28.1092 66.4285L19.6968 66.8218L17.5332 75.4216C17.5062 75.54 17.4417 75.6536 17.3502 75.7397C17.2586 75.8257 17.1456 75.8849 17.0219 75.9118C16.9788 75.9228 16.9339 75.9283 16.8873 75.9283Z" fill="#101014"/>
<path d="M33.7506 85.4915C33.6376 85.4915 33.5245 85.4647 33.4223 85.4055L16.5545 75.846C16.3984 75.7544 16.2853 75.6091 16.2368 75.437C16.1938 75.2697 16.2154 75.081 16.3015 74.9302C16.3876 74.7739 16.5383 74.661 16.7051 74.6121C16.8774 74.564 17.0604 74.5908 17.2164 74.6769L32.6311 83.417L27.4373 65.9533C27.4104 65.867 27.3996 65.7808 27.4104 65.6892C27.4157 65.603 27.4426 65.5168 27.4857 65.436C27.5233 65.3551 27.5826 65.2851 27.6526 65.2312C27.7225 65.1719 27.7979 65.1342 27.884 65.1073C27.9701 65.0803 28.0616 65.0695 28.1477 65.0803C28.2392 65.0911 28.3253 65.118 28.4007 65.1611C28.4814 65.2042 28.5514 65.2635 28.6052 65.3336C28.659 65.4036 28.7021 65.4844 28.7236 65.5707L34.3965 84.635C34.4234 84.7369 34.4288 84.8395 34.4126 84.9421C34.3965 85.044 34.3534 85.1411 34.2888 85.2271C34.2296 85.3139 34.1435 85.3786 34.052 85.4268C33.9605 85.475 33.8582 85.497 33.7506 85.497V85.4915Z" fill="#101014"/>
<path d="M68.3484 23.8965C68.2139 23.8965 68.0847 23.8588 67.9717 23.7779C67.8586 23.7025 67.7725 23.5947 67.7241 23.4708C67.6757 23.3415 67.6649 23.2067 67.6972 23.072C67.7241 22.9427 67.794 22.8242 67.8909 22.7325L70.1189 20.6742C70.2483 20.5557 70.4205 20.491 70.5981 20.4964C70.7758 20.5072 70.9479 20.5826 71.0663 20.7119C71.1902 20.8412 71.2495 21.0191 71.244 21.1968C71.2384 21.3747 71.1579 21.5417 71.0284 21.6603L68.8059 23.7186C68.6821 23.8318 68.5206 23.8965 68.3484 23.8965Z" fill="#101014"/>
<path d="M1.13314 69.6488C1.00397 69.6488 0.880179 69.6116 0.772535 69.5359C0.664889 69.4658 0.578774 69.3688 0.524951 69.2503C0.471129 69.1317 0.454983 68.9971 0.476512 68.8731C0.492659 68.7437 0.551863 68.6252 0.637978 68.5282L3.356 65.5053C3.4152 65.4353 3.48517 65.3707 3.5659 65.3276C3.64664 65.2845 3.73275 65.2575 3.82425 65.2521C3.91575 65.2413 4.00724 65.2521 4.09874 65.2845C4.18486 65.3114 4.26559 65.3599 4.33018 65.4191C4.40014 65.4838 4.45397 65.5538 4.49164 65.6401C4.52932 65.7263 4.55085 65.8125 4.55623 65.9041C4.55623 65.9957 4.54008 66.0873 4.5024 66.1735C4.47011 66.2598 4.41629 66.3352 4.35171 66.3998L1.63369 69.4227C1.5691 69.4925 1.49375 69.5517 1.40764 69.5896C1.32152 69.6275 1.23002 69.6488 1.13314 69.6488Z" fill="#101014"/>
<path d="M82.8574 48.5698H79.6496C79.472 48.5698 79.2998 48.4997 79.1759 48.3704C79.0527 48.2464 78.9824 48.074 78.9824 47.8962C78.9824 47.7184 79.0527 47.546 79.1759 47.4221C79.2998 47.2981 79.472 47.2227 79.6496 47.2227H82.8574C83.0406 47.2227 83.2072 47.2981 83.3367 47.4221C83.4606 47.546 83.5301 47.7184 83.5301 47.8962C83.5301 48.074 83.4606 48.2464 83.3367 48.3704C83.2072 48.4997 83.0406 48.5698 82.8574 48.5698Z" fill="#101014"/>
<path d="M39.1493 20.2031C39.2104 20.9155 39.3106 21.6241 39.4494 22.3255L17.0015 31.4162C16.6144 30.8157 16.1955 30.2363 15.7466 29.6805L39.1493 20.2031Z" fill="#FCF2C8"/>
<path d="M39.9466 11.8379C38.9001 14.8571 38.9509 18.129 39.1469 20.1989C39.208 20.9114 39.3082 21.6199 39.447 22.3214L16.9991 31.4121C16.612 30.8116 16.1931 30.2322 15.7442 29.6764C14.4459 28.0529 12.2119 25.665 9.36133 24.224C9.36133 24.224 22.6324 23.1985 22.3873 12.4952L22.4631 12.6015L22.4437 12.4723C29.6973 20.3374 39.9466 11.8379 39.9466 11.8379Z" fill="#FEE24B"/>
<path d="M39.5336 22.5321L17.0857 31.6228C17.0358 31.643 16.9803 31.6449 16.9291 31.6282C16.8779 31.6115 16.8343 31.5773 16.8057 31.5315C16.4224 30.9406 16.0085 30.3702 15.5656 29.8227C14.2176 28.1381 12.0257 25.8356 9.25863 24.4342C9.21353 24.4119 9.17697 24.3754 9.15466 24.3303C9.13235 24.2852 9.12546 24.2339 9.1351 24.1845C9.14481 24.1351 9.17049 24.0902 9.20816 24.0569C9.24582 24.0236 9.29347 24.0036 9.34366 24C11.2222 23.8005 13.0647 23.3442 14.8196 22.6437C18.2426 21.2574 22.2954 18.3745 22.1598 12.5106C22.1588 12.4617 22.1736 12.4137 22.2019 12.3738C22.2302 12.3337 22.2705 12.3039 22.317 12.2886L22.3468 12.2765C22.3909 12.2552 22.4405 12.2486 22.4886 12.2576C22.5367 12.2666 22.5806 12.2909 22.6139 12.3267C26.5853 16.6275 31.5038 15.8871 34.9268 14.5008C36.6751 13.7851 38.3173 12.8329 39.8073 11.6708C39.8458 11.6385 39.8939 11.6197 39.9442 11.6174C39.9944 11.6152 40.044 11.6295 40.0853 11.6583C40.1266 11.6872 40.1572 11.7287 40.1725 11.7767C40.1878 11.8247 40.1869 11.8764 40.1699 11.9237C39.1509 14.8584 39.1778 18.0377 39.3788 20.1867C39.4407 20.8886 39.5392 21.5867 39.6741 22.2782C39.6836 22.3303 39.6747 22.384 39.6491 22.4303C39.6235 22.4765 39.5827 22.5126 39.5336 22.5321ZM17.0898 31.1268L39.1862 22.1784C39.1263 21.8629 39.0087 21.1708 38.921 20.2234C38.7305 18.1956 38.6923 15.2701 39.5118 12.4625C38.1422 13.4491 36.6625 14.2726 35.1025 14.9163C31.6429 16.3173 26.7193 17.0831 22.6241 12.9869C22.532 18.7788 18.4546 21.6582 14.9951 23.0592C13.4242 23.6838 11.7859 24.123 10.1134 24.368C12.644 25.8189 14.6598 27.9436 15.9221 29.5354C16.516 30.2797 16.9137 30.8582 17.0898 31.1268Z" fill="#333333"/>
<path d="M39.5336 22.5305L16.9067 31.6937L16.8058 31.5299C16.4225 30.939 16.0085 30.3685 15.5655 29.821L15.3721 29.5807L39.3483 19.8711L39.3761 20.1785C39.4379 20.8803 39.5365 21.5784 39.6714 22.27L39.711 22.4586L39.5336 22.5305ZM17.0897 31.1252L39.1862 22.1768C39.1331 21.8971 39.0322 21.318 38.9525 20.5335L16.115 29.782C16.6008 30.4021 16.9338 30.8871 17.0897 31.1252Z" fill="#333333"/>
<path d="M22.0378 11.3638C22.8287 11.0435 23.2106 10.1419 22.8906 9.34991C22.5707 8.55804 21.6701 8.17577 20.879 8.49608C20.0881 8.81645 19.7063 9.71807 20.0262 10.5099C20.3462 11.3018 21.2468 11.6842 22.0378 11.3638Z" fill="#FCF2C8"/>
<path d="M22.1245 11.5726C21.7993 11.7043 21.4424 11.7365 21.0989 11.6651C20.7554 11.5937 20.4407 11.4219 20.1947 11.1715C19.9487 10.9211 19.7824 10.6033 19.7168 10.2582C19.6512 9.91321 19.6894 9.55642 19.8263 9.23309C19.9632 8.90969 20.1929 8.63428 20.4862 8.44156C20.7795 8.24884 21.1233 8.14756 21.4741 8.15045C21.825 8.15341 22.167 8.26041 22.4571 8.45795C22.7472 8.65548 22.9722 8.93475 23.1037 9.26035C23.2792 9.69708 23.2746 10.1855 23.0911 10.6189C22.9076 11.0522 22.56 11.3952 22.1245 11.5726ZM20.9659 8.70485C20.7246 8.80255 20.5176 8.96973 20.3712 9.18517C20.2248 9.40067 20.1455 9.65474 20.1434 9.91535C20.1412 10.1759 20.2163 10.4313 20.3591 10.6492C20.5019 10.867 20.706 11.0376 20.9456 11.1393C21.1853 11.241 21.4497 11.2693 21.7054 11.2207C21.9611 11.1719 22.1966 11.0484 22.3822 10.8656C22.5678 10.6829 22.6951 10.4492 22.748 10.1941C22.8009 9.93889 22.777 9.67381 22.6794 9.43221C22.5475 9.1095 22.2934 8.8522 21.9725 8.71656C21.6516 8.58085 21.2902 8.57789 20.9672 8.70816L20.9659 8.70485Z" fill="#333333"/>
<path d="M41.8312 10.6372C42.6223 10.3169 43.0041 9.4153 42.6841 8.62336C42.3641 7.83148 41.4635 7.44921 40.6726 7.76952C39.8816 8.08989 39.4997 8.99151 39.8197 9.78338C40.1396 10.5753 41.0402 10.9576 41.8312 10.6372Z" fill="#FCF2C8"/>
<path d="M41.9164 10.8486C41.5911 10.98 41.2342 11.0118 40.8908 10.9401C40.5475 10.8684 40.233 10.6965 39.9872 10.4459C39.7415 10.1954 39.5755 9.8775 39.5101 9.53248C39.4447 9.18753 39.483 8.83087 39.6201 8.50761C39.7572 8.18441 39.9869 7.90907 40.2802 7.71656C40.5736 7.52398 40.9173 7.42284 41.2681 7.42585C41.6188 7.42885 41.9608 7.53589 42.2507 7.73343C42.5407 7.93097 42.7657 8.21017 42.8973 8.5357C43.0733 8.97264 43.0688 9.4617 42.8849 9.8954C42.701 10.329 42.3526 10.6719 41.9164 10.8486ZM40.7577 7.98089C40.5164 8.07859 40.3094 8.24576 40.1631 8.4612C40.0166 8.67671 39.9374 8.93078 39.9352 9.19138C39.933 9.45192 40.0081 9.70729 40.1509 9.92521C40.2937 10.1431 40.4978 10.3136 40.7375 10.4154C40.9771 10.5171 41.2415 10.5454 41.4972 10.4967C41.7529 10.4479 41.9885 10.3244 42.174 10.1417C42.3596 9.95895 42.4869 9.72526 42.5398 9.4701C42.5927 9.21493 42.5688 8.94978 42.4712 8.70824C42.34 8.38464 42.0858 8.1263 41.7646 7.98998C41.4434 7.85358 41.0813 7.85034 40.7577 7.98089Z" fill="#333333"/>
<path d="M7.48358 24.4165C8.27456 24.0962 8.65641 23.1946 8.33645 22.4026C8.0165 21.6108 7.11591 21.2285 6.3249 21.5488C5.53392 21.8691 5.15207 22.7708 5.47203 23.5627C5.79199 24.3545 6.6926 24.7368 7.48358 24.4165Z" fill="#FCF2C8"/>
<path d="M7.5733 24.6287C7.24769 24.7606 6.89028 24.7928 6.54636 24.7213C6.20244 24.6498 5.88744 24.4778 5.6412 24.227C5.39496 23.9762 5.22854 23.6579 5.16301 23.3124C5.09748 22.9669 5.13577 22.6098 5.27305 22.286C5.41033 21.9624 5.64042 21.6867 5.93421 21.494C6.22801 21.3012 6.57231 21.2 6.92353 21.2032C7.27482 21.2064 7.61722 21.3138 7.90744 21.5119C8.19772 21.71 8.4228 21.9897 8.55417 22.3159C8.73022 22.7528 8.72575 23.2419 8.54184 23.6756C8.35794 24.1092 8.00955 24.4521 7.5733 24.6287ZM6.41461 21.761C6.17331 21.8587 5.96638 22.0259 5.81997 22.2414C5.67357 22.4569 5.59427 22.7109 5.59211 22.9715C5.58994 23.2321 5.66501 23.4874 5.80782 23.7053C5.95062 23.9232 6.15476 24.0938 6.3944 24.1955C6.63404 24.2972 6.8984 24.3255 7.15412 24.2768C7.40984 24.2281 7.64538 24.1046 7.83094 23.9218C8.01657 23.7391 8.14381 23.5054 8.19675 23.2502C8.24963 22.9951 8.22574 22.7299 8.12818 22.4884C7.99688 22.1647 7.74281 21.9065 7.42154 21.7701C7.10035 21.6337 6.73823 21.6305 6.41461 21.761Z" fill="#333333"/>
</g>
<defs>
<clipPath id="clip0_493_12406">
<rect width="84" height="86.7541" fill="white" transform="translate(0 0.623047)"/>
</clipPath>
</defs>
</svg>
