<svg xmlns="http://www.w3.org/2000/svg" width="16" height="16" fill="none" viewBox="0 0 16 16"><path fill="#fff" d="M13.2 0H2.8A2.8 2.8 0 0 0 0 2.8v10.4A2.8 2.8 0 0 0 2.8 16h10.4a2.8 2.8 0 0 0 2.8-2.8V2.8A2.8 2.8 0 0 0 13.2 0Z"/><path fill="#3858E9" fill-rule="evenodd" d="M8.888 10.174V2.87a.172.172 0 0 0-.077-.154.277.277 0 0 0-.205-.077H7.12v7.944h1.23a.58.58 0 0 0 .384-.129c.12-.085.171-.179.154-.281Zm0 3.151.026-1.255a.422.422 0 0 0-.026-.128v-.026c-.017-.017-.026-.034-.026-.051v-.026a.706.706 0 0 0-.205-.18c-.017-.016-.034-.025-.05-.025a.567.567 0 0 0-.18-.026c0-.017-.009-.025-.026-.025H7.12v1.742h1.768Z" clip-rule="evenodd"/></svg>