<svg xmlns="http://www.w3.org/2000/svg" width="50" height="50" fill="none"><circle cx="25" cy="25" r="25" fill="#1717CC"/><path fill="#fff" d="m27 34.033-.013 2.778H23v-3.86h2.884c.025 0 .044.01.066.013.123.014.244.044.36.09.037.013.074.029.11.044.008.007.018.01.027.016a.9.9 0 0 1 .436.414l.013.022a.752.752 0 0 1 .044.116c.01.026.017.054.021.081.025.094.038.19.039.286Zm-.013-20.508v16.247c0 .253-.116.473-.354.661-.246.19-.55.29-.862.279H23V13h3.327c.167-.003.33.05.463.15a.45.45 0 0 1 .197.375Z"/></svg>