<svg width="84" height="84" viewBox="0 0 84 84" fill="none" xmlns="http://www.w3.org/2000/svg">
<path d="M7 25C7 23.8954 7.89543 23 9 23H28.1496C29.2542 23 30.1496 23.8954 30.1496 25V45.3071C30.1496 46.4117 29.2542 47.3071 28.1496 47.3071H9C7.89543 47.3071 7 46.4117 7 45.3071V25Z" fill="#1717CC"/>
<path d="M27 63.5H5C3.34315 63.5 2 62.1569 2 60.5V18.5M2 18.5V9C2 7.34315 3.34315 6 5 6H66.5C68.1569 6 69.5 7.34315 69.5 9V18.5M2 18.5H69.5M69.5 18.5V30M38 28.5H55.5M38 35.5H49.5M10.5 56H23.5M40.5 63.5H47.5M9 12.5V12.625M14 12.5V12.625M19.5 12.5V12.625" stroke="#1A1A1A" stroke-width="3" stroke-linecap="round"/>
<path d="M80.7036 58.764L78.7144 59.6903C76.9382 60.5174 74.8463 59.6239 74.1926 57.7767C73.2716 55.1734 73.2716 52.3182 74.1926 49.7148C74.8463 47.8677 76.938 46.9739 78.7144 47.8012L80.7036 48.7275C81.7997 49.238 83.0551 48.4376 83.0551 47.2286V40.1868C83.0551 39.2735 82.3148 38.5333 81.4016 38.5333H72.0579C70.8475 38.5333 70.0474 37.2756 70.5601 36.1793L71.4783 34.2159C72.3101 32.4373 71.4148 30.3395 69.5629 29.6878C66.9567 28.7707 64.0989 28.7707 61.4927 29.6878C59.6408 30.3395 58.7456 32.4373 59.5773 34.2159L60.4955 36.1793C61.0083 37.2756 60.2079 38.5333 58.9977 38.5333H49.6535C48.7403 38.5333 48 39.2735 48 40.1868V47.2286C48 48.4378 49.2554 49.238 50.3515 48.7275L52.3409 47.8012C54.1171 46.9741 56.209 47.8677 56.8627 49.7148C57.7837 52.3182 57.7837 55.1734 56.8627 57.7767C56.209 59.6239 54.1173 60.5176 52.3409 59.6903L50.3515 58.764C49.2554 58.2536 48 59.0539 48 60.263V67.3047C48 68.218 48.7403 68.9583 49.6535 68.9583H58.9974C60.2078 68.9583 61.0079 70.216 60.4952 71.3123L59.577 73.2757C58.7452 75.0542 59.6404 77.1521 61.4924 77.8037C64.0986 78.7208 66.9564 78.7208 69.5625 77.8037C71.4145 77.1521 72.3097 75.0542 71.478 73.2757L70.5598 71.3123C70.047 70.216 70.8473 68.9583 72.0576 68.9583H81.4016C82.3148 68.9583 83.0551 68.218 83.0551 67.3047V60.263C83.0551 59.0537 81.7997 58.2536 80.7036 58.764Z" fill="#1717CC"/>
</svg>
