<svg width="40" height="40" viewBox="0 0 40 40" fill="none" xmlns="http://www.w3.org/2000/svg">
<g clip-path="url(#clip0_1042_2479)">
<rect width="40" height="40" fill="#1717CC"/>
<mask id="mask0_1042_2479" style="mask-type:luminance" maskUnits="userSpaceOnUse" x="0" y="0" width="40" height="40">
<path d="M34 0H6C2.68629 0 0 2.68629 0 6V34C0 37.3137 2.68629 40 6 40H34C37.3137 40 40 37.3137 40 34V6C40 2.68629 37.3137 0 34 0Z" fill="white"/>
</mask>
<g mask="url(#mask0_1042_2479)">
<path d="M33 0H7C3.13401 0 0 3.13401 0 7V33C0 36.866 3.13401 40 7 40H33C36.866 40 40 36.866 40 33V7C40 3.13401 36.866 0 33 0Z" fill="#1717CC"/>
<path fill-rule="evenodd" clip-rule="evenodd" d="M20.3896 17.1671C20.4657 17.1313 20.5039 17.0821 20.5039 17.0189V11.5879H21.4808V17.0376C21.4804 17.3427 21.2947 17.5842 20.9237 17.7619L20.7489 17.8452L20.9237 17.9285C21.2951 18.1069 21.4808 18.348 21.4808 18.6519V20.4912H20.5013V18.6755C20.5013 18.6083 20.4631 18.5565 20.387 18.5207L19.7713 18.2833L19.1556 18.5204C19.0795 18.5561 19.0413 18.6079 19.0413 18.6752V20.4908H18.0638V18.6509C18.0638 18.3468 18.2494 18.1057 18.6205 17.9275L18.7954 17.8442L18.6205 17.7609C18.2494 17.583 18.0638 17.3415 18.0638 17.0366V11.5879L19.0387 11.5915V17.0228C19.0387 17.0864 19.0766 17.1366 19.1529 17.1713L19.7713 17.4058L20.3896 17.1671ZM10.6629 11.6129L12.1195 14.7514V11.6129H13.0955V20.5158H12.1195L12.1176 16.3461L10.6629 13.2085V20.5158H9.68699V11.6129H10.6629ZM22.5525 12.373L23.728 12.3724V20.5158H24.7009L24.7049 12.3724H25.8784V11.6129H22.5535L22.5525 12.373ZM34.1672 18.0089C34.1672 18.3805 33.9609 18.6358 33.5485 18.7746C33.9617 18.9166 34.1708 19.1743 34.1731 19.5468V20.5109H33.1962L33.2008 19.5236C33.2007 19.4904 33.1967 19.4574 33.1889 19.4252C33.187 19.4159 33.1845 19.4069 33.1814 19.398C33.1773 19.3844 33.1722 19.3711 33.1662 19.3583L33.1623 19.3511C33.1294 19.2883 33.0763 19.2384 33.0115 19.2094L33.0016 19.2048C32.9894 19.1992 32.9776 19.194 32.9644 19.1894C32.9241 19.1737 32.8819 19.1634 32.8389 19.1589L32.8345 19.1581L32.8301 19.1571C32.8256 19.156 32.821 19.155 32.8162 19.155H31.8215V20.5106H30.845V11.6067H33.1939C33.4833 11.6067 33.64 11.6896 33.8504 11.8536C34.0608 12.0175 34.1672 12.2143 34.1672 12.4438V18.0089ZM33.1601 18.2016C33.1814 18.1624 33.193 18.1187 33.1939 18.0742L33.1952 12.5504C33.1953 12.5252 33.1891 12.5003 33.177 12.4781C33.165 12.4558 33.1476 12.437 33.1264 12.4232C33.0803 12.3891 33.0241 12.3712 32.9667 12.3723H31.8202V18.3945H32.7751C32.8819 18.3977 32.9865 18.3641 33.0714 18.2994C33.1084 18.2743 33.1388 18.2408 33.1601 18.2016ZM14.1691 20.5151H16.9905V19.754H15.1477V18.2288H16.4535V17.4684H15.1477V12.3722H16.9905V11.6118H14.1691V20.5151ZM28.7955 12.374L26.9517 12.373V11.6129H29.7741V20.5158H26.9517V19.7557H28.7945V15.1236H27.4897V14.3625H28.7955V12.374ZM7.13577 19.4473L7.13116 20.4606H5.6709V19.0528H6.72716C6.73263 19.0528 6.73729 19.0541 6.74183 19.0553C6.74493 19.0562 6.74799 19.057 6.75119 19.0574C6.79638 19.0624 6.84068 19.0734 6.8829 19.0902C6.89634 19.0947 6.90947 19.1004 6.92199 19.1058L6.92306 19.1063L6.92817 19.1092C6.92817 19.1092 6.93163 19.111 6.93327 19.1122C7.0023 19.1427 7.05868 19.196 7.09296 19.263C7.09465 19.2657 7.09655 19.2691 7.09655 19.2691L7.09757 19.2709C7.10411 19.2845 7.10951 19.2987 7.11371 19.3132C7.11722 19.3229 7.11986 19.3329 7.12161 19.343C7.13057 19.3771 7.13533 19.4121 7.13577 19.4473ZM7.13116 17.8932V11.9677C7.13134 11.9408 7.12486 11.9142 7.11228 11.8904C7.0997 11.8665 7.08142 11.8461 7.05905 11.831C7.01016 11.7943 6.95034 11.775 6.88915 11.7762H5.6709V18.2362H6.68567C6.7996 18.24 6.91128 18.204 7.00143 18.1345C7.08868 18.0657 7.13116 17.9857 7.13116 17.8932Z" fill="white"/>
<path d="M8.21788 26.3608V26.0527H8.81819C8.93507 26.0527 9.03778 26.0332 9.12632 25.9943C9.21486 25.9553 9.28392 25.9004 9.3335 25.8296C9.38309 25.7552 9.40788 25.6667 9.40788 25.5639C9.40788 25.4081 9.35298 25.2877 9.24319 25.2027C9.1334 25.1177 8.99173 25.0752 8.81819 25.0752H8.36663V27.7633H8.88725C9.02892 27.7633 9.15465 27.7403 9.26444 27.6943C9.37423 27.6482 9.461 27.5792 9.52475 27.4871C9.5885 27.395 9.62038 27.2799 9.62038 27.1418C9.62038 27.0426 9.6009 26.9558 9.56194 26.8814C9.52653 26.8035 9.47517 26.7398 9.40788 26.6902C9.34413 26.6371 9.26798 26.5999 9.17944 26.5786C9.0909 26.5538 8.9935 26.5414 8.88725 26.5414H8.21788V26.1961H8.92444C9.10507 26.1961 9.27507 26.2156 9.43444 26.2546C9.59382 26.2935 9.73548 26.3537 9.85944 26.4352C9.98694 26.5167 10.0861 26.6211 10.1569 26.7486C10.2277 26.8761 10.2632 27.0284 10.2632 27.2055C10.2632 27.4499 10.2047 27.6518 10.0878 27.8111C9.97455 27.9705 9.81694 28.0892 9.61507 28.1671C9.41673 28.2414 9.18653 28.2786 8.92444 28.2786H7.73975V24.5599H8.86069C9.09444 24.5599 9.29986 24.5935 9.47694 24.6608C9.65757 24.7281 9.79746 24.8308 9.89663 24.9689C9.99934 25.1071 10.0507 25.2824 10.0507 25.4949C10.0507 25.679 9.99934 25.8367 9.89663 25.9677C9.79746 26.0952 9.65757 26.1926 9.47694 26.2599C9.29986 26.3272 9.09444 26.3608 8.86069 26.3608H8.21788ZM11.9876 24.5599H12.6145V27.7155H14.0914V28.2786H11.9876V24.5599ZM15.8986 26.4193C15.8986 26.6743 15.9517 26.9027 16.0579 27.1046C16.1677 27.3029 16.3182 27.4587 16.5095 27.5721C16.7007 27.6854 16.9186 27.7421 17.1629 27.7421C17.4108 27.7421 17.6287 27.6854 17.8164 27.5721C18.0076 27.4587 18.1564 27.3029 18.2626 27.1046C18.3724 26.9027 18.4273 26.6743 18.4273 26.4193C18.4273 26.1643 18.3742 25.9376 18.2679 25.7393C18.1617 25.5374 18.0129 25.3798 17.8217 25.2664C17.634 25.1531 17.4144 25.0964 17.1629 25.0964C16.9186 25.0964 16.7007 25.1531 16.5095 25.2664C16.3182 25.3798 16.1677 25.5374 16.0579 25.7393C15.9517 25.9376 15.8986 26.1643 15.8986 26.4193ZM15.2345 26.4193C15.2345 26.1395 15.2823 25.8827 15.3779 25.6489C15.4736 25.4152 15.6081 25.2133 15.7817 25.0433C15.9588 24.8698 16.1642 24.7352 16.3979 24.6396C16.6352 24.5439 16.8902 24.4961 17.1629 24.4961C17.4427 24.4961 17.6995 24.5439 17.9332 24.6396C18.167 24.7352 18.3706 24.8698 18.5442 25.0433C18.7213 25.2133 18.8576 25.4152 18.9532 25.6489C19.0489 25.8827 19.0967 26.1395 19.0967 26.4193C19.0967 26.6955 19.0489 26.9523 18.9532 27.1896C18.8576 27.4269 18.723 27.6323 18.5495 27.8058C18.3759 27.9794 18.1705 28.1157 17.9332 28.2149C17.6995 28.3105 17.4427 28.3583 17.1629 28.3583C16.8867 28.3583 16.6299 28.3105 16.3926 28.2149C16.1553 28.1157 15.9499 27.9794 15.7764 27.8058C15.6064 27.6323 15.4736 27.4269 15.3779 27.1896C15.2823 26.9523 15.2345 26.6955 15.2345 26.4193ZM21.231 26.4193C21.231 26.6813 21.2895 26.9115 21.4063 27.1099C21.5267 27.3082 21.6826 27.4623 21.8738 27.5721C22.0686 27.6783 22.2793 27.7314 22.506 27.7314C22.6831 27.7314 22.8425 27.7084 22.9841 27.6624C23.1258 27.6163 23.2533 27.5544 23.3666 27.4764C23.4835 27.395 23.5845 27.3047 23.6695 27.2055V27.9493C23.5136 28.0768 23.3454 28.1742 23.1648 28.2414C22.9841 28.3087 22.7575 28.3424 22.4848 28.3424C22.2121 28.3424 21.9571 28.2963 21.7198 28.2043C21.486 28.1122 21.2824 27.9794 21.1088 27.8058C20.9353 27.6323 20.7989 27.4286 20.6998 27.1949C20.6041 26.9576 20.5563 26.699 20.5563 26.4193C20.5563 26.1395 20.6041 25.8827 20.6998 25.6489C20.7989 25.4117 20.9353 25.2062 21.1088 25.0327C21.2824 24.8592 21.486 24.7263 21.7198 24.6343C21.9571 24.5422 22.2121 24.4961 22.4848 24.4961C22.7575 24.4961 22.9841 24.5298 23.1648 24.5971C23.3454 24.6644 23.5136 24.7618 23.6695 24.8893V25.633C23.5845 25.5338 23.4835 25.4453 23.3666 25.3674C23.2533 25.2859 23.1258 25.2222 22.9841 25.1761C22.8425 25.1301 22.6831 25.1071 22.506 25.1071C22.2793 25.1071 22.0686 25.162 21.8738 25.2718C21.6826 25.378 21.5267 25.5303 21.4063 25.7286C21.2895 25.9234 21.231 26.1536 21.231 26.4193ZM25.5044 24.5599H26.1472V28.2786H25.5044V24.5599ZM27.5285 24.5599H28.2829L26.7157 26.3024L28.3625 28.2786H27.5922L25.956 26.3183L27.5285 24.5599ZM30.1005 27.0833C30.1819 27.225 30.2687 27.3507 30.3608 27.4605C30.4564 27.5668 30.5609 27.65 30.6742 27.7102C30.7876 27.7669 30.9151 27.7952 31.0567 27.7952C31.2267 27.7952 31.3649 27.7492 31.4711 27.6571C31.5774 27.565 31.6305 27.4463 31.6305 27.3011C31.6305 27.163 31.5968 27.0532 31.5295 26.9718C31.4623 26.8868 31.3684 26.8159 31.248 26.7593C31.1311 26.699 30.9948 26.6406 30.8389 26.5839C30.7468 26.5521 30.6441 26.5096 30.5308 26.4564C30.4175 26.3998 30.3094 26.3307 30.2067 26.2493C30.104 26.1643 30.019 26.0615 29.9517 25.9411C29.8844 25.8172 29.8508 25.6684 29.8508 25.4949C29.8508 25.2965 29.9022 25.123 30.0049 24.9743C30.1076 24.822 30.2457 24.7051 30.4192 24.6236C30.5963 24.5386 30.7964 24.4961 31.0195 24.4961C31.2391 24.4961 31.4304 24.5351 31.5933 24.613C31.7562 24.6909 31.8926 24.7901 32.0024 24.9105C32.1157 25.0309 32.2042 25.1567 32.268 25.2877L31.758 25.5746C31.7119 25.4825 31.6535 25.3975 31.5827 25.3196C31.5118 25.2381 31.4286 25.1744 31.333 25.1283C31.2409 25.0787 31.1329 25.0539 31.0089 25.0539C30.8354 25.0539 30.7079 25.0947 30.6264 25.1761C30.545 25.254 30.5042 25.3461 30.5042 25.4524C30.5042 25.548 30.5326 25.6348 30.5892 25.7127C30.6494 25.7871 30.7415 25.8579 30.8655 25.9252C30.9894 25.9925 31.1506 26.0615 31.3489 26.1324C31.4587 26.1713 31.5685 26.2209 31.6783 26.2811C31.7916 26.3413 31.8943 26.4175 31.9864 26.5096C32.0785 26.5981 32.1511 26.7026 32.2042 26.823C32.2609 26.9434 32.2892 27.0851 32.2892 27.248C32.2892 27.4215 32.2556 27.5774 32.1883 27.7155C32.121 27.8536 32.0289 27.9705 31.912 28.0661C31.7952 28.1582 31.6624 28.229 31.5136 28.2786C31.3684 28.3318 31.2161 28.3583 31.0567 28.3583C30.8372 28.3583 30.6335 28.3158 30.4458 28.2308C30.2616 28.1423 30.1005 28.0254 29.9624 27.8802C29.8242 27.735 29.7144 27.5774 29.633 27.4074L30.1005 27.0833Z" fill="white"/>
</g>
</g>
<defs>
<clipPath id="clip0_1042_2479">
<rect width="40" height="40" fill="white"/>
</clipPath>
</defs>
</svg>
