<svg width="17" height="17" viewBox="0 0 17 17" fill="none" xmlns="http://www.w3.org/2000/svg">
<path d="M6.96986 9.32627C6.91962 9.32627 5.8657 9.32659 5.37962 9.32611C5.12938 9.32595 5.0401 9.23603 5.0401 8.98419C5.03978 8.33731 5.03962 7.69043 5.0401 7.04355C5.04026 6.79491 5.13466 6.70003 5.3817 6.69987C5.86778 6.69955 6.91594 6.69971 6.96986 6.69971C6.96986 6.65539 6.9697 5.72147 6.96986 5.29139C6.97018 4.65555 7.08362 4.04691 7.40666 3.48963C7.73738 2.91923 8.21866 2.52851 8.83546 2.30259C9.2305 2.15779 9.64058 2.10003 10.0598 2.09971C10.5843 2.09939 11.1087 2.09987 11.6334 2.10083C11.8588 2.10115 11.9588 2.20083 11.9593 2.42787C11.9603 3.03635 11.9603 3.64483 11.9593 4.25315C11.959 4.48259 11.8631 4.57475 11.6326 4.57731C11.2027 4.58195 10.7724 4.57907 10.343 4.59635C9.90922 4.59635 9.68106 4.80819 9.68106 5.25715C9.67066 5.73203 9.67674 6.20739 9.67674 6.69955C9.71738 6.69955 10.9518 6.69939 11.5287 6.69955C11.7908 6.69955 11.8804 6.78963 11.8804 7.05315C11.8804 7.69651 11.8803 8.34003 11.8798 8.98339C11.8796 9.24307 11.7955 9.32595 11.5318 9.32611C10.9548 9.32643 9.72522 9.32627 9.67146 9.32627V14.5335C9.67146 14.8111 9.5841 14.8995 9.31018 14.8995C8.64234 14.8995 7.97434 14.8997 7.3065 14.8995C7.06442 14.8995 6.97002 14.8055 6.97002 14.5634C6.96986 12.8675 6.96986 9.38579 6.96986 9.32627Z" fill="#1E60E4"/>
</svg>
