<svg width="16" height="17" viewBox="0 0 16 17" fill="none" xmlns="http://www.w3.org/2000/svg">
<path d="M4.43686 9.83492L3.99131 11.4982L2.36283 11.5327C1.87615 10.63 1.6001 9.59722 1.6001 8.49971C1.6001 7.43843 1.8582 6.43763 2.3157 5.5564L3.76586 5.8222L4.40096 7.26331C4.26804 7.65084 4.19559 8.06684 4.19559 8.49971C4.19564 8.96952 4.28074 9.41964 4.43686 9.83492Z" fill="#FBBB00"/>
<path d="M14.2884 7.30406C14.3619 7.69122 14.4002 8.09104 14.4002 8.49967C14.4002 8.95787 14.352 9.40483 14.2603 9.83595C13.9487 11.303 13.1346 12.5841 12.0069 13.4906L10.1804 13.3971L9.922 11.7837C10.6703 11.3449 11.2551 10.6581 11.5632 9.83595H8.14089V7.30406H14.2884Z" fill="#518EF8"/>
<path d="M12.0069 13.4906C10.9101 14.3722 9.51683 14.8996 8.00017 14.8996C5.56288 14.8996 3.44381 13.5374 2.36283 11.5327L4.43686 9.83492C4.97734 11.2774 6.36886 12.3041 8.00017 12.3041C8.70135 12.3041 9.35832 12.1146 9.922 11.7837L12.0069 13.4906Z" fill="#28B446"/>
<path d="M12.0853 3.57302L10.0119 5.27043C9.42857 4.90577 8.73896 4.69512 8.00016 4.69512C6.33192 4.69512 4.91437 5.76913 4.40096 7.26331L2.3157 5.5564C3.38086 3.50276 5.52664 2.09961 8.00016 2.09961C9.55304 2.09961 10.9769 2.65276 12.0853 3.57302Z" fill="#F14336"/>
</svg>
