<svg width="200" height="97" viewBox="0 0 200 97" fill="none" xmlns="http://www.w3.org/2000/svg">
<g clip-path="url(#clip0_2226_388)">
<path d="M30.1021 51.8288H36.2428V40.5925H47.1899C48.5546 40.5925 49.2369 41.2625 49.2369 42.6023V51.8288H55.3776V43.8421C55.3776 41.7801 55.0192 40.1575 54.3023 38.97C53.5855 37.7867 52.4282 36.9167 50.8217 36.3686C52.29 35.6813 53.4127 34.5242 54.1987 32.8885C54.9846 31.2572 55.3733 29.2736 55.3733 26.9376V26.2677H49.2325V27.4509C49.2325 30.0262 48.6712 31.9359 47.544 33.1713C46.4169 34.4067 44.6594 35.0288 42.2756 35.0288H36.2385V21.5783H30.1021V51.8288ZM63.1507 24.2579C64.2778 24.2579 65.1976 23.9143 65.9145 23.227C66.6314 22.5396 66.9898 21.6479 66.9898 20.5473C66.9898 19.4467 66.64 18.555 65.9404 17.8676C65.2408 17.1803 64.3124 16.8367 63.1507 16.8367C61.9891 16.8367 61.1038 17.1803 60.387 17.8676C59.6701 18.555 59.3117 19.4467 59.3117 20.5473C59.3117 21.6479 59.6701 22.5396 60.387 23.227C61.1038 23.9143 62.0236 24.2579 63.1507 24.2579ZM161.943 46.5739H152.222C150.857 46.5739 150.175 45.904 150.175 44.5642V33.5367C150.175 32.1969 150.857 31.5269 152.222 31.5269H161.943C163.307 31.5269 163.99 32.1969 163.99 33.5367V44.5642C163.99 45.904 163.307 46.5739 161.943 46.5739ZM155.75 52.551C157.624 52.551 159.244 52.2508 160.613 51.6505C161.977 51.0502 163.221 50.0975 164.348 48.7881V51.8288H170.13V26.2677H164.348V29.3084C163.221 28.0034 161.977 27.0507 160.613 26.446C159.248 25.8457 157.629 25.5456 155.75 25.5456C151.894 25.5456 148.892 26.7723 146.746 29.2301C144.596 31.6879 143.525 34.9592 143.525 39.0483C143.525 43.1374 144.6 46.4086 146.746 48.8664C148.897 51.3242 151.898 52.551 155.75 52.551ZM137.332 51.8288H142.601V46.3651H137.073C135.708 46.3651 135.026 45.6952 135.026 44.3554V31.727H142.596V26.2633H135.026V20.7474H129.399V24.097C129.399 25.5412 128.717 26.2633 127.352 26.2633H123.924V31.727H128.885V43.4767C128.885 46.0867 129.628 48.1313 131.109 49.6103C132.595 51.0893 134.663 51.8245 137.323 51.8245M100.742 51.8245H112.817C119.739 51.8245 123.202 49.3319 123.202 44.351C123.202 42.0846 122.529 40.3576 121.181 39.1701C119.834 37.9868 117.61 37.169 114.505 36.721L109.388 35.9466C107.92 35.7074 106.965 35.4551 106.525 35.1984C106.08 34.9418 105.86 34.485 105.86 33.8325V33.367C105.86 32.7841 106.015 32.3622 106.322 32.1055C106.628 31.8489 107.155 31.7183 107.907 31.7183H121.514V26.2546H110.26C106.779 26.2546 104.154 26.8984 102.379 28.1861C100.604 29.4737 99.7189 31.3921 99.7189 33.9325C99.7189 36.1337 100.41 37.8172 101.792 38.983C103.174 40.1532 105.432 40.9754 108.572 41.4582L113.533 42.1803C114.591 42.3195 115.356 42.4544 115.835 42.5936C116.31 42.7328 116.638 42.9198 116.807 43.1591C116.975 43.3984 117.062 43.742 117.062 44.1901V44.7034C117.062 45.2863 116.897 45.7083 116.574 45.9649C116.25 46.2216 115.732 46.3521 115.015 46.3521H100.742V51.8158V51.8245ZM71.3255 51.8245H77.4662V33.528C77.4662 32.1882 78.1485 31.5182 79.5131 31.5182H88.4652C89.8298 31.5182 90.5121 32.1882 90.5121 33.528V51.8245H96.6528V34.4067C96.6528 31.727 95.7762 29.5781 94.0186 27.9642C92.261 26.3503 89.7477 25.5412 86.4744 25.5412C84.4966 25.5412 82.6958 25.8675 81.0764 26.52C79.457 27.1725 78.1356 28.0991 77.1121 29.304V26.2633H71.3298V51.8245H71.3255ZM60.0717 51.8245H66.2125V26.2677H60.0717V51.8288V51.8245Z" fill="#261E1E"/>
</g>
<g clip-path="url(#clip1_2226_388)">
<path d="M39.4891 67.7135H44.003C45.3617 67.7135 46.3581 68.106 46.9921 68.8759C47.6262 69.6458 47.8376 70.7177 47.6111 72.1066C47.5205 72.6802 47.3545 73.1935 47.128 73.6615C46.9016 74.1295 46.5845 74.5673 46.192 74.9598C45.7391 75.4278 45.2258 75.7751 44.6522 75.9713C44.0785 76.1676 43.3539 76.2732 42.4632 76.2732H40.4553L39.9571 79.368H37.6021L39.4891 67.7135ZM41.5423 69.5552L40.7572 74.4466H42.1914C43.1425 74.4466 43.837 74.2503 44.2899 73.8729C44.7428 73.4804 45.0447 72.8463 45.1956 71.9405C45.3315 71.0649 45.256 70.461 44.9541 70.0987C44.6522 69.7364 44.0483 69.5552 43.1576 69.5552H41.5423ZM50.253 64.6187H52.5779L52.0797 67.7135H54.1479C55.4463 67.7135 56.3521 67.955 56.8653 68.4532C57.3635 68.9514 57.5296 69.7515 57.3484 70.8385L56.4728 76.2732H54.1027L54.933 71.1102C55.0235 70.5214 54.9783 70.1289 54.7971 69.9176C54.6159 69.7062 54.2234 69.6005 53.6196 69.6005H51.7627L50.6757 76.2883H48.3508L50.2379 64.6337M59.8847 67.7286H64.3985C65.7572 67.7286 66.7536 68.1211 67.3877 68.891C68.0217 69.6609 68.2331 70.7328 68.0066 72.1217C67.9161 72.6953 67.75 73.2086 67.5235 73.6766C67.282 74.1446 66.9801 74.5824 66.5876 74.9749C66.1347 75.4429 65.6214 75.7901 65.0477 75.9864C64.474 76.1827 63.7494 76.2883 62.8587 76.2883H60.8508L60.3527 79.3831H57.9976L59.8847 67.7286ZM61.9378 69.5703L61.1528 74.4616H62.587C63.538 74.4616 64.2325 74.2654 64.6854 73.888C65.1383 73.5106 65.4402 72.8614 65.5912 71.9556C65.7271 71.08 65.6516 70.4761 65.3496 70.1138C65.0477 69.7515 64.4438 69.5703 63.5531 69.5703H61.9378Z" fill="#261E1E"/>
<path d="M71.9922 62.1428H76.5061L78.4837 72.9822L83.9789 62.1428H88.4777L86.1981 76.2733H83.1788L85.2017 65.2678L79.6613 76.2733H76.4004L74.3171 65.147L72.8225 76.2733H69.6975L71.9922 62.1428ZM93.8974 73.9786H96.177L97.4904 65.8868H100.329L98.6981 75.9864C98.4717 77.3602 97.9735 78.3717 97.2035 79.0359C96.4336 79.7002 95.3618 80.0323 94.0031 80.0323H88.4475L88.7947 77.9339H93.8672C94.4107 77.9339 94.8485 77.8131 95.1806 77.5565C95.5127 77.2998 95.7241 76.9375 95.7996 76.4544L95.8298 76.2733H93.3237C91.7235 76.2733 90.6214 75.9713 90.0478 75.3524C89.459 74.7334 89.2929 73.7219 89.5194 72.2878L90.561 65.8868H93.369L92.3726 72.0764C92.2519 72.8614 92.2821 73.3747 92.4934 73.6163C92.6897 73.8578 93.1879 73.9786 93.9578 73.9786M107.952 62.1428H111.213L115.169 76.2733H111.742L110.941 72.9067H104.586L102.744 76.2733H99.4831L107.952 62.1428ZM109.009 64.9508L105.99 70.3856H110.353L109.009 64.9508ZM125.857 76.2733H120.407C118.762 76.2733 117.554 75.8053 116.784 74.8693C116.014 73.9333 115.757 72.635 116.029 70.9592C116.135 70.2799 116.331 69.6458 116.618 69.0722C116.905 68.4985 117.282 67.9701 117.75 67.5021C118.309 66.9285 118.928 66.5208 119.622 66.2793C120.316 66.0378 121.192 65.9019 122.264 65.9019H124.694L125.329 62.1428H128.152L125.872 76.2733H125.857ZM123.396 74.0541L124.347 68.1362H122.626C121.479 68.1362 120.618 68.3626 120.06 68.8306C119.501 69.2986 119.139 70.0685 118.958 71.1555C118.792 72.2123 118.882 72.952 119.26 73.3898C119.637 73.8276 120.362 74.0541 121.434 74.0541H123.381M129.993 65.9019H140.878C142.463 65.9019 143.55 66.2038 144.139 66.7926C144.743 67.3813 144.924 68.3626 144.713 69.6911L143.656 76.2733H140.803L141.814 70.0535C141.935 69.2835 141.905 68.7853 141.693 68.5438C141.497 68.3022 141.029 68.1815 140.274 68.1815H138.689L137.376 76.2733H134.477L135.791 68.1815H132.484L131.171 76.2733H128.318L129.993 65.9019ZM151.038 64.7243H148.064L148.487 62.1579H151.461L151.038 64.7243ZM149.166 76.2733H146.192L147.868 65.9019H150.842L149.166 76.2733ZM153.287 65.9019H158.617C160.232 65.9019 161.334 66.1887 161.923 66.7775C162.512 67.3663 162.708 68.3324 162.481 69.6911L161.425 76.2733H158.586L159.598 70.0233C159.719 69.2533 159.673 68.74 159.462 68.5136C159.251 68.2871 158.768 68.1664 158.013 68.1664H155.733L154.42 76.2582H151.582L153.257 65.8868" fill="#261E1E"/>
</g>
<defs>
<clipPath id="clip0_2226_388">
<rect width="140.028" height="35.7143" fill="white" transform="translate(30.1021 16.8367)"/>
</clipPath>
<clipPath id="clip1_2226_388">
<rect width="125" height="17.8895" fill="white" transform="translate(37.6021 62.1426)"/>
</clipPath>
</defs>
</svg>
