<svg width="127" height="100" viewBox="0 0 127 100" fill="none" xmlns="http://www.w3.org/2000/svg">
<rect x="0.25" y="0.25" width="126.5" height="99.5" rx="2.75" stroke="#8F8F8F" stroke-opacity="0.65" stroke-width="0.5"/>
<path d="M19.7031 28H16.7344V22.3984H19.5781V22.9922H17.3906V24.8555H19.4141V25.4453H17.3906V27.4062H19.7031V28ZM26.535 28H25.8944V25.7031C25.8944 25.2604 25.8254 24.9401 25.6873 24.7422C25.5519 24.5443 25.3228 24.4453 24.9998 24.4453C24.7264 24.4453 24.4933 24.5703 24.3006 24.8203C24.1105 25.0703 24.0155 25.3698 24.0155 25.7188V28H23.3748V25.625C23.3748 24.8385 23.0715 24.4453 22.4647 24.4453C22.1834 24.4453 21.9517 24.5638 21.7694 24.8008C21.5871 25.0352 21.4959 25.3411 21.4959 25.7188V28H20.8553V24H21.4959V24.6328H21.5116C21.7954 24.1484 22.2095 23.9062 22.7537 23.9062C23.0272 23.9062 23.2655 23.9831 23.4686 24.1367C23.6717 24.2878 23.811 24.487 23.8866 24.7344C24.1834 24.1823 24.6261 23.9062 25.2147 23.9062C26.0949 23.9062 26.535 24.4492 26.535 25.5352V28ZM30.7692 28H30.1286V27.375H30.113C29.8343 27.8542 29.4242 28.0938 28.8825 28.0938C28.4841 28.0938 28.1716 27.9883 27.945 27.7773C27.721 27.5664 27.6091 27.2865 27.6091 26.9375C27.6091 26.1901 28.0492 25.7552 28.9294 25.6328L30.1286 25.4648C30.1286 24.7852 29.8539 24.4453 29.3044 24.4453C28.8226 24.4453 28.3877 24.6094 27.9997 24.9375V24.2812C28.3929 24.0312 28.846 23.9062 29.3591 23.9062C30.2992 23.9062 30.7692 24.4036 30.7692 25.3984V28ZM30.1286 25.9766L29.1637 26.1094C28.8669 26.151 28.6429 26.2253 28.4919 26.332C28.3408 26.4362 28.2653 26.6224 28.2653 26.8906C28.2653 27.0859 28.3343 27.2461 28.4723 27.3711C28.613 27.4935 28.7992 27.5547 29.0309 27.5547C29.3486 27.5547 29.6104 27.444 29.8161 27.2227C30.0244 26.9987 30.1286 26.7161 30.1286 26.375V25.9766ZM32.4644 22.9844C32.3498 22.9844 32.2521 22.9453 32.1714 22.8672C32.0907 22.7891 32.0503 22.6901 32.0503 22.5703C32.0503 22.4505 32.0907 22.3516 32.1714 22.2734C32.2521 22.1927 32.3498 22.1523 32.4644 22.1523C32.5816 22.1523 32.6805 22.1927 32.7612 22.2734C32.8446 22.3516 32.8862 22.4505 32.8862 22.5703C32.8862 22.6849 32.8446 22.7826 32.7612 22.8633C32.6805 22.944 32.5816 22.9844 32.4644 22.9844ZM32.7769 28H32.1362V24H32.7769V28ZM34.8744 28H34.2337V22.0781H34.8744V28ZM41.085 23.6875L40.0147 23.9062L40.7569 24.8555L40.3272 25.1523L39.7178 24.1172L39.1006 25.1523L38.6709 24.8555L39.4131 23.9062L38.335 23.6875L38.5108 23.1992L39.5342 23.5859L39.4444 22.3984H39.9834L39.8936 23.5859L40.9209 23.1992L41.085 23.6875Z" fill="#9AA6AE"/>
<rect x="16.5" y="32.5" width="95" height="17" rx="1.5" stroke="#CED2D4"/>
<rect x="16" y="59" width="54" height="18" rx="2" fill="#9AA6AE"/>
<path d="M29.9336 70.7773V69.8203C30.0195 69.8984 30.1211 69.9688 30.2383 70.0312C30.3581 70.0938 30.4844 70.1471 30.6172 70.1914C30.75 70.2331 30.8828 70.2656 31.0156 70.2891C31.1484 70.3125 31.2708 70.3242 31.3828 70.3242C31.7734 70.3242 32.0638 70.2591 32.2539 70.1289C32.4466 69.9987 32.543 69.8099 32.543 69.5625C32.543 69.4297 32.5104 69.3151 32.4453 69.2188C32.3828 69.1198 32.2943 69.0299 32.1797 68.9492C32.0651 68.8685 31.9297 68.7917 31.7734 68.7188C31.6198 68.6432 31.4544 68.5651 31.2773 68.4844C31.0872 68.3828 30.9102 68.2799 30.7461 68.1758C30.582 68.0716 30.4388 67.957 30.3164 67.832C30.1966 67.7044 30.1016 67.5612 30.0312 67.4023C29.9635 67.2435 29.9297 67.0573 29.9297 66.8438C29.9297 66.5807 29.9883 66.3529 30.1055 66.1602C30.2253 65.9648 30.3815 65.8047 30.5742 65.6797C30.7695 65.5521 30.9909 65.4583 31.2383 65.3984C31.4857 65.3359 31.7383 65.3047 31.9961 65.3047C32.582 65.3047 33.0091 65.3711 33.2773 65.5039V66.4219C32.9596 66.1927 32.5508 66.0781 32.0508 66.0781C31.9128 66.0781 31.7747 66.0911 31.6367 66.1172C31.5013 66.1432 31.3789 66.1862 31.2695 66.2461C31.1628 66.306 31.0755 66.3828 31.0078 66.4766C30.9401 66.5703 30.9062 66.6836 30.9062 66.8164C30.9062 66.9414 30.9323 67.0495 30.9844 67.1406C31.0365 67.2318 31.112 67.3151 31.2109 67.3906C31.3125 67.4661 31.4349 67.5404 31.5781 67.6133C31.724 67.6836 31.8919 67.7604 32.082 67.8438C32.2773 67.9453 32.4609 68.0521 32.6328 68.1641C32.8073 68.276 32.9596 68.3997 33.0898 68.5352C33.2227 68.6706 33.3268 68.8216 33.4023 68.9883C33.4805 69.1523 33.5195 69.3398 33.5195 69.5508C33.5195 69.8346 33.4622 70.0742 33.3477 70.2695C33.2331 70.4648 33.0781 70.6237 32.8828 70.7461C32.6901 70.8685 32.4674 70.957 32.2148 71.0117C31.9622 71.0664 31.6953 71.0938 31.4141 71.0938C31.3203 71.0938 31.2044 71.0859 31.0664 71.0703C30.931 71.0573 30.7917 71.0365 30.6484 71.0078C30.5052 70.9818 30.3698 70.9492 30.2422 70.9102C30.1146 70.8711 30.0117 70.8268 29.9336 70.7773ZM38.0975 71H37.1912V70.3672H37.1756C36.9126 70.8516 36.5037 71.0938 35.9491 71.0938C35.0037 71.0938 34.5311 70.526 34.5311 69.3906V67H35.4373V69.2969C35.4373 70.0156 35.7147 70.375 36.2694 70.375C36.5376 70.375 36.7577 70.276 36.9295 70.0781C37.104 69.8802 37.1912 69.6211 37.1912 69.3008V67H38.0975V71ZM40.363 70.4219H40.3473V71H39.4411V65.0781H40.3473V67.7031H40.363C40.6729 67.1719 41.126 66.9062 41.7223 66.9062C42.2276 66.9062 42.6221 67.0859 42.9059 67.4453C43.1924 67.8021 43.3356 68.2812 43.3356 68.8828C43.3356 69.5521 43.1755 70.0885 42.8552 70.4922C42.5348 70.8932 42.0973 71.0938 41.5427 71.0938C41.0218 71.0938 40.6286 70.8698 40.363 70.4219ZM40.3395 68.832V69.3281C40.3395 69.6198 40.432 69.8672 40.6169 70.0703C40.8044 70.2734 41.0414 70.375 41.3278 70.375C41.6637 70.375 41.9268 70.2448 42.1169 69.9844C42.3096 69.7214 42.4059 69.3555 42.4059 68.8867C42.4059 68.4935 42.3161 68.1862 42.1364 67.9648C41.9593 67.7409 41.7184 67.6289 41.4137 67.6289C41.0908 67.6289 40.8304 67.7435 40.6325 67.9727C40.4372 68.2018 40.3395 68.4883 40.3395 68.832ZM50.4019 71H49.4956V68.8203C49.4956 68.401 49.4357 68.0977 49.3159 67.9102C49.1987 67.7227 48.9995 67.6289 48.7183 67.6289C48.4813 67.6289 48.2795 67.7474 48.1128 67.9844C47.9487 68.2214 47.8667 68.5052 47.8667 68.8359V71H46.9566V68.7461C46.9566 68.0013 46.6935 67.6289 46.1675 67.6289C45.9227 67.6289 45.7209 67.7409 45.562 67.9648C45.4058 68.1888 45.3277 68.4792 45.3277 68.8359V71H44.4214V67H45.3277V67.6328H45.3433C45.6323 67.1484 46.0529 66.9062 46.605 66.9062C46.881 66.9062 47.1219 66.9831 47.3277 67.1367C47.536 67.2878 47.6779 67.487 47.7534 67.7344C48.0503 67.1823 48.493 66.9062 49.0816 66.9062C49.9618 66.9062 50.4019 67.4492 50.4019 68.5352V71ZM52.1244 66.1602C51.9759 66.1602 51.8483 66.112 51.7416 66.0156C51.6374 65.9193 51.5853 65.7969 51.5853 65.6484C51.5853 65.5 51.6374 65.3763 51.7416 65.2773C51.8483 65.1784 51.9759 65.1289 52.1244 65.1289C52.278 65.1289 52.4082 65.1784 52.515 65.2773C52.6218 65.3763 52.6752 65.5 52.6752 65.6484C52.6752 65.7891 52.6218 65.9102 52.515 66.0117C52.4082 66.1107 52.278 66.1602 52.1244 66.1602ZM52.5736 71H51.6673V67H52.5736V71ZM56.0305 70.957C55.8534 71.0456 55.6203 71.0898 55.3312 71.0898C54.5552 71.0898 54.1672 70.7174 54.1672 69.9727V67.7109H53.4992V67H54.1672V66.0742L55.0734 65.8164V67H56.0305V67.7109H55.0734V69.7109C55.0734 69.9479 55.1164 70.1172 55.2023 70.2188C55.2883 70.3203 55.4315 70.3711 55.632 70.3711C55.7857 70.3711 55.9185 70.3268 56.0305 70.2383V70.957Z" fill="white"/>
</svg>
