<svg width="127" height="100" viewBox="0 0 127 100" fill="none" xmlns="http://www.w3.org/2000/svg">
<rect x="12.5" y="38.5" width="65" height="22" rx="1.5" stroke="#CED2D4"/>
<path d="M26.6289 53H22.918V45.998H26.4727V46.7402H23.7383V49.0693H26.2676V49.8066H23.7383V52.2578H26.6289V53ZM34.9688 53H34.168V50.1289C34.168 49.5755 34.0817 49.1751 33.9092 48.9277C33.7399 48.6803 33.4535 48.5566 33.0498 48.5566C32.708 48.5566 32.4167 48.7129 32.1758 49.0254C31.9382 49.3379 31.8193 49.7122 31.8193 50.1484V53H31.0186V50.0312C31.0186 49.0482 30.6393 48.5566 29.8809 48.5566C29.5293 48.5566 29.2396 48.7048 29.0117 49.001C28.7839 49.2939 28.6699 49.6764 28.6699 50.1484V53H27.8691V48H28.6699V48.791H28.6895C29.0443 48.1855 29.5618 47.8828 30.2422 47.8828C30.584 47.8828 30.8818 47.9788 31.1357 48.1709C31.3896 48.3597 31.5638 48.6087 31.6582 48.918C32.0293 48.2279 32.5827 47.8828 33.3184 47.8828C34.4186 47.8828 34.9688 48.5615 34.9688 49.9189V53ZM40.0615 53H39.2607V52.2188H39.2412C38.8929 52.8177 38.3802 53.1172 37.7031 53.1172C37.2051 53.1172 36.8145 52.9854 36.5312 52.7217C36.2513 52.458 36.1113 52.1081 36.1113 51.6719C36.1113 50.7376 36.6615 50.194 37.7617 50.041L39.2607 49.8311C39.2607 48.9814 38.9173 48.5566 38.2305 48.5566C37.6283 48.5566 37.0846 48.7617 36.5996 49.1719V48.3516C37.0911 48.0391 37.6576 47.8828 38.2988 47.8828C39.474 47.8828 40.0615 48.5046 40.0615 49.748V53ZM39.2607 50.4707L38.0547 50.6367C37.6836 50.6888 37.4036 50.7816 37.2148 50.915C37.026 51.0452 36.9316 51.278 36.9316 51.6133C36.9316 51.8574 37.0179 52.0576 37.1904 52.2139C37.3662 52.3669 37.599 52.4434 37.8887 52.4434C38.2858 52.4434 38.613 52.305 38.8701 52.0283C39.1305 51.7484 39.2607 51.3952 39.2607 50.9688V50.4707ZM41.9805 46.7305C41.8372 46.7305 41.7152 46.6816 41.6143 46.584C41.5133 46.4863 41.4629 46.3626 41.4629 46.2129C41.4629 46.0632 41.5133 45.9395 41.6143 45.8418C41.7152 45.7409 41.8372 45.6904 41.9805 45.6904C42.127 45.6904 42.2507 45.7409 42.3516 45.8418C42.4557 45.9395 42.5078 46.0632 42.5078 46.2129C42.5078 46.3561 42.4557 46.4782 42.3516 46.5791C42.2507 46.68 42.127 46.7305 41.9805 46.7305ZM42.3711 53H41.5703V48H42.3711V53ZM44.793 53H43.9922V45.5977H44.793V53ZM52.1562 47.6094L50.8184 47.8828L51.7461 49.0693L51.209 49.4404L50.4473 48.1465L49.6758 49.4404L49.1387 49.0693L50.0664 47.8828L48.7188 47.6094L48.9385 46.999L50.2178 47.4824L50.1055 45.998H50.7793L50.667 47.4824L51.9512 46.999L52.1562 47.6094Z" fill="#9AA6AE"/>
<rect x="83" y="38" width="32" height="23" rx="2" fill="#9AA6AE"/>
<path d="M88.8252 51.333V50.6152C88.8896 50.6738 88.9658 50.7266 89.0537 50.7734C89.1436 50.8203 89.2383 50.8604 89.3379 50.8936C89.4375 50.9248 89.5371 50.9492 89.6367 50.9668C89.7363 50.9844 89.8281 50.9932 89.9121 50.9932C90.2051 50.9932 90.4229 50.9443 90.5654 50.8467C90.71 50.749 90.7822 50.6074 90.7822 50.4219C90.7822 50.3223 90.7578 50.2363 90.709 50.1641C90.6621 50.0898 90.5957 50.0225 90.5098 49.9619C90.4238 49.9014 90.3223 49.8438 90.2051 49.7891C90.0898 49.7324 89.9658 49.6738 89.833 49.6133C89.6904 49.5371 89.5576 49.46 89.4346 49.3818C89.3115 49.3037 89.2041 49.2178 89.1123 49.124C89.0225 49.0283 88.9512 48.9209 88.8984 48.8018C88.8477 48.6826 88.8223 48.543 88.8223 48.3828C88.8223 48.1855 88.8662 48.0146 88.9541 47.8701C89.0439 47.7236 89.1611 47.6035 89.3057 47.5098C89.4521 47.4141 89.6182 47.3438 89.8037 47.2988C89.9893 47.252 90.1787 47.2285 90.3721 47.2285C90.8115 47.2285 91.1318 47.2783 91.333 47.3779V48.0664C91.0947 47.8945 90.7881 47.8086 90.4131 47.8086C90.3096 47.8086 90.2061 47.8184 90.1025 47.8379C90.001 47.8574 89.9092 47.8896 89.8271 47.9346C89.7471 47.9795 89.6816 48.0371 89.6309 48.1074C89.5801 48.1777 89.5547 48.2627 89.5547 48.3623C89.5547 48.4561 89.5742 48.5371 89.6133 48.6055C89.6523 48.6738 89.709 48.7363 89.7832 48.793C89.8594 48.8496 89.9512 48.9053 90.0586 48.96C90.168 49.0127 90.2939 49.0703 90.4365 49.1328C90.583 49.209 90.7207 49.2891 90.8496 49.373C90.9805 49.457 91.0947 49.5498 91.1924 49.6514C91.292 49.7529 91.3701 49.8662 91.4268 49.9912C91.4854 50.1143 91.5146 50.2549 91.5146 50.4131C91.5146 50.626 91.4717 50.8057 91.3857 50.9521C91.2998 51.0986 91.1836 51.2178 91.0371 51.3096C90.8926 51.4014 90.7256 51.4678 90.5361 51.5088C90.3467 51.5498 90.1465 51.5703 89.9355 51.5703C89.8652 51.5703 89.7783 51.5645 89.6748 51.5527C89.5732 51.543 89.4688 51.5273 89.3613 51.5059C89.2539 51.4863 89.1523 51.4619 89.0566 51.4326C88.9609 51.4033 88.8838 51.3701 88.8252 51.333ZM94.9481 51.5H94.2684V51.0254H94.2567C94.0595 51.3887 93.7528 51.5703 93.3368 51.5703C92.6278 51.5703 92.2733 51.1445 92.2733 50.293V48.5H92.953V50.2227C92.953 50.7617 93.161 51.0312 93.577 51.0312C93.7782 51.0312 93.9432 50.957 94.0721 50.8086C94.203 50.6602 94.2684 50.4658 94.2684 50.2256V48.5H94.9481V51.5ZM96.6472 51.0664H96.6355V51.5H95.9558V47.0586H96.6355V49.0273H96.6472C96.8796 48.6289 97.2195 48.4297 97.6668 48.4297C98.0457 48.4297 98.3416 48.5645 98.5545 48.834C98.7693 49.1016 98.8767 49.4609 98.8767 49.9121C98.8767 50.4141 98.7566 50.8164 98.5164 51.1191C98.2761 51.4199 97.948 51.5703 97.532 51.5703C97.1414 51.5703 96.8464 51.4023 96.6472 51.0664ZM96.6296 49.874V50.2461C96.6296 50.4648 96.699 50.6504 96.8377 50.8027C96.9783 50.9551 97.156 51.0312 97.3709 51.0312C97.6228 51.0312 97.8201 50.9336 97.9627 50.7383C98.1072 50.541 98.1795 50.2666 98.1795 49.915C98.1795 49.6201 98.1121 49.3896 97.9773 49.2236C97.8445 49.0557 97.6638 48.9717 97.4353 48.9717C97.1931 48.9717 96.9978 49.0576 96.8494 49.2295C96.7029 49.4014 96.6296 49.6162 96.6296 49.874ZM104.176 51.5H103.497V49.8652C103.497 49.5508 103.452 49.3232 103.362 49.1826C103.274 49.042 103.125 48.9717 102.914 48.9717C102.736 48.9717 102.585 49.0605 102.46 49.2383C102.337 49.416 102.275 49.6289 102.275 49.877V51.5H101.592V49.8096C101.592 49.251 101.395 48.9717 101.001 48.9717C100.817 48.9717 100.666 49.0557 100.547 49.2236C100.429 49.3916 100.371 49.6094 100.371 49.877V51.5H99.6911V48.5H100.371V48.9746H100.382C100.599 48.6113 100.915 48.4297 101.329 48.4297C101.536 48.4297 101.716 48.4873 101.871 48.6025C102.027 48.7158 102.133 48.8652 102.19 49.0508C102.413 48.6367 102.745 48.4297 103.186 48.4297C103.846 48.4297 104.176 48.8369 104.176 49.6514V51.5ZM105.468 47.8701C105.357 47.8701 105.261 47.834 105.181 47.7617C105.103 47.6895 105.064 47.5977 105.064 47.4863C105.064 47.375 105.103 47.2822 105.181 47.208C105.261 47.1338 105.357 47.0967 105.468 47.0967C105.584 47.0967 105.681 47.1338 105.761 47.208C105.841 47.2822 105.881 47.375 105.881 47.4863C105.881 47.5918 105.841 47.6826 105.761 47.7588C105.681 47.833 105.584 47.8701 105.468 47.8701ZM105.805 51.5H105.126V48.5H105.805V51.5ZM108.398 51.4678C108.265 51.5342 108.09 51.5674 107.873 51.5674C107.291 51.5674 107 51.2881 107 50.7295V49.0332H106.499V48.5H107V47.8057L107.68 47.6123V48.5H108.398V49.0332H107.68V50.5332C107.68 50.7109 107.712 50.8379 107.777 50.9141C107.841 50.9902 107.949 51.0283 108.099 51.0283C108.214 51.0283 108.314 50.9951 108.398 50.9287V51.4678Z" fill="white"/>
</svg>
