<svg width="127" height="100" viewBox="0 0 127 100" fill="none" xmlns="http://www.w3.org/2000/svg">
<rect x="0.25" y="0.25" width="126.5" height="99.5" rx="2.75" stroke="#8F8F8F" stroke-opacity="0.65" stroke-width="0.5"/>
<rect x="16.5" y="23.5" width="95" height="21" rx="1.5" stroke="#CED2D4"/>
<path d="M29.5117 37H28.8711V36.375H28.8555C28.5768 36.8542 28.1667 37.0938 27.625 37.0938C27.2266 37.0938 26.9141 36.9883 26.6875 36.7773C26.4635 36.5664 26.3516 36.2865 26.3516 35.9375C26.3516 35.1901 26.7917 34.7552 27.6719 34.6328L28.8711 34.4648C28.8711 33.7852 28.5964 33.4453 28.0469 33.4453C27.5651 33.4453 27.1302 33.6094 26.7422 33.9375V33.2812C27.1354 33.0312 27.5885 32.9062 28.1016 32.9062C29.0417 32.9062 29.5117 33.4036 29.5117 34.3984V37ZM28.8711 34.9766L27.9062 35.1094C27.6094 35.151 27.3854 35.2253 27.2344 35.332C27.0833 35.4362 27.0078 35.6224 27.0078 35.8906C27.0078 36.0859 27.0768 36.2461 27.2148 36.3711C27.3555 36.4935 27.5417 36.5547 27.7734 36.5547C28.0911 36.5547 28.3529 36.444 28.5586 36.2227C28.7669 35.9987 28.8711 35.7161 28.8711 35.375V34.9766ZM31.535 36.4219H31.5194V37H30.8787V31.0781H31.5194V33.7031H31.535C31.8501 33.1719 32.311 32.9062 32.9178 32.9062C33.4308 32.9062 33.8319 33.0859 34.1209 33.4453C34.4126 33.8021 34.5584 34.2812 34.5584 34.8828C34.5584 35.5521 34.3957 36.0885 34.0702 36.4922C33.7446 36.8932 33.2993 37.0938 32.7342 37.0938C32.2056 37.0938 31.8058 36.8698 31.535 36.4219ZM31.5194 34.8086V35.3672C31.5194 35.6979 31.6261 35.9792 31.8397 36.2109C32.0558 36.4401 32.3293 36.5547 32.66 36.5547C33.048 36.5547 33.3514 36.4062 33.5702 36.1094C33.7915 35.8125 33.9022 35.3997 33.9022 34.8711C33.9022 34.4258 33.7993 34.0768 33.5936 33.8242C33.3879 33.5716 33.1092 33.4453 32.7577 33.4453C32.3853 33.4453 32.0858 33.5755 31.8592 33.8359C31.6327 34.0938 31.5194 34.418 31.5194 34.8086ZM38.4684 36.8164C38.1611 37.0013 37.7966 37.0938 37.3747 37.0938C36.8044 37.0938 36.3434 36.9089 35.9919 36.5391C35.6429 36.1667 35.4684 35.6849 35.4684 35.0938C35.4684 34.4349 35.6572 33.9062 36.0348 33.5078C36.4124 33.1068 36.9164 32.9062 37.5466 32.9062C37.8981 32.9062 38.208 32.9714 38.4762 33.1016V33.7578C38.1794 33.5495 37.8617 33.4453 37.5231 33.4453C37.1143 33.4453 36.7783 33.5924 36.5153 33.8867C36.2549 34.1784 36.1247 34.5625 36.1247 35.0391C36.1247 35.5078 36.2471 35.8776 36.4919 36.1484C36.7393 36.4193 37.07 36.5547 37.4841 36.5547C37.833 36.5547 38.1611 36.4388 38.4684 36.207V36.8164ZM43.4956 35.3594H43.4761C43.286 35.9792 42.9123 36.2891 42.355 36.2891C41.9982 36.2891 41.7105 36.1576 41.4917 35.8945C41.2756 35.6315 41.1675 35.2773 41.1675 34.832C41.1675 34.2435 41.3172 33.7552 41.6167 33.3672C41.9188 32.9766 42.3146 32.7812 42.8042 32.7812C42.9917 32.7812 43.1584 32.8294 43.3042 32.9258C43.4527 33.0221 43.5477 33.1432 43.5894 33.2891H43.605C43.6102 33.2161 43.6232 33.0664 43.6441 32.8398H44.1323C44.0099 34.2747 43.9487 35.0052 43.9487 35.0312C43.9487 35.5703 44.1037 35.8398 44.4136 35.8398C44.6948 35.8398 44.9279 35.6875 45.1128 35.3828C45.3003 35.0781 45.3941 34.6836 45.3941 34.1992C45.3941 33.4831 45.1675 32.8984 44.7144 32.4453C44.2612 31.9922 43.6336 31.7656 42.8316 31.7656C42.0581 31.7656 41.4188 32.0365 40.9136 32.5781C40.4084 33.1198 40.1558 33.7969 40.1558 34.6094C40.1558 35.4089 40.3954 36.0547 40.8745 36.5469C41.3563 37.0365 42.0047 37.2812 42.8198 37.2812C43.4631 37.2812 44.0126 37.1745 44.4683 36.9609V37.4453C44.0178 37.638 43.4553 37.7344 42.7808 37.7344C41.8329 37.7344 41.0685 37.4492 40.4878 36.8789C39.9097 36.306 39.6206 35.5573 39.6206 34.6328C39.6206 33.6797 39.924 32.8893 40.5308 32.2617C41.1402 31.6341 41.9175 31.3203 42.8628 31.3203C43.7482 31.3203 44.4813 31.5833 45.062 32.1094C45.6428 32.6354 45.9331 33.3216 45.9331 34.168C45.9331 34.7878 45.7795 35.2969 45.4722 35.6953C45.1675 36.0911 44.7951 36.2891 44.355 36.2891C43.7847 36.2891 43.4982 35.9792 43.4956 35.3594ZM42.7964 33.2344C42.4735 33.2344 42.2118 33.388 42.0112 33.6953C41.8133 34.0026 41.7144 34.3841 41.7144 34.8398C41.7144 35.1471 41.7808 35.3893 41.9136 35.5664C42.049 35.7435 42.2287 35.832 42.4527 35.832C42.7756 35.832 43.0308 35.6719 43.2183 35.3516C43.4084 35.0286 43.5034 34.6016 43.5034 34.0703C43.5034 33.513 43.2678 33.2344 42.7964 33.2344ZM50.8119 36.6797C50.8119 38.1484 50.1087 38.8828 48.7025 38.8828C48.2077 38.8828 47.7754 38.7891 47.4056 38.6016V37.9609C47.8561 38.2109 48.2858 38.3359 48.6947 38.3359C49.6791 38.3359 50.1712 37.8125 50.1712 36.7656V36.3281H50.1556C49.8509 36.8385 49.3926 37.0938 48.7806 37.0938C48.2832 37.0938 47.8822 36.9167 47.5775 36.5625C47.2754 36.2057 47.1244 35.7279 47.1244 35.1289C47.1244 34.4492 47.2871 33.9089 47.6127 33.5078C47.9408 33.1068 48.3887 32.9062 48.9564 32.9062C49.4955 32.9062 49.8952 33.1224 50.1556 33.5547H50.1712V33H50.8119V36.6797ZM50.1712 35.1914V34.6016C50.1712 34.2839 50.0632 34.0117 49.847 33.7852C49.6335 33.5586 49.3666 33.4453 49.0462 33.4453C48.6504 33.4453 48.3405 33.5898 48.1166 33.8789C47.8926 34.1654 47.7806 34.5677 47.7806 35.0859C47.7806 35.5312 47.8874 35.888 48.1009 36.1562C48.3171 36.4219 48.6022 36.5547 48.9564 36.5547C49.3158 36.5547 49.6074 36.4271 49.8314 36.1719C50.058 35.9167 50.1712 35.5898 50.1712 35.1914ZM57.9484 37H57.3078V34.7031C57.3078 34.2604 57.2388 33.9401 57.1008 33.7422C56.9654 33.5443 56.7362 33.4453 56.4133 33.4453C56.1398 33.4453 55.9068 33.5703 55.7141 33.8203C55.524 34.0703 55.4289 34.3698 55.4289 34.7188V37H54.7883V34.625C54.7883 33.8385 54.4849 33.4453 53.8781 33.4453C53.5969 33.4453 53.3651 33.5638 53.1828 33.8008C53.0005 34.0352 52.9094 34.3411 52.9094 34.7188V37H52.2687V33H52.9094V33.6328H52.925C53.2089 33.1484 53.6229 32.9062 54.1672 32.9062C54.4406 32.9062 54.6789 32.9831 54.882 33.1367C55.0852 33.2878 55.2245 33.487 55.3 33.7344C55.5969 33.1823 56.0396 32.9062 56.6281 32.9062C57.5083 32.9062 57.9484 33.4492 57.9484 34.5352V37ZM62.1827 37H61.542V36.375H61.5264C61.2478 36.8542 60.8376 37.0938 60.2959 37.0938C59.8975 37.0938 59.585 36.9883 59.3584 36.7773C59.1345 36.5664 59.0225 36.2865 59.0225 35.9375C59.0225 35.1901 59.4626 34.7552 60.3428 34.6328L61.542 34.4648C61.542 33.7852 61.2673 33.4453 60.7178 33.4453C60.236 33.4453 59.8011 33.6094 59.4131 33.9375V33.2812C59.8064 33.0312 60.2595 32.9062 60.7725 32.9062C61.7126 32.9062 62.1827 33.4036 62.1827 34.3984V37ZM61.542 34.9766L60.5772 35.1094C60.2803 35.151 60.0564 35.2253 59.9053 35.332C59.7543 35.4362 59.6787 35.6224 59.6787 35.8906C59.6787 36.0859 59.7478 36.2461 59.8858 36.3711C60.0264 36.4935 60.2126 36.5547 60.4444 36.5547C60.7621 36.5547 61.0238 36.444 61.2295 36.2227C61.4379 35.9987 61.542 35.7161 61.542 35.375V34.9766ZM63.8778 31.9844C63.7632 31.9844 63.6656 31.9453 63.5848 31.8672C63.5041 31.7891 63.4637 31.6901 63.4637 31.5703C63.4637 31.4505 63.5041 31.3516 63.5848 31.2734C63.6656 31.1927 63.7632 31.1523 63.8778 31.1523C63.995 31.1523 64.094 31.1927 64.1747 31.2734C64.258 31.3516 64.2997 31.4505 64.2997 31.5703C64.2997 31.6849 64.258 31.7826 64.1747 31.8633C64.094 31.944 63.995 31.9844 63.8778 31.9844ZM64.1903 37H63.5497V33H64.1903V37ZM66.2878 37H65.6472V31.0781H66.2878V37ZM67.9673 37.0859C67.8476 37.0859 67.7447 37.043 67.6587 36.957C67.5754 36.8711 67.5337 36.7682 67.5337 36.6484C67.5337 36.5286 67.5754 36.4258 67.6587 36.3398C67.7447 36.2513 67.8476 36.207 67.9673 36.207C68.0897 36.207 68.1939 36.2513 68.2798 36.3398C68.3658 36.4258 68.4087 36.5286 68.4087 36.6484C68.4087 36.7682 68.3658 36.8711 68.2798 36.957C68.1939 37.043 68.0897 37.0859 67.9673 37.0859ZM72.3656 36.8164C72.0583 37.0013 71.6937 37.0938 71.2719 37.0938C70.7016 37.0938 70.2406 36.9089 69.8891 36.5391C69.5401 36.1667 69.3656 35.6849 69.3656 35.0938C69.3656 34.4349 69.5544 33.9062 69.932 33.5078C70.3096 33.1068 70.8135 32.9062 71.4437 32.9062C71.7953 32.9062 72.1052 32.9714 72.3734 33.1016V33.7578C72.0766 33.5495 71.7589 33.4453 71.4203 33.4453C71.0115 33.4453 70.6755 33.5924 70.4125 33.8867C70.1521 34.1784 70.0219 34.5625 70.0219 35.0391C70.0219 35.5078 70.1443 35.8776 70.3891 36.1484C70.6365 36.4193 70.9672 36.5547 71.3812 36.5547C71.7302 36.5547 72.0583 36.4388 72.3656 36.207V36.8164ZM75.1662 37.0938C74.5751 37.0938 74.1024 36.9076 73.7483 36.5352C73.3967 36.1602 73.2209 35.6641 73.2209 35.0469C73.2209 34.375 73.4045 33.8503 73.7717 33.4727C74.1389 33.0951 74.635 32.9062 75.26 32.9062C75.8564 32.9062 76.3212 33.0898 76.6545 33.457C76.9905 33.8242 77.1584 34.3333 77.1584 34.9844C77.1584 35.6224 76.9774 36.1341 76.6155 36.5195C76.2561 36.9023 75.773 37.0938 75.1662 37.0938ZM75.2131 33.4453C74.8017 33.4453 74.4761 33.5859 74.2366 33.8672C73.997 34.1458 73.8772 34.5312 73.8772 35.0234C73.8772 35.4974 73.9983 35.8711 74.2405 36.1445C74.4827 36.418 74.8069 36.5547 75.2131 36.5547C75.6272 36.5547 75.9449 36.4206 76.1662 36.1523C76.3902 35.8841 76.5022 35.5026 76.5022 35.0078C76.5022 34.5078 76.3902 34.1224 76.1662 33.8516C75.9449 33.5807 75.6272 33.4453 75.2131 33.4453ZM84.0216 37H83.3809V34.7031C83.3809 34.2604 83.3119 33.9401 83.1739 33.7422C83.0385 33.5443 82.8093 33.4453 82.4864 33.4453C82.213 33.4453 81.9799 33.5703 81.7872 33.8203C81.5971 34.0703 81.502 34.3698 81.502 34.7188V37H80.8614V34.625C80.8614 33.8385 80.558 33.4453 79.9512 33.4453C79.67 33.4453 79.4382 33.5638 79.2559 33.8008C79.0736 34.0352 78.9825 34.3411 78.9825 34.7188V37H78.3419V33H78.9825V33.6328H78.9981C79.282 33.1484 79.696 32.9062 80.2403 32.9062C80.5137 32.9062 80.752 32.9831 80.9552 33.1367C81.1583 33.2878 81.2976 33.487 81.3731 33.7344C81.67 33.1823 82.1127 32.9062 82.7012 32.9062C83.5815 32.9062 84.0216 33.4492 84.0216 34.5352V37Z" fill="#B7BDC0"/>
<rect width="25" height="6" transform="translate(26 20)" fill="white"/>
<path d="M26 23.5H51" stroke="#010101" stroke-opacity="0.12"/>
<path d="M29.7031 26H26.7344V20.3984H29.5781V20.9922H27.3906V22.8555H29.4141V23.4453H27.3906V25.4062H29.7031V26ZM36.375 26H35.7344V23.7031C35.7344 23.2604 35.6654 22.9401 35.5273 22.7422C35.3919 22.5443 35.1628 22.4453 34.8398 22.4453C34.5664 22.4453 34.3333 22.5703 34.1406 22.8203C33.9505 23.0703 33.8555 23.3698 33.8555 23.7188V26H33.2148V23.625C33.2148 22.8385 32.9115 22.4453 32.3047 22.4453C32.0234 22.4453 31.7917 22.5638 31.6094 22.8008C31.4271 23.0352 31.3359 23.3411 31.3359 23.7188V26H30.6953V22H31.3359V22.6328H31.3516C31.6354 22.1484 32.0495 21.9062 32.5938 21.9062C32.8672 21.9062 33.1055 21.9831 33.3086 22.1367C33.5117 22.2878 33.651 22.487 33.7266 22.7344C34.0234 22.1823 34.4661 21.9062 35.0547 21.9062C35.9349 21.9062 36.375 22.4492 36.375 23.5352V26ZM40.4492 26H39.8086V25.375H39.793C39.5143 25.8542 39.1042 26.0938 38.5625 26.0938C38.1641 26.0938 37.8516 25.9883 37.625 25.7773C37.401 25.5664 37.2891 25.2865 37.2891 24.9375C37.2891 24.1901 37.7292 23.7552 38.6094 23.6328L39.8086 23.4648C39.8086 22.7852 39.5339 22.4453 38.9844 22.4453C38.5026 22.4453 38.0677 22.6094 37.6797 22.9375V22.2812C38.0729 22.0312 38.526 21.9062 39.0391 21.9062C39.9792 21.9062 40.4492 22.4036 40.4492 23.3984V26ZM39.8086 23.9766L38.8438 24.1094C38.5469 24.151 38.3229 24.2253 38.1719 24.332C38.0208 24.4362 37.9453 24.6224 37.9453 24.8906C37.9453 25.0859 38.0143 25.2461 38.1523 25.3711C38.293 25.4935 38.4792 25.5547 38.7109 25.5547C39.0286 25.5547 39.2904 25.444 39.4961 25.2227C39.7044 24.9987 39.8086 24.7161 39.8086 24.375V23.9766ZM41.9844 20.9844C41.8698 20.9844 41.7721 20.9453 41.6914 20.8672C41.6107 20.7891 41.5703 20.6901 41.5703 20.5703C41.5703 20.4505 41.6107 20.3516 41.6914 20.2734C41.7721 20.1927 41.8698 20.1523 41.9844 20.1523C42.1016 20.1523 42.2005 20.1927 42.2812 20.2734C42.3646 20.3516 42.4062 20.4505 42.4062 20.5703C42.4062 20.6849 42.3646 20.7826 42.2812 20.8633C42.2005 20.944 42.1016 20.9844 41.9844 20.9844ZM42.2969 26H41.6562V22H42.2969V26ZM44.2344 26H43.5938V20.0781H44.2344V26ZM50.125 21.6875L49.0547 21.9062L49.7969 22.8555L49.3672 23.1523L48.7578 22.1172L48.1406 23.1523L47.7109 22.8555L48.4531 21.9062L47.375 21.6875L47.5508 21.1992L48.5742 21.5859L48.4844 20.3984H49.0234L48.9336 21.5859L49.9609 21.1992L50.125 21.6875Z" fill="#9AA6AE"/>
<rect x="16" y="54" width="54" height="22" rx="2" fill="#9AA6AE"/>
<path d="M29.9336 67.7773V66.8203C30.0195 66.8984 30.1211 66.9688 30.2383 67.0312C30.3581 67.0938 30.4844 67.1471 30.6172 67.1914C30.75 67.2331 30.8828 67.2656 31.0156 67.2891C31.1484 67.3125 31.2708 67.3242 31.3828 67.3242C31.7734 67.3242 32.0638 67.2591 32.2539 67.1289C32.4466 66.9987 32.543 66.8099 32.543 66.5625C32.543 66.4297 32.5104 66.3151 32.4453 66.2188C32.3828 66.1198 32.2943 66.0299 32.1797 65.9492C32.0651 65.8685 31.9297 65.7917 31.7734 65.7188C31.6198 65.6432 31.4544 65.5651 31.2773 65.4844C31.0872 65.3828 30.9102 65.2799 30.7461 65.1758C30.582 65.0716 30.4388 64.957 30.3164 64.832C30.1966 64.7044 30.1016 64.5612 30.0312 64.4023C29.9635 64.2435 29.9297 64.0573 29.9297 63.8438C29.9297 63.5807 29.9883 63.3529 30.1055 63.1602C30.2253 62.9648 30.3815 62.8047 30.5742 62.6797C30.7695 62.5521 30.9909 62.4583 31.2383 62.3984C31.4857 62.3359 31.7383 62.3047 31.9961 62.3047C32.582 62.3047 33.0091 62.3711 33.2773 62.5039V63.4219C32.9596 63.1927 32.5508 63.0781 32.0508 63.0781C31.9128 63.0781 31.7747 63.0911 31.6367 63.1172C31.5013 63.1432 31.3789 63.1862 31.2695 63.2461C31.1628 63.306 31.0755 63.3828 31.0078 63.4766C30.9401 63.5703 30.9062 63.6836 30.9062 63.8164C30.9062 63.9414 30.9323 64.0495 30.9844 64.1406C31.0365 64.2318 31.112 64.3151 31.2109 64.3906C31.3125 64.4661 31.4349 64.5404 31.5781 64.6133C31.724 64.6836 31.8919 64.7604 32.082 64.8438C32.2773 64.9453 32.4609 65.0521 32.6328 65.1641C32.8073 65.276 32.9596 65.3997 33.0898 65.5352C33.2227 65.6706 33.3268 65.8216 33.4023 65.9883C33.4805 66.1523 33.5195 66.3398 33.5195 66.5508C33.5195 66.8346 33.4622 67.0742 33.3477 67.2695C33.2331 67.4648 33.0781 67.6237 32.8828 67.7461C32.6901 67.8685 32.4674 67.957 32.2148 68.0117C31.9622 68.0664 31.6953 68.0938 31.4141 68.0938C31.3203 68.0938 31.2044 68.0859 31.0664 68.0703C30.931 68.0573 30.7917 68.0365 30.6484 68.0078C30.5052 67.9818 30.3698 67.9492 30.2422 67.9102C30.1146 67.8711 30.0117 67.8268 29.9336 67.7773ZM38.0975 68H37.1912V67.3672H37.1756C36.9126 67.8516 36.5037 68.0938 35.9491 68.0938C35.0037 68.0938 34.5311 67.526 34.5311 66.3906V64H35.4373V66.2969C35.4373 67.0156 35.7147 67.375 36.2694 67.375C36.5376 67.375 36.7577 67.276 36.9295 67.0781C37.104 66.8802 37.1912 66.6211 37.1912 66.3008V64H38.0975V68ZM40.363 67.4219H40.3473V68H39.4411V62.0781H40.3473V64.7031H40.363C40.6729 64.1719 41.126 63.9062 41.7223 63.9062C42.2276 63.9062 42.6221 64.0859 42.9059 64.4453C43.1924 64.8021 43.3356 65.2812 43.3356 65.8828C43.3356 66.5521 43.1755 67.0885 42.8552 67.4922C42.5348 67.8932 42.0973 68.0938 41.5427 68.0938C41.0218 68.0938 40.6286 67.8698 40.363 67.4219ZM40.3395 65.832V66.3281C40.3395 66.6198 40.432 66.8672 40.6169 67.0703C40.8044 67.2734 41.0414 67.375 41.3278 67.375C41.6637 67.375 41.9268 67.2448 42.1169 66.9844C42.3096 66.7214 42.4059 66.3555 42.4059 65.8867C42.4059 65.4935 42.3161 65.1862 42.1364 64.9648C41.9593 64.7409 41.7184 64.6289 41.4137 64.6289C41.0908 64.6289 40.8304 64.7435 40.6325 64.9727C40.4372 65.2018 40.3395 65.4883 40.3395 65.832ZM50.4019 68H49.4956V65.8203C49.4956 65.401 49.4357 65.0977 49.3159 64.9102C49.1987 64.7227 48.9995 64.6289 48.7183 64.6289C48.4813 64.6289 48.2795 64.7474 48.1128 64.9844C47.9487 65.2214 47.8667 65.5052 47.8667 65.8359V68H46.9566V65.7461C46.9566 65.0013 46.6935 64.6289 46.1675 64.6289C45.9227 64.6289 45.7209 64.7409 45.562 64.9648C45.4058 65.1888 45.3277 65.4792 45.3277 65.8359V68H44.4214V64H45.3277V64.6328H45.3433C45.6323 64.1484 46.0529 63.9062 46.605 63.9062C46.881 63.9062 47.1219 63.9831 47.3277 64.1367C47.536 64.2878 47.6779 64.487 47.7534 64.7344C48.0503 64.1823 48.493 63.9062 49.0816 63.9062C49.9618 63.9062 50.4019 64.4492 50.4019 65.5352V68ZM52.1244 63.1602C51.9759 63.1602 51.8483 63.112 51.7416 63.0156C51.6374 62.9193 51.5853 62.7969 51.5853 62.6484C51.5853 62.5 51.6374 62.3763 51.7416 62.2773C51.8483 62.1784 51.9759 62.1289 52.1244 62.1289C52.278 62.1289 52.4082 62.1784 52.515 62.2773C52.6218 62.3763 52.6752 62.5 52.6752 62.6484C52.6752 62.7891 52.6218 62.9102 52.515 63.0117C52.4082 63.1107 52.278 63.1602 52.1244 63.1602ZM52.5736 68H51.6673V64H52.5736V68ZM56.0305 67.957C55.8534 68.0456 55.6203 68.0898 55.3312 68.0898C54.5552 68.0898 54.1672 67.7174 54.1672 66.9727V64.7109H53.4992V64H54.1672V63.0742L55.0734 62.8164V64H56.0305V64.7109H55.0734V66.7109C55.0734 66.9479 55.1164 67.1172 55.2023 67.2188C55.2883 67.3203 55.4315 67.3711 55.632 67.3711C55.7857 67.3711 55.9185 67.3268 56.0305 67.2383V67.957Z" fill="white"/>
</svg>
