<svg width="127" height="100" viewBox="0 0 127 100" fill="none" xmlns="http://www.w3.org/2000/svg">
<rect x="16.5" y="15.5" width="95" height="17" rx="1.5" stroke="#CED2D4"/>
<path d="M25.5781 21.9922H23.3906V23.9297H25.4141V24.5195H23.3906V27H22.7344V21.3984H25.5781V21.9922ZM27.0428 21.9844C26.9282 21.9844 26.8306 21.9453 26.7498 21.8672C26.6691 21.7891 26.6287 21.6901 26.6287 21.5703C26.6287 21.4505 26.6691 21.3516 26.7498 21.2734C26.8306 21.1927 26.9282 21.1523 27.0428 21.1523C27.16 21.1523 27.259 21.1927 27.3397 21.2734C27.423 21.3516 27.4647 21.4505 27.4647 21.5703C27.4647 21.6849 27.423 21.7826 27.3397 21.8633C27.259 21.944 27.16 21.9844 27.0428 21.9844ZM27.3553 27H26.7147V23H27.3553V27ZM30.8981 23.6484C30.7861 23.5625 30.6247 23.5195 30.4138 23.5195C30.1403 23.5195 29.9111 23.6484 29.7263 23.9062C29.544 24.1641 29.4528 24.5156 29.4528 24.9609V27H28.8122V23H29.4528V23.8242H29.4684C29.5596 23.543 29.6989 23.3242 29.8864 23.168C30.0739 23.0091 30.2835 22.9297 30.5153 22.9297C30.682 22.9297 30.8096 22.9479 30.8981 22.9844V23.6484ZM31.5112 26.8555V26.168C31.8602 26.4258 32.2443 26.5547 32.6636 26.5547C33.2261 26.5547 33.5073 26.3672 33.5073 25.9922C33.5073 25.8854 33.4826 25.7956 33.4331 25.7227C33.3862 25.6471 33.3211 25.5807 33.2378 25.5234C33.1571 25.4661 33.0607 25.4154 32.9487 25.3711C32.8394 25.3242 32.7209 25.276 32.5933 25.2266C32.4162 25.1562 32.2599 25.0859 32.1245 25.0156C31.9917 24.9427 31.8797 24.862 31.7886 24.7734C31.7001 24.6823 31.6323 24.5794 31.5855 24.4648C31.5412 24.3503 31.5191 24.2161 31.5191 24.0625C31.5191 23.875 31.562 23.7096 31.648 23.5664C31.7339 23.4206 31.8485 23.2995 31.9917 23.2031C32.1349 23.1042 32.2977 23.0299 32.48 22.9805C32.6649 22.931 32.855 22.9062 33.0503 22.9062C33.3967 22.9062 33.7066 22.9661 33.98 23.0859V23.7344C33.6857 23.5417 33.3472 23.4453 32.9644 23.4453C32.8446 23.4453 32.7365 23.4596 32.6402 23.4883C32.5438 23.5143 32.4605 23.5521 32.3902 23.6016C32.3224 23.651 32.2691 23.7109 32.23 23.7812C32.1935 23.849 32.1753 23.9245 32.1753 24.0078C32.1753 24.112 32.1935 24.1992 32.23 24.2695C32.2691 24.3398 32.3251 24.4023 32.398 24.457C32.4709 24.5117 32.5594 24.5612 32.6636 24.6055C32.7678 24.6497 32.8862 24.6979 33.0191 24.75C33.1961 24.8177 33.355 24.888 33.4956 24.9609C33.6362 25.0312 33.756 25.112 33.855 25.2031C33.954 25.2917 34.0295 25.3945 34.0816 25.5117C34.1362 25.6289 34.1636 25.7682 34.1636 25.9297C34.1636 26.1276 34.1193 26.2995 34.0308 26.4453C33.9448 26.5911 33.829 26.7122 33.6831 26.8086C33.5373 26.9049 33.3693 26.9766 33.1792 27.0234C32.9891 27.0703 32.7899 27.0938 32.5816 27.0938C32.1701 27.0938 31.8133 27.0143 31.5112 26.8555ZM37.1673 26.9609C37.0163 27.0443 36.8171 27.0859 36.5697 27.0859C35.8692 27.0859 35.5189 26.6953 35.5189 25.9141V23.5469H34.8314V23H35.5189V22.0234L36.1595 21.8164V23H37.1673V23.5469H36.1595V25.8008C36.1595 26.069 36.2051 26.2604 36.2963 26.375C36.3874 26.4896 36.5384 26.5469 36.7494 26.5469C36.9108 26.5469 37.0502 26.5026 37.1673 26.4141V26.9609ZM45.1397 27H44.335L41.4522 22.5352C41.3793 22.4232 41.3194 22.306 41.2725 22.1836H41.2491C41.2699 22.3034 41.2803 22.5599 41.2803 22.9531V27H40.6241V21.3984H41.4756L44.2803 25.793C44.3975 25.9753 44.473 26.1003 44.5069 26.168H44.5225C44.4965 26.0065 44.4834 25.7318 44.4834 25.3438V21.3984H45.1397V27ZM49.5458 27H48.9052V26.375H48.8895C48.6109 26.8542 48.2007 27.0938 47.6591 27.0938C47.2606 27.0938 46.9481 26.9883 46.7216 26.7773C46.4976 26.5664 46.3856 26.2865 46.3856 25.9375C46.3856 25.1901 46.8257 24.7552 47.7059 24.6328L48.9052 24.4648C48.9052 23.7852 48.6304 23.4453 48.0809 23.4453C47.5992 23.4453 47.1643 23.6094 46.7763 23.9375V23.2812C47.1695 23.0312 47.6226 22.9062 48.1356 22.9062C49.0757 22.9062 49.5458 23.4036 49.5458 24.3984V27ZM48.9052 24.9766L47.9403 25.1094C47.6434 25.151 47.4195 25.2253 47.2684 25.332C47.1174 25.4362 47.0419 25.6224 47.0419 25.8906C47.0419 26.0859 47.1109 26.2461 47.2489 26.3711C47.3895 26.4935 47.5757 26.5547 47.8075 26.5547C48.1252 26.5547 48.3869 26.444 48.5927 26.2227C48.801 25.9987 48.9052 25.7161 48.9052 25.375V24.9766ZM56.5925 27H55.9519V24.7031C55.9519 24.2604 55.8829 23.9401 55.7448 23.7422C55.6094 23.5443 55.3803 23.4453 55.0573 23.4453C54.7839 23.4453 54.5508 23.5703 54.3581 23.8203C54.168 24.0703 54.073 24.3698 54.073 24.7188V27H53.4323V24.625C53.4323 23.8385 53.129 23.4453 52.5222 23.4453C52.2409 23.4453 52.0092 23.5638 51.8269 23.8008C51.6446 24.0352 51.5534 24.3411 51.5534 24.7188V27H50.9128V23H51.5534V23.6328H51.5691C51.8529 23.1484 52.267 22.9062 52.8113 22.9062C53.0847 22.9062 53.323 22.9831 53.5261 23.1367C53.7292 23.2878 53.8685 23.487 53.9441 23.7344C54.2409 23.1823 54.6836 22.9062 55.2722 22.9062C56.1524 22.9062 56.5925 23.4492 56.5925 24.5352V27ZM61.1783 25.1602H58.3541C58.3645 25.6055 58.4843 25.9492 58.7134 26.1914C58.9426 26.4336 59.2577 26.5547 59.6587 26.5547C60.1093 26.5547 60.5233 26.4062 60.9009 26.1094V26.7109C60.5494 26.9661 60.0845 27.0938 59.5064 27.0938C58.9413 27.0938 58.4973 26.9128 58.1744 26.5508C57.8515 26.1862 57.69 25.6745 57.69 25.0156C57.69 24.3932 57.8658 23.8867 58.2173 23.4961C58.5715 23.1029 59.0103 22.9062 59.5337 22.9062C60.0572 22.9062 60.4621 23.0755 60.7486 23.4141C61.0351 23.7526 61.1783 24.2227 61.1783 24.8242V25.1602ZM60.522 24.6172C60.5194 24.2474 60.4296 23.9596 60.2525 23.7539C60.078 23.5482 59.8345 23.4453 59.522 23.4453C59.2199 23.4453 58.9634 23.5534 58.7525 23.7695C58.5416 23.9857 58.4114 24.2682 58.3619 24.6172H60.522ZM67.0647 22.6875L65.9944 22.9062L66.7366 23.8555L66.3069 24.1523L65.6975 23.1172L65.0803 24.1523L64.6506 23.8555L65.3928 22.9062L64.3147 22.6875L64.4905 22.1992L65.5139 22.5859L65.4241 21.3984H65.9631L65.8733 22.5859L66.9006 22.1992L67.0647 22.6875Z" fill="#9AA6AE"/>
<rect x="16.5" y="42.5" width="95" height="17" rx="1.5" stroke="#9AA6AE"/>
<rect width="44" height="6" transform="translate(22 48)" fill="#CED2D4"/>
<rect x="16" y="69" width="54" height="18" rx="2" fill="#9AA6AE"/>
<path d="M29.9336 80.7773V79.8203C30.0195 79.8984 30.1211 79.9688 30.2383 80.0312C30.3581 80.0938 30.4844 80.1471 30.6172 80.1914C30.75 80.2331 30.8828 80.2656 31.0156 80.2891C31.1484 80.3125 31.2708 80.3242 31.3828 80.3242C31.7734 80.3242 32.0638 80.2591 32.2539 80.1289C32.4466 79.9987 32.543 79.8099 32.543 79.5625C32.543 79.4297 32.5104 79.3151 32.4453 79.2188C32.3828 79.1198 32.2943 79.0299 32.1797 78.9492C32.0651 78.8685 31.9297 78.7917 31.7734 78.7188C31.6198 78.6432 31.4544 78.5651 31.2773 78.4844C31.0872 78.3828 30.9102 78.2799 30.7461 78.1758C30.582 78.0716 30.4388 77.957 30.3164 77.832C30.1966 77.7044 30.1016 77.5612 30.0312 77.4023C29.9635 77.2435 29.9297 77.0573 29.9297 76.8438C29.9297 76.5807 29.9883 76.3529 30.1055 76.1602C30.2253 75.9648 30.3815 75.8047 30.5742 75.6797C30.7695 75.5521 30.9909 75.4583 31.2383 75.3984C31.4857 75.3359 31.7383 75.3047 31.9961 75.3047C32.582 75.3047 33.0091 75.3711 33.2773 75.5039V76.4219C32.9596 76.1927 32.5508 76.0781 32.0508 76.0781C31.9128 76.0781 31.7747 76.0911 31.6367 76.1172C31.5013 76.1432 31.3789 76.1862 31.2695 76.2461C31.1628 76.306 31.0755 76.3828 31.0078 76.4766C30.9401 76.5703 30.9062 76.6836 30.9062 76.8164C30.9062 76.9414 30.9323 77.0495 30.9844 77.1406C31.0365 77.2318 31.112 77.3151 31.2109 77.3906C31.3125 77.4661 31.4349 77.5404 31.5781 77.6133C31.724 77.6836 31.8919 77.7604 32.082 77.8438C32.2773 77.9453 32.4609 78.0521 32.6328 78.1641C32.8073 78.276 32.9596 78.3997 33.0898 78.5352C33.2227 78.6706 33.3268 78.8216 33.4023 78.9883C33.4805 79.1523 33.5195 79.3398 33.5195 79.5508C33.5195 79.8346 33.4622 80.0742 33.3477 80.2695C33.2331 80.4648 33.0781 80.6237 32.8828 80.7461C32.6901 80.8685 32.4674 80.957 32.2148 81.0117C31.9622 81.0664 31.6953 81.0938 31.4141 81.0938C31.3203 81.0938 31.2044 81.0859 31.0664 81.0703C30.931 81.0573 30.7917 81.0365 30.6484 81.0078C30.5052 80.9818 30.3698 80.9492 30.2422 80.9102C30.1146 80.8711 30.0117 80.8268 29.9336 80.7773ZM38.0975 81H37.1912V80.3672H37.1756C36.9126 80.8516 36.5037 81.0938 35.9491 81.0938C35.0037 81.0938 34.5311 80.526 34.5311 79.3906V77H35.4373V79.2969C35.4373 80.0156 35.7147 80.375 36.2694 80.375C36.5376 80.375 36.7577 80.276 36.9295 80.0781C37.104 79.8802 37.1912 79.6211 37.1912 79.3008V77H38.0975V81ZM40.363 80.4219H40.3473V81H39.4411V75.0781H40.3473V77.7031H40.363C40.6729 77.1719 41.126 76.9062 41.7223 76.9062C42.2276 76.9062 42.6221 77.0859 42.9059 77.4453C43.1924 77.8021 43.3356 78.2812 43.3356 78.8828C43.3356 79.5521 43.1755 80.0885 42.8552 80.4922C42.5348 80.8932 42.0973 81.0938 41.5427 81.0938C41.0218 81.0938 40.6286 80.8698 40.363 80.4219ZM40.3395 78.832V79.3281C40.3395 79.6198 40.432 79.8672 40.6169 80.0703C40.8044 80.2734 41.0414 80.375 41.3278 80.375C41.6637 80.375 41.9268 80.2448 42.1169 79.9844C42.3096 79.7214 42.4059 79.3555 42.4059 78.8867C42.4059 78.4935 42.3161 78.1862 42.1364 77.9648C41.9593 77.7409 41.7184 77.6289 41.4137 77.6289C41.0908 77.6289 40.8304 77.7435 40.6325 77.9727C40.4372 78.2018 40.3395 78.4883 40.3395 78.832ZM50.4019 81H49.4956V78.8203C49.4956 78.401 49.4357 78.0977 49.3159 77.9102C49.1987 77.7227 48.9995 77.6289 48.7183 77.6289C48.4813 77.6289 48.2795 77.7474 48.1128 77.9844C47.9487 78.2214 47.8667 78.5052 47.8667 78.8359V81H46.9566V78.7461C46.9566 78.0013 46.6935 77.6289 46.1675 77.6289C45.9227 77.6289 45.7209 77.7409 45.562 77.9648C45.4058 78.1888 45.3277 78.4792 45.3277 78.8359V81H44.4214V77H45.3277V77.6328H45.3433C45.6323 77.1484 46.0529 76.9062 46.605 76.9062C46.881 76.9062 47.1219 76.9831 47.3277 77.1367C47.536 77.2878 47.6779 77.487 47.7534 77.7344C48.0503 77.1823 48.493 76.9062 49.0816 76.9062C49.9618 76.9062 50.4019 77.4492 50.4019 78.5352V81ZM52.1244 76.1602C51.9759 76.1602 51.8483 76.112 51.7416 76.0156C51.6374 75.9193 51.5853 75.7969 51.5853 75.6484C51.5853 75.5 51.6374 75.3763 51.7416 75.2773C51.8483 75.1784 51.9759 75.1289 52.1244 75.1289C52.278 75.1289 52.4082 75.1784 52.515 75.2773C52.6218 75.3763 52.6752 75.5 52.6752 75.6484C52.6752 75.7891 52.6218 75.9102 52.515 76.0117C52.4082 76.1107 52.278 76.1602 52.1244 76.1602ZM52.5736 81H51.6673V77H52.5736V81ZM56.0305 80.957C55.8534 81.0456 55.6203 81.0898 55.3312 81.0898C54.5552 81.0898 54.1672 80.7174 54.1672 79.9727V77.7109H53.4992V77H54.1672V76.0742L55.0734 75.8164V77H56.0305V77.7109H55.0734V79.7109C55.0734 79.9479 55.1164 80.1172 55.2023 80.2188C55.2883 80.3203 55.4315 80.3711 55.632 80.3711C55.7857 80.3711 55.9185 80.3268 56.0305 80.2383V80.957Z" fill="white"/>
</svg>
