<svg width="127" height="100" viewBox="0 0 127 100" fill="none" xmlns="http://www.w3.org/2000/svg">
<rect x="0.25" y="0.25" width="126.5" height="99.5" rx="2.75" stroke="#8F8F8F" stroke-opacity="0.65" stroke-width="0.5"/>
<rect x="16.5" y="15.5" width="95" height="17" rx="1.5" stroke="#CED2D4"/>
<rect width="25" height="6" transform="translate(21 12)" fill="white"/>
<path d="M21 15.5H46" stroke="#010101" stroke-opacity="0.12"/>
<path d="M24.5781 12.9922H22.3906V14.9297H24.4141V15.5195H22.3906V18H21.7344V12.3984H24.5781V12.9922ZM25.8828 12.9844C25.7682 12.9844 25.6706 12.9453 25.5898 12.8672C25.5091 12.7891 25.4688 12.6901 25.4688 12.5703C25.4688 12.4505 25.5091 12.3516 25.5898 12.2734C25.6706 12.1927 25.7682 12.1523 25.8828 12.1523C26 12.1523 26.099 12.1927 26.1797 12.2734C26.263 12.3516 26.3047 12.4505 26.3047 12.5703C26.3047 12.6849 26.263 12.7826 26.1797 12.8633C26.099 12.944 26 12.9844 25.8828 12.9844ZM26.1953 18H25.5547V14H26.1953V18ZM29.5781 14.6484C29.4661 14.5625 29.3047 14.5195 29.0938 14.5195C28.8203 14.5195 28.5911 14.6484 28.4062 14.9062C28.224 15.1641 28.1328 15.5156 28.1328 15.9609V18H27.4922V14H28.1328V14.8242H28.1484C28.2396 14.543 28.3789 14.3242 28.5664 14.168C28.7539 14.0091 28.9635 13.9297 29.1953 13.9297C29.362 13.9297 29.4896 13.9479 29.5781 13.9844V14.6484ZM30.0312 17.8555V17.168C30.3802 17.4258 30.7643 17.5547 31.1836 17.5547C31.7461 17.5547 32.0273 17.3672 32.0273 16.9922C32.0273 16.8854 32.0026 16.7956 31.9531 16.7227C31.9062 16.6471 31.8411 16.5807 31.7578 16.5234C31.6771 16.4661 31.5807 16.4154 31.4688 16.3711C31.3594 16.3242 31.2409 16.276 31.1133 16.2266C30.9362 16.1562 30.7799 16.0859 30.6445 16.0156C30.5117 15.9427 30.3997 15.862 30.3086 15.7734C30.2201 15.6823 30.1523 15.5794 30.1055 15.4648C30.0612 15.3503 30.0391 15.2161 30.0391 15.0625C30.0391 14.875 30.082 14.7096 30.168 14.5664C30.2539 14.4206 30.3685 14.2995 30.5117 14.2031C30.6549 14.1042 30.8177 14.0299 31 13.9805C31.1849 13.931 31.375 13.9062 31.5703 13.9062C31.9167 13.9062 32.2266 13.9661 32.5 14.0859V14.7344C32.2057 14.5417 31.8672 14.4453 31.4844 14.4453C31.3646 14.4453 31.2565 14.4596 31.1602 14.4883C31.0638 14.5143 30.9805 14.5521 30.9102 14.6016C30.8424 14.651 30.7891 14.7109 30.75 14.7812C30.7135 14.849 30.6953 14.9245 30.6953 15.0078C30.6953 15.112 30.7135 15.1992 30.75 15.2695C30.7891 15.3398 30.8451 15.4023 30.918 15.457C30.9909 15.5117 31.0794 15.5612 31.1836 15.6055C31.2878 15.6497 31.4062 15.6979 31.5391 15.75C31.7161 15.8177 31.875 15.888 32.0156 15.9609C32.1562 16.0312 32.276 16.112 32.375 16.2031C32.474 16.2917 32.5495 16.3945 32.6016 16.5117C32.6562 16.6289 32.6836 16.7682 32.6836 16.9297C32.6836 17.1276 32.6393 17.2995 32.5508 17.4453C32.4648 17.5911 32.349 17.7122 32.2031 17.8086C32.0573 17.9049 31.8893 17.9766 31.6992 18.0234C31.5091 18.0703 31.3099 18.0938 31.1016 18.0938C30.6901 18.0938 30.3333 18.0143 30.0312 17.8555ZM35.5273 17.9609C35.3763 18.0443 35.1771 18.0859 34.9297 18.0859C34.2292 18.0859 33.8789 17.6953 33.8789 16.9141V14.5469H33.1914V14H33.8789V13.0234L34.5195 12.8164V14H35.5273V14.5469H34.5195V16.8008C34.5195 17.069 34.5651 17.2604 34.6562 17.375C34.7474 17.4896 34.8984 17.5469 35.1094 17.5469C35.2708 17.5469 35.4102 17.5026 35.5273 17.4141V17.9609ZM43.1797 18H42.375L39.4922 13.5352C39.4193 13.4232 39.3594 13.306 39.3125 13.1836H39.2891C39.3099 13.3034 39.3203 13.5599 39.3203 13.9531V18H38.6641V12.3984H39.5156L42.3203 16.793C42.4375 16.9753 42.513 17.1003 42.5469 17.168H42.5625C42.5365 17.0065 42.5234 16.7318 42.5234 16.3438V12.3984H43.1797V18ZM47.4258 18H46.7852V17.375H46.7695C46.4909 17.8542 46.0807 18.0938 45.5391 18.0938C45.1406 18.0938 44.8281 17.9883 44.6016 17.7773C44.3776 17.5664 44.2656 17.2865 44.2656 16.9375C44.2656 16.1901 44.7057 15.7552 45.5859 15.6328L46.7852 15.4648C46.7852 14.7852 46.5104 14.4453 45.9609 14.4453C45.4792 14.4453 45.0443 14.6094 44.6562 14.9375V14.2812C45.0495 14.0312 45.5026 13.9062 46.0156 13.9062C46.9557 13.9062 47.4258 14.4036 47.4258 15.3984V18ZM46.7852 15.9766L45.8203 16.1094C45.5234 16.151 45.2995 16.2253 45.1484 16.332C44.9974 16.4362 44.9219 16.6224 44.9219 16.8906C44.9219 17.0859 44.9909 17.2461 45.1289 17.3711C45.2695 17.4935 45.4557 17.5547 45.6875 17.5547C46.0052 17.5547 46.2669 17.444 46.4727 17.2227C46.681 16.9987 46.7852 16.7161 46.7852 16.375V15.9766ZM54.3125 18H53.6719V15.7031C53.6719 15.2604 53.6029 14.9401 53.4648 14.7422C53.3294 14.5443 53.1003 14.4453 52.7773 14.4453C52.5039 14.4453 52.2708 14.5703 52.0781 14.8203C51.888 15.0703 51.793 15.3698 51.793 15.7188V18H51.1523V15.625C51.1523 14.8385 50.849 14.4453 50.2422 14.4453C49.9609 14.4453 49.7292 14.5638 49.5469 14.8008C49.3646 15.0352 49.2734 15.3411 49.2734 15.7188V18H48.6328V14H49.2734V14.6328H49.2891C49.5729 14.1484 49.987 13.9062 50.5312 13.9062C50.8047 13.9062 51.043 13.9831 51.2461 14.1367C51.4492 14.2878 51.5885 14.487 51.6641 14.7344C51.9609 14.1823 52.4036 13.9062 52.9922 13.9062C53.8724 13.9062 54.3125 14.4492 54.3125 15.5352V18ZM58.7383 16.1602H55.9141C55.9245 16.6055 56.0443 16.9492 56.2734 17.1914C56.5026 17.4336 56.8177 17.5547 57.2188 17.5547C57.6693 17.5547 58.0833 17.4062 58.4609 17.1094V17.7109C58.1094 17.9661 57.6445 18.0938 57.0664 18.0938C56.5013 18.0938 56.0573 17.9128 55.7344 17.5508C55.4115 17.1862 55.25 16.6745 55.25 16.0156C55.25 15.3932 55.4258 14.8867 55.7773 14.4961C56.1315 14.1029 56.5703 13.9062 57.0938 13.9062C57.6172 13.9062 58.0221 14.0755 58.3086 14.4141C58.5951 14.7526 58.7383 15.2227 58.7383 15.8242V16.1602ZM58.082 15.6172C58.0794 15.2474 57.9896 14.9596 57.8125 14.7539C57.638 14.5482 57.3945 14.4453 57.082 14.4453C56.7799 14.4453 56.5234 14.5534 56.3125 14.7695C56.1016 14.9857 55.9714 15.2682 55.9219 15.6172H58.082ZM64.3047 13.6875L63.2344 13.9062L63.9766 14.8555L63.5469 15.1523L62.9375 14.1172L62.3203 15.1523L61.8906 14.8555L62.6328 13.9062L61.5547 13.6875L61.7305 13.1992L62.7539 13.5859L62.6641 12.3984H63.2031L63.1133 13.5859L64.1406 13.1992L64.3047 13.6875Z" fill="#9AA6AE"/>
<rect x="16.5" y="42.5" width="95" height="17" rx="1.5" stroke="#9AA6AE"/>
<rect x="20.5" y="38.5" width="45" height="7" fill="#CED2D4"/>
<rect x="20.5" y="38.5" width="45" height="7" stroke="white"/>
<rect x="16" y="69" width="54" height="18" rx="2" fill="#9AA6AE"/>
<path d="M29.9336 80.7773V79.8203C30.0195 79.8984 30.1211 79.9688 30.2383 80.0312C30.3581 80.0938 30.4844 80.1471 30.6172 80.1914C30.75 80.2331 30.8828 80.2656 31.0156 80.2891C31.1484 80.3125 31.2708 80.3242 31.3828 80.3242C31.7734 80.3242 32.0638 80.2591 32.2539 80.1289C32.4466 79.9987 32.543 79.8099 32.543 79.5625C32.543 79.4297 32.5104 79.3151 32.4453 79.2188C32.3828 79.1198 32.2943 79.0299 32.1797 78.9492C32.0651 78.8685 31.9297 78.7917 31.7734 78.7188C31.6198 78.6432 31.4544 78.5651 31.2773 78.4844C31.0872 78.3828 30.9102 78.2799 30.7461 78.1758C30.582 78.0716 30.4388 77.957 30.3164 77.832C30.1966 77.7044 30.1016 77.5612 30.0312 77.4023C29.9635 77.2435 29.9297 77.0573 29.9297 76.8438C29.9297 76.5807 29.9883 76.3529 30.1055 76.1602C30.2253 75.9648 30.3815 75.8047 30.5742 75.6797C30.7695 75.5521 30.9909 75.4583 31.2383 75.3984C31.4857 75.3359 31.7383 75.3047 31.9961 75.3047C32.582 75.3047 33.0091 75.3711 33.2773 75.5039V76.4219C32.9596 76.1927 32.5508 76.0781 32.0508 76.0781C31.9128 76.0781 31.7747 76.0911 31.6367 76.1172C31.5013 76.1432 31.3789 76.1862 31.2695 76.2461C31.1628 76.306 31.0755 76.3828 31.0078 76.4766C30.9401 76.5703 30.9062 76.6836 30.9062 76.8164C30.9062 76.9414 30.9323 77.0495 30.9844 77.1406C31.0365 77.2318 31.112 77.3151 31.2109 77.3906C31.3125 77.4661 31.4349 77.5404 31.5781 77.6133C31.724 77.6836 31.8919 77.7604 32.082 77.8438C32.2773 77.9453 32.4609 78.0521 32.6328 78.1641C32.8073 78.276 32.9596 78.3997 33.0898 78.5352C33.2227 78.6706 33.3268 78.8216 33.4023 78.9883C33.4805 79.1523 33.5195 79.3398 33.5195 79.5508C33.5195 79.8346 33.4622 80.0742 33.3477 80.2695C33.2331 80.4648 33.0781 80.6237 32.8828 80.7461C32.6901 80.8685 32.4674 80.957 32.2148 81.0117C31.9622 81.0664 31.6953 81.0938 31.4141 81.0938C31.3203 81.0938 31.2044 81.0859 31.0664 81.0703C30.931 81.0573 30.7917 81.0365 30.6484 81.0078C30.5052 80.9818 30.3698 80.9492 30.2422 80.9102C30.1146 80.8711 30.0117 80.8268 29.9336 80.7773ZM38.0975 81H37.1912V80.3672H37.1756C36.9126 80.8516 36.5037 81.0938 35.9491 81.0938C35.0037 81.0938 34.5311 80.526 34.5311 79.3906V77H35.4373V79.2969C35.4373 80.0156 35.7147 80.375 36.2694 80.375C36.5376 80.375 36.7577 80.276 36.9295 80.0781C37.104 79.8802 37.1912 79.6211 37.1912 79.3008V77H38.0975V81ZM40.363 80.4219H40.3473V81H39.4411V75.0781H40.3473V77.7031H40.363C40.6729 77.1719 41.126 76.9062 41.7223 76.9062C42.2276 76.9062 42.6221 77.0859 42.9059 77.4453C43.1924 77.8021 43.3356 78.2812 43.3356 78.8828C43.3356 79.5521 43.1755 80.0885 42.8552 80.4922C42.5348 80.8932 42.0973 81.0938 41.5427 81.0938C41.0218 81.0938 40.6286 80.8698 40.363 80.4219ZM40.3395 78.832V79.3281C40.3395 79.6198 40.432 79.8672 40.6169 80.0703C40.8044 80.2734 41.0414 80.375 41.3278 80.375C41.6637 80.375 41.9268 80.2448 42.1169 79.9844C42.3096 79.7214 42.4059 79.3555 42.4059 78.8867C42.4059 78.4935 42.3161 78.1862 42.1364 77.9648C41.9593 77.7409 41.7184 77.6289 41.4137 77.6289C41.0908 77.6289 40.8304 77.7435 40.6325 77.9727C40.4372 78.2018 40.3395 78.4883 40.3395 78.832ZM50.4019 81H49.4956V78.8203C49.4956 78.401 49.4357 78.0977 49.3159 77.9102C49.1987 77.7227 48.9995 77.6289 48.7183 77.6289C48.4813 77.6289 48.2795 77.7474 48.1128 77.9844C47.9487 78.2214 47.8667 78.5052 47.8667 78.8359V81H46.9566V78.7461C46.9566 78.0013 46.6935 77.6289 46.1675 77.6289C45.9227 77.6289 45.7209 77.7409 45.562 77.9648C45.4058 78.1888 45.3277 78.4792 45.3277 78.8359V81H44.4214V77H45.3277V77.6328H45.3433C45.6323 77.1484 46.0529 76.9062 46.605 76.9062C46.881 76.9062 47.1219 76.9831 47.3277 77.1367C47.536 77.2878 47.6779 77.487 47.7534 77.7344C48.0503 77.1823 48.493 76.9062 49.0816 76.9062C49.9618 76.9062 50.4019 77.4492 50.4019 78.5352V81ZM52.1244 76.1602C51.9759 76.1602 51.8483 76.112 51.7416 76.0156C51.6374 75.9193 51.5853 75.7969 51.5853 75.6484C51.5853 75.5 51.6374 75.3763 51.7416 75.2773C51.8483 75.1784 51.9759 75.1289 52.1244 75.1289C52.278 75.1289 52.4082 75.1784 52.515 75.2773C52.6218 75.3763 52.6752 75.5 52.6752 75.6484C52.6752 75.7891 52.6218 75.9102 52.515 76.0117C52.4082 76.1107 52.278 76.1602 52.1244 76.1602ZM52.5736 81H51.6673V77H52.5736V81ZM56.0305 80.957C55.8534 81.0456 55.6203 81.0898 55.3312 81.0898C54.5552 81.0898 54.1672 80.7174 54.1672 79.9727V77.7109H53.4992V77H54.1672V76.0742L55.0734 75.8164V77H56.0305V77.7109H55.0734V79.7109C55.0734 79.9479 55.1164 80.1172 55.2023 80.2188C55.2883 80.3203 55.4315 80.3711 55.632 80.3711C55.7857 80.3711 55.9185 80.3268 56.0305 80.2383V80.957Z" fill="white"/>
</svg>
