<svg width="127" height="100" viewBox="0 0 127 100" fill="none" xmlns="http://www.w3.org/2000/svg">
<mask id="path-2-inside-1_2948_34028" fill="white">
<path d="M16 15H112V33H16V15Z"/>
</mask>
<path d="M112 32H16V34H112V32Z" fill="#CED2D4" mask="url(#path-2-inside-1_2948_34028)"/>
<path d="M21.5781 20.9922H19.3906V22.9297H21.4141V23.5195H19.3906V26H18.7344V20.3984H21.5781V20.9922ZM23.0428 20.9844C22.9282 20.9844 22.8306 20.9453 22.7498 20.8672C22.6691 20.7891 22.6287 20.6901 22.6287 20.5703C22.6287 20.4505 22.6691 20.3516 22.7498 20.2734C22.8306 20.1927 22.9282 20.1523 23.0428 20.1523C23.16 20.1523 23.259 20.1927 23.3397 20.2734C23.423 20.3516 23.4647 20.4505 23.4647 20.5703C23.4647 20.6849 23.423 20.7826 23.3397 20.8633C23.259 20.944 23.16 20.9844 23.0428 20.9844ZM23.3553 26H22.7147V22H23.3553V26ZM26.8981 22.6484C26.7861 22.5625 26.6247 22.5195 26.4138 22.5195C26.1403 22.5195 25.9111 22.6484 25.7263 22.9062C25.544 23.1641 25.4528 23.5156 25.4528 23.9609V26H24.8122V22H25.4528V22.8242H25.4684C25.5596 22.543 25.6989 22.3242 25.8864 22.168C26.0739 22.0091 26.2835 21.9297 26.5153 21.9297C26.682 21.9297 26.8096 21.9479 26.8981 21.9844V22.6484ZM27.5112 25.8555V25.168C27.8602 25.4258 28.2443 25.5547 28.6636 25.5547C29.2261 25.5547 29.5073 25.3672 29.5073 24.9922C29.5073 24.8854 29.4826 24.7956 29.4331 24.7227C29.3862 24.6471 29.3211 24.5807 29.2378 24.5234C29.1571 24.4661 29.0607 24.4154 28.9487 24.3711C28.8394 24.3242 28.7209 24.276 28.5933 24.2266C28.4162 24.1562 28.2599 24.0859 28.1245 24.0156C27.9917 23.9427 27.8797 23.862 27.7886 23.7734C27.7001 23.6823 27.6323 23.5794 27.5855 23.4648C27.5412 23.3503 27.5191 23.2161 27.5191 23.0625C27.5191 22.875 27.562 22.7096 27.648 22.5664C27.7339 22.4206 27.8485 22.2995 27.9917 22.2031C28.1349 22.1042 28.2977 22.0299 28.48 21.9805C28.6649 21.931 28.855 21.9062 29.0503 21.9062C29.3967 21.9062 29.7066 21.9661 29.98 22.0859V22.7344C29.6857 22.5417 29.3472 22.4453 28.9644 22.4453C28.8446 22.4453 28.7365 22.4596 28.6402 22.4883C28.5438 22.5143 28.4605 22.5521 28.3902 22.6016C28.3224 22.651 28.2691 22.7109 28.23 22.7812C28.1935 22.849 28.1753 22.9245 28.1753 23.0078C28.1753 23.112 28.1935 23.1992 28.23 23.2695C28.2691 23.3398 28.3251 23.4023 28.398 23.457C28.4709 23.5117 28.5594 23.5612 28.6636 23.6055C28.7678 23.6497 28.8862 23.6979 29.0191 23.75C29.1961 23.8177 29.355 23.888 29.4956 23.9609C29.6362 24.0312 29.756 24.112 29.855 24.2031C29.954 24.2917 30.0295 24.3945 30.0816 24.5117C30.1362 24.6289 30.1636 24.7682 30.1636 24.9297C30.1636 25.1276 30.1193 25.2995 30.0308 25.4453C29.9448 25.5911 29.829 25.7122 29.6831 25.8086C29.5373 25.9049 29.3693 25.9766 29.1792 26.0234C28.9891 26.0703 28.7899 26.0938 28.5816 26.0938C28.1701 26.0938 27.8133 26.0143 27.5112 25.8555ZM33.1673 25.9609C33.0163 26.0443 32.8171 26.0859 32.5697 26.0859C31.8692 26.0859 31.5189 25.6953 31.5189 24.9141V22.5469H30.8314V22H31.5189V21.0234L32.1595 20.8164V22H33.1673V22.5469H32.1595V24.8008C32.1595 25.069 32.2051 25.2604 32.2963 25.375C32.3874 25.4896 32.5384 25.5469 32.7494 25.5469C32.9108 25.5469 33.0502 25.5026 33.1673 25.4141V25.9609ZM41.1397 26H40.335L37.4522 21.5352C37.3793 21.4232 37.3194 21.306 37.2725 21.1836H37.2491C37.2699 21.3034 37.2803 21.5599 37.2803 21.9531V26H36.6241V20.3984H37.4756L40.2803 24.793C40.3975 24.9753 40.473 25.1003 40.5069 25.168H40.5225C40.4965 25.0065 40.4834 24.7318 40.4834 24.3438V20.3984H41.1397V26ZM45.5458 26H44.9052V25.375H44.8895C44.6109 25.8542 44.2007 26.0938 43.6591 26.0938C43.2606 26.0938 42.9481 25.9883 42.7216 25.7773C42.4976 25.5664 42.3856 25.2865 42.3856 24.9375C42.3856 24.1901 42.8257 23.7552 43.7059 23.6328L44.9052 23.4648C44.9052 22.7852 44.6304 22.4453 44.0809 22.4453C43.5992 22.4453 43.1643 22.6094 42.7763 22.9375V22.2812C43.1695 22.0312 43.6226 21.9062 44.1356 21.9062C45.0757 21.9062 45.5458 22.4036 45.5458 23.3984V26ZM44.9052 23.9766L43.9403 24.1094C43.6434 24.151 43.4195 24.2253 43.2684 24.332C43.1174 24.4362 43.0419 24.6224 43.0419 24.8906C43.0419 25.0859 43.1109 25.2461 43.2489 25.3711C43.3895 25.4935 43.5757 25.5547 43.8075 25.5547C44.1252 25.5547 44.3869 25.444 44.5927 25.2227C44.801 24.9987 44.9052 24.7161 44.9052 24.375V23.9766ZM52.5925 26H51.9519V23.7031C51.9519 23.2604 51.8829 22.9401 51.7448 22.7422C51.6094 22.5443 51.3803 22.4453 51.0573 22.4453C50.7839 22.4453 50.5508 22.5703 50.3581 22.8203C50.168 23.0703 50.073 23.3698 50.073 23.7188V26H49.4323V23.625C49.4323 22.8385 49.129 22.4453 48.5222 22.4453C48.2409 22.4453 48.0092 22.5638 47.8269 22.8008C47.6446 23.0352 47.5534 23.3411 47.5534 23.7188V26H46.9128V22H47.5534V22.6328H47.5691C47.8529 22.1484 48.267 21.9062 48.8113 21.9062C49.0847 21.9062 49.323 21.9831 49.5261 22.1367C49.7292 22.2878 49.8685 22.487 49.9441 22.7344C50.2409 22.1823 50.6836 21.9062 51.2722 21.9062C52.1524 21.9062 52.5925 22.4492 52.5925 23.5352V26ZM57.1783 24.1602H54.3541C54.3645 24.6055 54.4843 24.9492 54.7134 25.1914C54.9426 25.4336 55.2577 25.5547 55.6587 25.5547C56.1093 25.5547 56.5233 25.4062 56.9009 25.1094V25.7109C56.5494 25.9661 56.0845 26.0938 55.5064 26.0938C54.9413 26.0938 54.4973 25.9128 54.1744 25.5508C53.8515 25.1862 53.69 24.6745 53.69 24.0156C53.69 23.3932 53.8658 22.8867 54.2173 22.4961C54.5715 22.1029 55.0103 21.9062 55.5337 21.9062C56.0572 21.9062 56.4621 22.0755 56.7486 22.4141C57.0351 22.7526 57.1783 23.2227 57.1783 23.8242V24.1602ZM56.522 23.6172C56.5194 23.2474 56.4296 22.9596 56.2525 22.7539C56.078 22.5482 55.8345 22.4453 55.522 22.4453C55.2199 22.4453 54.9634 22.5534 54.7525 22.7695C54.5416 22.9857 54.4114 23.2682 54.3619 23.6172H56.522ZM63.0647 21.6875L61.9944 21.9062L62.7366 22.8555L62.3069 23.1523L61.6975 22.1172L61.0803 23.1523L60.6506 22.8555L61.3928 21.9062L60.3147 21.6875L60.4905 21.1992L61.5139 21.5859L61.4241 20.3984H61.9631L61.8733 21.5859L62.9006 21.1992L63.0647 21.6875Z" fill="#9AA6AE"/>
<mask id="path-5-inside-2_2948_34028" fill="white">
<path d="M16 42H112V60H16V42Z"/>
</mask>
<path d="M112 59H16V61H112V59Z" fill="#9AA6AE" mask="url(#path-5-inside-2_2948_34028)"/>
<rect width="44" height="6" transform="translate(18 47)" fill="#CED2D4"/>
<rect x="16" y="69" width="54" height="18" rx="2" fill="#9AA6AE"/>
<path d="M29.9336 80.7773V79.8203C30.0195 79.8984 30.1211 79.9688 30.2383 80.0312C30.3581 80.0938 30.4844 80.1471 30.6172 80.1914C30.75 80.2331 30.8828 80.2656 31.0156 80.2891C31.1484 80.3125 31.2708 80.3242 31.3828 80.3242C31.7734 80.3242 32.0638 80.2591 32.2539 80.1289C32.4466 79.9987 32.543 79.8099 32.543 79.5625C32.543 79.4297 32.5104 79.3151 32.4453 79.2188C32.3828 79.1198 32.2943 79.0299 32.1797 78.9492C32.0651 78.8685 31.9297 78.7917 31.7734 78.7188C31.6198 78.6432 31.4544 78.5651 31.2773 78.4844C31.0872 78.3828 30.9102 78.2799 30.7461 78.1758C30.582 78.0716 30.4388 77.957 30.3164 77.832C30.1966 77.7044 30.1016 77.5612 30.0312 77.4023C29.9635 77.2435 29.9297 77.0573 29.9297 76.8438C29.9297 76.5807 29.9883 76.3529 30.1055 76.1602C30.2253 75.9648 30.3815 75.8047 30.5742 75.6797C30.7695 75.5521 30.9909 75.4583 31.2383 75.3984C31.4857 75.3359 31.7383 75.3047 31.9961 75.3047C32.582 75.3047 33.0091 75.3711 33.2773 75.5039V76.4219C32.9596 76.1927 32.5508 76.0781 32.0508 76.0781C31.9128 76.0781 31.7747 76.0911 31.6367 76.1172C31.5013 76.1432 31.3789 76.1862 31.2695 76.2461C31.1628 76.306 31.0755 76.3828 31.0078 76.4766C30.9401 76.5703 30.9062 76.6836 30.9062 76.8164C30.9062 76.9414 30.9323 77.0495 30.9844 77.1406C31.0365 77.2318 31.112 77.3151 31.2109 77.3906C31.3125 77.4661 31.4349 77.5404 31.5781 77.6133C31.724 77.6836 31.8919 77.7604 32.082 77.8438C32.2773 77.9453 32.4609 78.0521 32.6328 78.1641C32.8073 78.276 32.9596 78.3997 33.0898 78.5352C33.2227 78.6706 33.3268 78.8216 33.4023 78.9883C33.4805 79.1523 33.5195 79.3398 33.5195 79.5508C33.5195 79.8346 33.4622 80.0742 33.3477 80.2695C33.2331 80.4648 33.0781 80.6237 32.8828 80.7461C32.6901 80.8685 32.4674 80.957 32.2148 81.0117C31.9622 81.0664 31.6953 81.0938 31.4141 81.0938C31.3203 81.0938 31.2044 81.0859 31.0664 81.0703C30.931 81.0573 30.7917 81.0365 30.6484 81.0078C30.5052 80.9818 30.3698 80.9492 30.2422 80.9102C30.1146 80.8711 30.0117 80.8268 29.9336 80.7773ZM38.0975 81H37.1912V80.3672H37.1756C36.9126 80.8516 36.5037 81.0938 35.9491 81.0938C35.0037 81.0938 34.5311 80.526 34.5311 79.3906V77H35.4373V79.2969C35.4373 80.0156 35.7147 80.375 36.2694 80.375C36.5376 80.375 36.7577 80.276 36.9295 80.0781C37.104 79.8802 37.1912 79.6211 37.1912 79.3008V77H38.0975V81ZM40.363 80.4219H40.3473V81H39.4411V75.0781H40.3473V77.7031H40.363C40.6729 77.1719 41.126 76.9062 41.7223 76.9062C42.2276 76.9062 42.6221 77.0859 42.9059 77.4453C43.1924 77.8021 43.3356 78.2812 43.3356 78.8828C43.3356 79.5521 43.1755 80.0885 42.8552 80.4922C42.5348 80.8932 42.0973 81.0938 41.5427 81.0938C41.0218 81.0938 40.6286 80.8698 40.363 80.4219ZM40.3395 78.832V79.3281C40.3395 79.6198 40.432 79.8672 40.6169 80.0703C40.8044 80.2734 41.0414 80.375 41.3278 80.375C41.6637 80.375 41.9268 80.2448 42.1169 79.9844C42.3096 79.7214 42.4059 79.3555 42.4059 78.8867C42.4059 78.4935 42.3161 78.1862 42.1364 77.9648C41.9593 77.7409 41.7184 77.6289 41.4137 77.6289C41.0908 77.6289 40.8304 77.7435 40.6325 77.9727C40.4372 78.2018 40.3395 78.4883 40.3395 78.832ZM50.4019 81H49.4956V78.8203C49.4956 78.401 49.4357 78.0977 49.3159 77.9102C49.1987 77.7227 48.9995 77.6289 48.7183 77.6289C48.4813 77.6289 48.2795 77.7474 48.1128 77.9844C47.9487 78.2214 47.8667 78.5052 47.8667 78.8359V81H46.9566V78.7461C46.9566 78.0013 46.6935 77.6289 46.1675 77.6289C45.9227 77.6289 45.7209 77.7409 45.562 77.9648C45.4058 78.1888 45.3277 78.4792 45.3277 78.8359V81H44.4214V77H45.3277V77.6328H45.3433C45.6323 77.1484 46.0529 76.9062 46.605 76.9062C46.881 76.9062 47.1219 76.9831 47.3277 77.1367C47.536 77.2878 47.6779 77.487 47.7534 77.7344C48.0503 77.1823 48.493 76.9062 49.0816 76.9062C49.9618 76.9062 50.4019 77.4492 50.4019 78.5352V81ZM52.1244 76.1602C51.9759 76.1602 51.8483 76.112 51.7416 76.0156C51.6374 75.9193 51.5853 75.7969 51.5853 75.6484C51.5853 75.5 51.6374 75.3763 51.7416 75.2773C51.8483 75.1784 51.9759 75.1289 52.1244 75.1289C52.278 75.1289 52.4082 75.1784 52.515 75.2773C52.6218 75.3763 52.6752 75.5 52.6752 75.6484C52.6752 75.7891 52.6218 75.9102 52.515 76.0117C52.4082 76.1107 52.278 76.1602 52.1244 76.1602ZM52.5736 81H51.6673V77H52.5736V81ZM56.0305 80.957C55.8534 81.0456 55.6203 81.0898 55.3312 81.0898C54.5552 81.0898 54.1672 80.7174 54.1672 79.9727V77.7109H53.4992V77H54.1672V76.0742L55.0734 75.8164V77H56.0305V77.7109H55.0734V79.7109C55.0734 79.9479 55.1164 80.1172 55.2023 80.2188C55.2883 80.3203 55.4315 80.3711 55.632 80.3711C55.7857 80.3711 55.9185 80.3268 56.0305 80.2383V80.957Z" fill="white"/>
</svg>
