<svg width="1000" height="700" viewBox="0 0 1000 700" fill="none" xmlns="http://www.w3.org/2000/svg">
<rect width="1000" height="700" fill="white"/>
<path d="M477.243 434.953H379.135C376.342 434.953 374.078 437.217 374.078 440.01V538.118C374.078 540.911 376.342 543.175 379.135 543.175H477.243C480.036 543.175 482.3 540.911 482.3 538.118V440.01C482.3 437.217 480.036 434.953 477.243 434.953Z" fill="#888888"/>
<path d="M477.243 435.459H379.135C376.622 435.459 374.584 437.497 374.584 440.01V538.118C374.584 540.632 376.622 542.669 379.135 542.669H477.243C479.757 542.669 481.794 540.632 481.794 538.118V440.01C481.794 437.497 479.757 435.459 477.243 435.459Z" stroke="#888888" stroke-width="1.01142"/>
<path d="M620.864 434.953H522.756C519.963 434.953 517.699 437.217 517.699 440.01V538.118C517.699 540.911 519.963 543.175 522.756 543.175H620.864C623.657 543.175 625.921 540.911 625.921 538.118V440.01C625.921 437.217 623.657 434.953 620.864 434.953Z" fill="#D5D5D5"/>
<path d="M440.23 464.012L415.109 490.62L440.23 515.144M558.925 515.144L584.047 488.536L558.925 464.012" stroke="white" stroke-width="10.1142"/>
<path d="M804.945 186.145H662.334C659.541 186.145 657.277 188.409 657.277 191.202V340.892C657.277 343.685 659.541 345.949 662.334 345.949H804.945C807.738 345.949 810.002 343.685 810.002 340.892V191.202C810.002 188.409 807.738 186.145 804.945 186.145Z" fill="#D5D5D5"/>
<path d="M337.667 186.145H195.057C192.264 186.145 190 188.409 190 191.202V340.892C190 343.685 192.264 345.949 195.057 345.949H337.667C340.46 345.949 342.724 343.685 342.724 340.892V191.202C342.724 188.409 340.46 186.145 337.667 186.145Z" fill="#D5D5D5"/>
<path d="M620.864 157.824H379.135C376.342 157.824 374.078 160.088 374.078 162.881V368.199C374.078 370.992 376.342 373.257 379.135 373.257H620.864C623.657 373.257 625.922 370.992 625.922 368.199V162.881C625.922 160.088 623.657 157.824 620.864 157.824Z" fill="#D5D5D5"/>
</svg>
