<svg width="1000" height="700" viewBox="0 0 1000 700" fill="none" xmlns="http://www.w3.org/2000/svg">
<rect width="1000" height="700" fill="white"/>
<path d="M471.19 140H195.762C192.58 140 190 142.58 190 145.762V379.703C190 382.885 192.58 385.465 195.762 385.465H471.19C474.373 385.465 476.952 382.885 476.952 379.703V145.762C476.952 142.58 474.373 140 471.19 140Z" fill="#D5D5D5"/>
<path d="M804.237 140H528.809C525.627 140 523.047 142.58 523.047 145.762V379.703C523.047 382.885 525.627 385.465 528.809 385.465H804.237C807.419 385.465 809.999 382.885 809.999 379.703V145.762C809.999 142.58 807.419 140 804.237 140Z" fill="#D5D5D5"/>
<path d="M304.091 454.61H500.002V559.48H304.091C301.034 559.48 298.103 558.266 295.942 556.105C293.781 553.944 292.566 551.013 292.566 547.956V466.135C292.566 463.078 293.781 460.147 295.942 457.986C298.103 455.824 301.034 454.61 304.091 454.61Z" fill="#888888"/>
<path d="M500 454.61H697.064C700.12 454.61 703.051 455.824 705.212 457.986C707.374 460.147 708.588 463.078 708.588 466.135V547.956C708.588 551.013 707.374 553.944 705.212 556.105C703.051 558.266 700.12 559.48 697.064 559.48H500V454.61Z" fill="#D5D5D5"/>
<path d="M370.789 522.528H357.974L355.854 528.659H349.077L360.648 496.438H368.161L379.732 528.659H372.909L370.789 522.528ZM369.037 517.365L364.382 503.905L359.726 517.365H369.037ZM402.311 512.157C404.124 512.495 405.614 513.401 406.782 514.876C407.95 516.351 408.534 518.042 408.534 519.947C408.534 521.668 408.104 523.189 407.243 524.51C406.414 525.801 405.2 526.815 403.602 527.553C402.004 528.29 400.114 528.659 397.932 528.659H384.057V496.484H397.332C399.514 496.484 401.389 496.837 402.956 497.544C404.554 498.251 405.753 499.234 406.552 500.494C407.382 501.754 407.796 503.183 407.796 504.781C407.796 506.656 407.289 508.223 406.275 509.483C405.292 510.743 403.97 511.634 402.311 512.157ZM390.51 509.76H396.411C397.947 509.76 399.13 509.421 399.96 508.745C400.79 508.039 401.205 507.04 401.205 505.749C401.205 504.458 400.79 503.46 399.96 502.753C399.13 502.046 397.947 501.693 396.411 501.693H390.51V509.76ZM397.01 523.404C398.577 523.404 399.791 523.035 400.651 522.298C401.543 521.56 401.988 520.515 401.988 519.163C401.988 517.78 401.527 516.705 400.605 515.936C399.683 515.137 398.439 514.738 396.871 514.738H390.51V523.404H397.01ZM412.11 512.525C412.11 509.36 412.817 506.533 414.231 504.044C415.675 501.524 417.626 499.572 420.085 498.189C422.574 496.776 425.355 496.069 428.428 496.069C432.024 496.069 435.174 496.991 437.878 498.835C440.582 500.678 442.472 503.229 443.548 506.487H436.126C435.389 504.95 434.344 503.798 432.992 503.029C431.67 502.261 430.134 501.877 428.382 501.877C426.508 501.877 424.833 502.323 423.358 503.214C421.913 504.074 420.776 505.303 419.947 506.902C419.147 508.5 418.748 510.374 418.748 512.525C418.748 514.646 419.147 516.52 419.947 518.149C420.776 519.747 421.913 520.992 423.358 521.883C424.833 522.743 426.508 523.174 428.382 523.174C430.134 523.174 431.67 522.79 432.992 522.021C434.344 521.222 435.389 520.054 436.126 518.518H443.548C442.472 521.806 440.582 524.372 437.878 526.216C435.205 528.029 432.055 528.936 428.428 528.936C425.355 528.936 422.574 528.244 420.085 526.861C417.626 525.448 415.675 523.496 414.231 521.007C412.817 518.518 412.11 515.691 412.11 512.525Z" fill="white"/>
<path d="M583.527 528.659L576.567 517.826L570.251 528.659H562.968L573.109 512.433L562.83 496.484H570.251L577.212 507.27L583.481 496.484H590.764L580.669 512.664L590.949 528.659H583.527ZM621.444 496.484L610.565 517.458V528.659H604.112V517.458L593.187 496.484H600.47L607.384 511.189L614.253 496.484H621.444ZM631.758 523.22H646.232V528.659H624.29V523.681L638.672 501.923H624.29V496.484H646.232V501.462L631.758 523.22Z" fill="white"/>
</svg>
