<svg width="1000" height="700" viewBox="0 0 1000 700" fill="none" xmlns="http://www.w3.org/2000/svg">
<rect width="1000" height="700" fill="white"/>
<path d="M449.407 133.289H298.616C294.324 133.289 290.844 136.769 290.844 141.062V291.852C290.844 296.145 294.324 299.625 298.616 299.625H449.407C453.7 299.625 457.18 296.145 457.18 291.852V141.062C457.18 136.769 453.7 133.289 449.407 133.289Z" fill="#888888"/>
<path d="M449.407 134.065H298.617C294.753 134.065 291.621 137.197 291.621 141.061V291.851C291.621 295.715 294.753 298.847 298.617 298.847H449.407C453.271 298.847 456.403 295.715 456.403 291.851V141.061C456.403 137.197 453.271 134.065 449.407 134.065Z" stroke="#888888" stroke-width="1.55454"/>
<path d="M701.243 133.289H550.452C546.16 133.289 542.68 136.769 542.68 141.062V291.852C542.68 296.145 546.16 299.625 550.452 299.625H701.243C705.536 299.625 709.016 296.145 709.016 291.852V141.062C709.016 136.769 705.536 133.289 701.243 133.289Z" fill="#D5D5D5"/>
<path d="M392.52 177.952L353.91 218.849L392.52 256.542M606.044 256.542L644.656 215.645L606.044 177.952" stroke="white" stroke-width="15.5454"/>
<path d="M298.149 503.702H272.22L267.929 516.107H254.218L277.629 450.91H292.833L316.244 516.107H302.44L298.149 503.702ZM294.605 493.256L285.185 466.02L275.764 493.256H294.605ZM361.931 482.716C365.6 483.4 368.616 485.234 370.979 488.219C373.341 491.204 374.523 494.624 374.523 498.479C374.523 501.961 373.652 505.039 371.911 507.713C370.232 510.325 367.776 512.377 364.543 513.869C361.309 515.361 357.485 516.107 353.07 516.107H324.995V451.003H351.858C356.273 451.003 360.066 451.718 363.237 453.148C366.47 454.579 368.895 456.568 370.512 459.118C372.191 461.667 373.031 464.559 373.031 467.792C373.031 471.585 372.005 474.757 369.953 477.306C367.963 479.855 365.289 481.659 361.931 482.716ZM338.053 477.866H349.992C353.101 477.866 355.495 477.182 357.174 475.814C358.853 474.384 359.693 472.363 359.693 469.751C359.693 467.139 358.853 465.118 357.174 463.688C355.495 462.258 353.101 461.543 349.992 461.543H338.053V477.866ZM351.205 505.474C354.376 505.474 356.832 504.728 358.573 503.236C360.377 501.743 361.278 499.629 361.278 496.893C361.278 494.095 360.345 491.919 358.48 490.364C356.615 488.747 354.096 487.939 350.925 487.939H338.053V505.474H351.205ZM381.759 483.462C381.759 477.057 383.189 471.337 386.049 466.3C388.972 461.201 392.92 457.252 397.895 454.454C402.932 451.594 408.559 450.164 414.777 450.164C422.053 450.164 428.426 452.029 433.898 455.76C439.37 459.491 443.194 464.652 445.371 471.243H430.354C428.861 468.134 426.747 465.802 424.011 464.248C421.337 462.693 418.228 461.916 414.684 461.916C410.891 461.916 407.502 462.818 404.517 464.621C401.595 466.362 399.294 468.849 397.615 472.083C395.998 475.316 395.19 479.109 395.19 483.462C395.19 487.753 395.998 491.546 397.615 494.841C399.294 498.075 401.595 500.593 404.517 502.396C407.502 504.137 410.891 505.008 414.684 505.008C418.228 505.008 421.337 504.231 424.011 502.676C426.747 501.059 428.861 498.697 430.354 495.587H445.371C443.194 502.241 439.37 507.433 433.898 511.164C428.488 514.833 422.115 516.667 414.777 516.667C408.559 516.667 402.932 515.268 397.895 512.47C392.92 509.609 388.972 505.661 386.049 500.624C383.189 495.587 381.759 489.867 381.759 483.462Z" fill="#888888"/>
<path d="M622.117 516.107L608.033 494.188L595.255 516.107H580.518L601.037 483.275L580.238 451.003H595.255L609.339 472.829L622.024 451.003H636.761L616.334 483.742L637.134 516.107H622.117ZM698.838 451.003L676.826 493.442V516.107H663.768V493.442L641.662 451.003H656.399L670.39 480.757L684.288 451.003H698.838ZM719.707 505.101H748.995V516.107H704.597V506.034L733.698 462.009H704.597V451.003H748.995V461.077L719.707 505.101Z" fill="#888888"/>
<path d="M190 567.397H810" stroke="#D5D5D5" stroke-width="23.3181"/>
<path d="M190 567.397H493.775" stroke="#888888" stroke-width="23.3181"/>
</svg>
