<svg width="100" height="100" viewBox="0 0 100 100" fill="none" xmlns="http://www.w3.org/2000/svg">
<rect width="100" height="100" rx="10" fill="#1717CC"/>
<path d="M56 74.3624L55.9622 83H44V70.9996H52.6527C52.7282 70.9996 52.7849 71.0304 52.8496 71.0388C53.2198 71.0811 53.5827 71.1752 53.9285 71.3183C54.0418 71.3574 54.1524 71.4078 54.2576 71.4553C54.2846 71.4748 54.3142 71.486 54.3412 71.5056C54.9067 71.766 55.3685 72.22 55.6494 72.7914C55.6682 72.8222 55.6763 72.839 55.6871 72.8585C55.7407 72.9747 55.7849 73.0954 55.8193 73.2191C55.8481 73.3018 55.8697 73.3869 55.884 73.4735C55.9575 73.7638 55.9964 74.0623 56 74.3624Z" fill="white"/>
<path d="M56 18.4233V62.4509C56 63.138 55.6509 63.7325 54.9339 64.2441C54.1931 64.7604 53.2753 65.0275 52.3391 64.9994H44V17.0004H54.0113C54.5141 16.9916 55.0057 17.1349 55.4074 17.4073C55.5913 17.5198 55.7415 17.6713 55.8449 17.8485C55.9482 18.0257 56.0015 18.2231 56 18.4233Z" fill="white"/>
</svg>
