<svg width="377" height="182" viewBox="0 0 377 182" fill="none" xmlns="http://www.w3.org/2000/svg">
<rect x="90" y="0.5" width="196" height="40" rx="5" fill="#E7E7E7"/>
<rect x="31.5" y="58" width="315" height="65" rx="4.5" stroke="#909090"/>
<rect x="39" y="65.5" width="300" height="50" rx="3" fill="#DDDDDD"/>
<rect x="90" y="141.5" width="196" height="40" rx="5" fill="#E7E7E7"/>
<path d="M193.774 68.845L197.429 70.9455L194.71 56.5756C194.44 55.1512 195.376 53.7778 196.801 53.5082C198.225 53.2386 199.598 54.1748 199.868 55.5993L201.333 63.3369L205.869 63.2073C208.793 63.0957 210.254 63.0399 211.369 63.4501C213.21 64.1278 214.689 65.3888 215.1 67.5606C215.387 69.0734 215.205 70.159 214.812 73.0578C214.563 74.8972 214.438 75.8169 214.098 76.5907C213.537 77.8647 212.55 78.904 211.308 79.5307C210.553 79.9114 209.641 80.084 207.817 80.4292L206.271 80.7218C203.846 81.1807 202.634 81.4102 201.47 81.1695C201.262 81.1264 201.056 81.0722 200.853 81.0071C199.721 80.6441 198.779 79.8479 196.894 78.2555L190.791 73.1002C189.853 72.308 189.594 70.9691 190.169 69.8846C190.861 68.5811 192.495 68.1098 193.774 68.845Z" fill="white" stroke="#020202" stroke-linecap="round" stroke-linejoin="round"/>
</svg>
