<svg width="285" height="84" viewBox="0 0 285 84" fill="none" xmlns="http://www.w3.org/2000/svg">
<rect x="0.5" y="0.5" width="84" height="61" rx="5" fill="#E7E7E7"/>
<rect x="101" y="1" width="83" height="60" rx="4.5" stroke="#909090"/>
<rect x="200.5" y="0.5" width="84" height="61" rx="5" fill="#E7E7E7"/>
<rect x="104.5" y="4.5" width="76" height="53" rx="3" fill="#DDDDDD"/>
<path opacity="0.2" d="M135.24 35.4L128.184 32.28V31L135.24 27.88V29.656L129.656 31.96V31.32L135.24 33.624V35.4ZM139.433 37.64L143.913 25.16H145.561L141.081 37.64H139.433ZM149.762 29.656V27.88L156.818 31V32.28L149.762 35.4V33.624L155.346 31.32V31.96L149.762 29.656Z" fill="#020202"/>
<path d="M147.773 63.845L151.428 65.9455L148.709 51.5756C148.439 50.1512 149.375 48.7778 150.8 48.5082C152.224 48.2386 153.597 49.1748 153.867 50.5993L155.332 58.3369L159.868 58.2073C162.792 58.0957 164.253 58.0399 165.368 58.4501C167.209 59.1278 168.688 60.3888 169.099 62.5606C169.386 64.0734 169.204 65.159 168.811 68.0578C168.562 69.8972 168.437 70.8169 168.097 71.5907C167.536 72.8647 166.55 73.904 165.307 74.5307C164.552 74.9114 163.64 75.084 161.816 75.4292L160.27 75.7218C157.845 76.1807 156.633 76.4102 155.469 76.1695C155.261 76.1264 155.055 76.0722 154.852 76.0071C153.72 75.6441 152.778 74.8479 150.893 73.2555L144.79 68.1002C143.852 67.308 143.593 65.9691 144.168 64.8846C144.86 63.5811 146.494 63.1098 147.773 63.845Z" fill="white" stroke="#020202" stroke-linecap="round" stroke-linejoin="round"/>
</svg>
