<svg width="40" height="40" viewBox="0 0 40 40" fill="none" xmlns="http://www.w3.org/2000/svg">
<g clip-path="url(#clip0_1042_2487)">
<path d="M40 0H0V40H40V0Z" fill="url(#paint0_linear_1042_2487)"/>
<path d="M20.6098 17.52H19.3298V19.33H17.5098V20.62H19.3298V22.43H20.6098V20.62H22.4198V19.33H20.6098V17.52Z" fill="white"/>
<path d="M19.9702 6.7002H15.1202V19.3302H11.2002V20.6202H15.1202V22.4302H16.4002V7.9902H19.9702C21.9302 7.9902 23.5202 9.5802 23.5302 11.5402V14.0202H24.8202V11.5402C24.8102 9.8002 23.8702 8.2002 22.3602 7.3402C21.6302 6.9202 20.8102 6.7002 19.9702 6.7002Z" fill="white"/>
<path d="M20.6098 11.21H19.3298V15.12H17.5098V16.41H31.9498V19.97C31.9498 21.93 30.3598 23.53 28.4098 23.54H25.9198V24.83H28.4098C30.1398 24.82 31.7498 23.88 32.6098 22.36C33.0198 21.64 33.2398 20.81 33.2398 19.97V15.12H20.6098V11.21Z" fill="white"/>
<path d="M24.8201 17.52H23.5401V31.96H19.9701C18.0101 31.96 16.4101 30.37 16.4001 28.41V25.93H15.1201V28.41C15.1201 30.15 16.0701 31.76 17.5801 32.61C18.3101 33.03 19.1301 33.24 19.9701 33.24H24.8201V20.62H28.7401V19.33H24.8201V17.52Z" fill="white"/>
<path d="M14.0202 15.1201H11.5302C9.8002 15.1301 8.1902 16.0701 7.3302 17.5901C6.9202 18.3101 6.7002 19.1401 6.7002 19.9801V24.8301H19.3302V28.7401H20.6102V24.8301H22.4202V23.5401H7.9902V19.9801C7.9902 18.0201 9.5802 16.4201 11.5302 16.4101H14.0202V15.1201Z" fill="white"/>
</g>
<defs>
<linearGradient id="paint0_linear_1042_2487" x1="21.1389" y1="-7.07032" x2="49.4005" y2="37.9223" gradientUnits="userSpaceOnUse">
<stop stop-color="#6D68FE"/>
<stop offset="1" stop-color="#B446FF"/>
</linearGradient>
<clipPath id="clip0_1042_2487">
<rect width="40" height="40" fill="white"/>
</clipPath>
</defs>
</svg>
