<svg width="18" height="18" viewBox="0 0 18 18" fill="none" xmlns="http://www.w3.org/2000/svg">
<rect width="18" height="18" rx="4.5" fill="#FFD53E"/>
<rect x="0.36" y="0.36" width="17.28" height="17.28" rx="4.14" stroke="white" stroke-opacity="0.4" stroke-width="0.72"/>
<path d="M7.50755 7.91525C7.68907 7.64632 7.93782 7.42782 8.25381 7.25975C8.57652 7.09167 8.94292 7.00763 9.35303 7.00763C9.83037 7.00763 10.2606 7.12528 10.6439 7.36059C11.0338 7.5959 11.3397 7.93205 11.5616 8.36905C11.7901 8.79933 11.9044 9.3002 11.9044 9.87166C11.9044 10.4431 11.7901 10.9507 11.5616 11.3944C11.3397 11.8314 11.0338 12.1709 10.6439 12.413C10.2606 12.655 9.83037 12.776 9.35303 12.776C8.9362 12.776 8.56979 12.6953 8.25381 12.534C7.94455 12.3659 7.69579 12.1508 7.50755 11.8886V12.6853H6.0957V5.22266H7.50755V7.91525ZM10.4623 9.87166C10.4623 9.5355 10.3917 9.24641 10.2506 9.00438C10.1161 8.75563 9.93458 8.56738 9.70599 8.43964C9.48413 8.31191 9.2421 8.24804 8.9799 8.24804C8.72442 8.24804 8.48239 8.31527 8.25381 8.44973C8.03195 8.57747 7.85042 8.76571 7.70924 9.01447C7.57478 9.26322 7.50755 9.55567 7.50755 9.89183C7.50755 10.228 7.57478 10.5204 7.70924 10.7692C7.85042 11.0179 8.03195 11.2095 8.25381 11.344C8.48239 11.4717 8.72442 11.5356 8.9799 11.5356C9.2421 11.5356 9.48413 11.4684 9.70599 11.3339C9.93458 11.1995 10.1161 11.0079 10.2506 10.7591C10.3917 10.5104 10.4623 10.2145 10.4623 9.87166Z" fill="#020202"/>
</svg>
