<svg width="24" height="25" viewBox="0 0 24 25" fill="none" xmlns="http://www.w3.org/2000/svg">
<path d="M0 6.375C0 3.06129 2.68629 0.375 6 0.375H18C21.3137 0.375 24 3.06129 24 6.375V18.375C24 21.6887 21.3137 24.375 18 24.375H6C2.68629 24.375 0 21.6887 0 18.375V6.375Z" fill="#92003B"/>
<path d="M18 23.175V24.375H6V23.175H18ZM22.8 18.375V6.375C22.8 3.72403 20.651 1.575 18 1.575H6C3.34903 1.575 1.2 3.72403 1.2 6.375V18.375C1.2 21.026 3.34903 23.175 6 23.175V24.375C2.68629 24.375 0 21.6887 0 18.375V6.375C0 3.16466 2.52133 0.543634 5.6918 0.383203L6 0.375H18L18.3082 0.383203C21.4787 0.543634 24 3.16466 24 6.375V18.375L23.9918 18.6832C23.8314 21.8537 21.2103 24.375 18 24.375V23.175C20.651 23.175 22.8 21.026 22.8 18.375Z" fill="white" fill-opacity="0.4"/>
<path d="M9.11678 17.168H7.2V7.58203H9.11678V17.168ZM16.7859 17.168H11.0336V15.2517H16.7859V17.168ZM16.7859 13.3332H11.0336V11.4169H16.7859V13.3332ZM16.7859 9.49841H11.0336V7.58203H16.7859V9.49841Z" fill="white"/>
</svg>
